{"glyphs":{"0":{"ha":1023,"x_min":34,"x_max":989,"o":"m 511 955 l 511 955 q 544 933 521 951 q 578 902 556 924 q 603 870 594 883 l 612 854 l 613 854 q 750 891 679 891 q 787 753 787 825 l 790 753 q 923 718 857 753 q 925 715 925 716 q 888 578 925 645 l 888 578 q 989 478 951 542 l 989 477 q 967 445 985 468 q 936 411 958 433 q 904 386 917 395 l 888 376 l 888 376 q 925 239 925 311 q 787 201 859 201 l 787 199 q 751 66 787 132 q 749 64 750 64 q 612 100 679 64 l 612 100 q 512 0 576 38 l 511 0 q 480 21 502 5 q 445 54 469 29 q 427 75 431 70 q 410 100 422 82 l 410 100 q 273 64 345 64 q 235 201 235 130 l 231 201 q 109 233 171 201 l 98 239 q 135 376 98 311 q 92 407 115 388 q 64 435 71 427 q 36 473 45 457 q 34 477 34 477 q 135 578 71 541 q 98 716 98 644 q 235 753 163 753 l 235 756 q 273 891 235 825 q 410 854 345 891 q 511 955 447 918 m 538 713 q 404 673 460 713 q 378 652 394 667 q 357 626 363 635 q 325 527 325 578 q 349 443 325 476 q 368 423 354 433 q 390 412 385 412 l 391 412 q 397 414 394 412 q 401 422 400 416 q 408 451 408 447 q 405 458 408 453 q 383 518 383 482 q 413 608 383 570 q 435 631 422 620 q 528 662 475 662 q 617 635 583 662 q 654 548 654 602 q 635 451 654 495 q 623 428 629 437 q 559 389 596 389 q 528 399 543 389 q 511 434 511 414 l 511 436 q 521 477 511 446 q 539 552 539 532 q 534 577 539 566 q 499 597 522 597 q 460 578 477 597 q 441 521 441 554 q 450 473 441 495 l 415 321 q 407 258 407 291 l 407 253 q 411 199 407 228 q 414 193 411 194 l 415 193 q 416 193 416 193 q 427 205 418 195 q 454 249 444 230 q 471 286 463 265 q 493 374 478 313 q 500 364 496 370 q 515 353 509 356 q 566 337 540 337 q 568 338 567 338 l 568 338 q 620 347 593 338 q 692 408 663 365 q 727 542 727 465 q 717 600 727 571 q 645 685 695 654 q 538 713 597 713 z "},"1":{"ha":1023,"x_min":34,"x_max":989,"o":"m 511 955 l 511 955 q 544 933 521 951 q 578 902 556 924 q 603 870 594 883 l 612 854 l 613 854 q 750 891 679 891 q 787 753 787 825 l 790 753 q 923 718 857 753 q 925 715 925 716 q 888 578 925 645 l 888 578 q 989 478 951 542 l 989 477 q 967 445 985 468 q 936 411 958 433 q 904 386 917 395 l 888 376 l 888 376 q 925 239 925 311 q 787 201 859 201 l 787 199 q 751 66 787 132 q 749 64 750 64 q 612 100 679 64 l 612 100 q 512 0 576 38 l 511 0 q 480 21 502 5 q 445 54 469 29 q 427 75 431 70 q 410 100 422 82 l 410 100 q 273 64 345 64 q 235 201 235 130 l 231 201 q 109 233 171 201 l 98 239 q 135 376 98 311 q 92 407 115 388 q 64 435 71 427 q 36 473 45 457 q 34 477 34 477 q 135 578 71 541 q 98 716 98 644 q 235 753 163 753 l 235 756 q 273 891 235 825 q 273 891 273 891 q 410 854 345 891 q 511 955 447 918 m 231 471 q 262 381 231 421 q 287 357 277 363 q 357 334 320 334 l 357 334 q 443 372 406 334 q 472 416 464 393 q 482 471 482 442 q 446 567 482 525 q 422 587 431 582 q 357 607 391 607 q 271 570 309 607 q 231 471 231 528 m 546 473 q 585 375 546 417 q 616 353 603 359 q 672 338 644 338 l 677 338 q 752 365 716 338 q 778 391 769 379 q 804 469 804 429 l 804 475 q 775 557 804 517 q 710 602 751 589 q 675 607 691 607 q 583 567 623 607 q 546 473 546 526 z "},"2":{"ha":1023,"x_min":34,"x_max":989,"o":"m 511 955 l 511 955 q 544 933 521 951 q 578 902 556 924 q 603 870 594 883 l 612 854 l 613 854 q 750 891 679 891 q 787 753 787 825 l 790 753 q 923 718 857 753 q 925 715 925 716 q 888 578 925 645 l 888 578 q 989 478 951 542 l 989 477 q 967 445 985 468 q 936 411 958 433 q 904 386 917 395 l 888 376 l 888 376 q 925 239 925 311 q 787 201 859 201 l 787 199 q 751 66 787 132 q 749 64 750 64 q 612 100 679 64 l 612 100 q 512 0 576 38 l 511 0 q 480 21 502 5 q 445 54 469 29 q 427 75 431 70 q 410 100 422 82 l 410 100 q 273 64 345 64 q 235 201 235 130 l 231 201 q 109 233 171 201 l 98 239 q 135 376 98 311 q 92 407 115 388 q 64 435 71 427 q 36 473 45 457 q 34 477 34 477 q 135 578 71 541 q 98 716 98 644 q 235 753 163 753 l 235 756 q 273 891 235 825 q 273 891 273 891 q 410 854 345 891 q 511 955 447 918 m 287 651 q 306 609 287 627 q 342 596 322 596 q 385 617 367 596 q 396 651 396 632 q 372 696 396 678 q 341 705 357 705 q 300 686 317 705 q 287 651 287 670 m 538 513 l 538 513 q 538 514 538 513 l 538 555 l 448 555 l 448 252 l 541 252 l 541 393 q 547 447 541 433 q 596 479 559 479 l 597 479 q 597 479 597 479 l 599 479 l 600 479 q 640 454 628 479 q 645 434 645 439 q 646 389 646 427 l 646 252 l 741 252 l 741 421 q 713 530 741 498 q 627 562 687 562 q 559 539 589 562 q 545 524 549 529 q 538 513 541 518 m 294 555 l 294 252 l 389 252 l 389 555 l 294 555 z "},"3":{"ha":1023,"x_min":34,"x_max":989,"o":"m 511 955 l 511 955 q 544 933 521 951 q 578 902 556 924 q 603 870 594 883 l 612 854 l 613 854 q 750 891 679 891 q 787 753 787 825 l 790 753 q 923 718 857 753 q 925 715 925 716 q 888 578 925 645 l 888 578 q 989 478 951 542 l 989 477 q 967 445 985 468 q 936 411 958 433 q 904 386 917 395 l 888 376 l 888 376 q 925 239 925 311 q 787 201 859 201 l 787 199 q 751 66 787 132 q 749 64 750 64 q 612 100 679 64 l 612 100 q 512 0 576 38 l 511 0 q 480 21 502 5 q 445 54 469 29 q 427 75 431 70 q 410 100 422 82 l 410 100 q 273 64 345 64 q 235 201 235 130 l 231 201 q 109 233 171 201 l 98 239 q 135 376 98 311 q 92 407 115 388 q 64 435 71 427 q 36 473 45 457 q 34 477 34 477 q 135 578 71 541 q 98 716 98 644 q 235 753 163 753 l 235 756 q 273 891 235 825 q 273 891 273 891 q 410 854 345 891 q 511 955 447 918 m 463 748 q 459 745 461 748 q 455 719 458 730 q 448 692 452 705 q 430 658 440 673 q 418 642 426 650 q 406 628 416 639 q 385 612 395 618 q 357 597 370 603 q 351 595 351 595 l 351 524 q 351 524 351 524 l 406 524 l 406 345 q 416 293 406 319 q 475 220 434 245 q 567 197 515 197 l 568 197 q 642 212 605 197 q 661 222 652 216 q 667 229 663 224 q 641 308 665 237 l 634 305 q 596 298 612 298 l 593 298 q 557 311 570 298 q 543 353 543 326 l 543 524 l 654 524 q 654 524 654 524 l 654 608 q 654 608 654 608 l 543 608 l 543 747 q 543 748 543 748 l 463 748 z "},"4":{"ha":1023,"x_min":34,"x_max":989,"o":"m 511 955 l 511 955 q 544 933 521 951 q 578 902 556 924 q 603 870 594 883 l 612 854 l 613 854 q 750 891 679 891 q 787 753 787 825 l 790 753 q 923 718 857 753 q 925 715 925 716 q 888 578 925 645 l 888 578 q 989 478 951 542 l 989 477 q 967 445 985 468 q 936 411 958 433 q 904 386 917 395 l 888 376 l 888 376 q 925 239 925 311 q 787 201 859 201 l 787 199 q 751 66 787 132 q 749 64 750 64 q 612 100 679 64 l 612 100 q 512 0 576 38 l 511 0 q 480 21 502 5 q 445 54 469 29 q 427 75 431 70 q 410 100 422 82 l 410 100 q 273 64 345 64 q 235 201 235 130 l 231 201 q 109 233 171 201 l 98 239 q 135 376 98 311 q 92 407 115 388 q 64 435 71 427 q 36 473 45 457 q 34 477 34 477 q 135 578 71 541 q 98 716 98 644 q 235 753 163 753 l 235 756 q 273 891 235 825 q 273 891 273 891 q 410 854 345 891 q 511 955 447 918 m 483 609 q 431 604 446 609 q 422 597 428 602 q 416 588 416 591 l 416 587 q 416 587 416 587 q 425 585 422 585 q 442 572 437 580 q 446 562 445 568 q 448 548 448 557 q 450 517 450 528 l 450 515 q 450 513 450 514 q 450 513 450 513 l 450 510 q 445 468 450 482 q 432 455 441 455 q 387 506 418 455 q 350 578 364 543 q 339 592 346 589 q 330 595 332 595 q 251 595 317 595 q 240 593 246 595 q 233 583 233 591 l 233 583 q 234 576 233 580 q 279 482 256 527 q 323 413 300 446 q 356 369 336 393 q 380 344 367 356 q 403 328 393 334 q 437 309 420 316 q 500 296 471 296 l 534 296 q 543 299 537 296 q 552 307 550 301 q 555 315 554 309 q 560 351 555 336 q 564 361 562 357 q 578 368 570 368 l 579 368 q 608 347 589 368 q 633 319 623 330 q 646 308 642 310 q 680 295 665 295 l 681 295 q 685 296 684 295 l 758 296 q 765 297 760 296 q 783 314 783 302 l 783 315 q 781 322 783 319 q 773 338 779 329 q 749 366 768 347 q 730 386 743 374 q 709 406 713 402 q 693 431 693 421 l 693 432 q 703 454 693 440 q 737 499 703 454 q 783 582 783 560 l 783 582 q 781 588 783 585 q 762 595 778 595 l 760 595 q 753 595 757 595 l 671 595 q 667 595 669 595 q 663 593 665 595 q 654 585 657 592 q 644 560 648 572 q 625 523 633 538 q 568 456 585 456 l 568 456 q 564 457 566 456 q 554 490 554 464 l 554 491 q 554 523 554 515 q 555 570 555 561 q 552 593 555 587 q 542 604 549 600 q 534 605 536 605 q 490 609 523 609 l 483 609 z "},"5":{"ha":1023,"x_min":34,"x_max":989,"o":"m 511 955 l 511 955 q 544 933 521 951 q 578 902 556 924 q 603 870 594 883 l 612 854 l 613 854 q 750 891 679 891 q 787 753 787 825 l 790 753 q 923 718 857 753 q 925 715 925 716 q 888 578 925 645 l 888 578 q 989 478 951 542 l 989 477 q 967 445 985 468 q 936 411 958 433 q 904 386 917 395 l 888 376 l 888 376 q 925 239 925 311 q 787 201 859 201 l 787 199 q 751 66 787 132 q 749 64 750 64 q 612 100 679 64 l 612 100 q 512 0 576 38 l 511 0 q 480 21 502 5 q 445 54 469 29 q 427 75 431 70 q 410 100 422 82 l 410 100 q 273 64 345 64 q 235 201 235 130 l 231 201 q 109 233 171 201 l 98 239 q 135 376 98 311 q 92 407 115 388 q 64 435 71 427 q 36 473 45 457 q 34 477 34 477 q 135 578 71 541 q 98 716 98 644 q 235 753 163 753 l 235 756 q 273 891 235 825 q 273 891 273 891 q 410 854 345 891 q 511 955 447 918 m 515 649 q 420 648 474 649 q 341 644 371 646 q 319 642 325 644 q 291 630 303 639 q 279 618 284 625 q 270 598 275 611 q 262 572 266 589 q 257 488 257 525 l 257 448 q 261 376 257 416 q 264 352 262 362 q 274 327 269 336 q 300 301 281 310 q 313 296 305 298 q 333 292 320 294 q 382 289 342 291 q 517 286 475 286 q 616 288 556 286 q 708 293 696 291 q 729 300 720 295 q 740 306 734 302 q 750 317 745 310 q 760 337 757 326 q 768 362 765 347 q 773 448 773 409 l 773 488 q 768 572 773 526 q 762 596 765 589 q 748 622 757 612 q 739 630 741 629 q 724 637 732 635 q 711 642 720 640 q 674 645 700 644 q 515 649 596 649 m 462 546 q 575 486 464 545 q 602 473 601 473 l 578 461 q 462 401 577 460 l 462 401 l 462 546 z "},"6":{"ha":1023,"x_min":34,"x_max":989,"o":"m 511 955 l 511 955 q 544 933 521 951 q 578 902 556 924 q 603 870 594 883 l 612 854 l 613 854 q 750 891 679 891 q 787 753 787 825 l 790 753 q 923 718 857 753 q 925 715 925 716 q 888 578 925 645 l 888 578 q 989 478 951 542 l 989 477 q 967 445 985 468 q 936 411 958 433 q 904 386 917 395 l 888 376 l 888 376 q 925 239 925 311 q 787 201 859 201 l 787 199 q 751 66 787 132 q 749 64 750 64 q 612 100 679 64 l 612 100 q 512 0 576 38 l 511 0 q 480 21 502 5 q 445 54 469 29 q 427 75 431 70 q 410 100 422 82 l 410 100 q 273 64 345 64 q 235 201 235 130 l 231 201 q 109 233 171 201 l 98 239 q 135 376 98 311 q 92 407 115 388 q 64 435 71 427 q 36 473 45 457 q 34 477 34 477 q 135 578 71 541 q 98 716 98 644 q 235 753 163 753 l 235 756 q 273 891 235 825 q 273 891 273 891 q 410 854 345 891 q 511 955 447 918 m 505 739 q 452 730 479 739 q 378 667 401 710 q 360 593 360 642 l 360 587 q 363 519 360 567 q 347 515 356 515 q 330 517 339 515 q 311 524 315 524 l 309 524 q 288 507 288 519 q 316 483 288 494 q 359 450 359 472 q 346 417 359 439 q 313 374 336 399 q 276 347 293 355 q 242 335 248 335 q 230 327 230 334 l 230 326 q 253 307 230 317 q 302 296 271 301 q 311 276 308 296 q 323 258 313 258 q 366 264 353 264 q 380 262 376 264 q 437 236 403 262 q 509 210 472 210 l 515 210 q 559 220 538 210 q 601 246 574 227 q 657 264 623 264 l 658 264 q 669 263 664 264 l 701 258 q 709 264 707 258 q 720 295 717 295 q 794 327 794 307 q 787 334 794 332 q 728 360 758 338 q 694 393 712 372 q 665 450 665 433 l 665 450 q 689 477 665 467 q 736 507 736 490 q 734 512 736 508 q 711 524 726 524 q 705 524 708 524 q 675 515 686 515 q 661 519 668 515 q 664 589 664 571 q 661 631 664 614 q 642 675 659 647 q 611 708 633 689 q 519 739 568 739 l 505 739 z "},"7":{"ha":1023,"x_min":34,"x_max":989,"o":"m 580 716 q 530 707 553 716 q 479 665 496 694 q 462 596 462 635 l 462 526 l 382 526 q 382 526 382 526 l 382 434 q 382 433 382 433 l 462 433 l 462 197 q 462 197 462 197 l 557 197 q 557 197 557 197 l 557 433 l 637 433 q 648 526 637 437 q 648 526 648 526 l 557 526 l 557 578 q 559 604 557 599 q 563 614 559 606 q 580 627 568 623 q 610 630 588 630 l 652 630 q 652 630 652 630 l 652 712 l 652 713 q 583 716 618 716 l 580 716 m 511 955 q 650 816 604 863 q 849 815 812 815 l 849 814 l 849 668 q 849 618 849 652 q 989 477 983 484 q 850 338 897 385 q 849 140 849 177 l 848 140 l 702 140 q 652 140 686 140 q 511 0 517 5 q 372 139 420 91 q 174 140 211 140 l 174 140 l 174 287 q 174 337 174 303 q 34 477 39 471 q 173 616 125 569 q 174 815 174 778 l 174 815 l 321 815 q 371 815 337 815 q 511 955 505 949 z "},"8":{"ha":1023,"x_min":34,"x_max":989,"o":"m 511 955 q 650 816 604 863 q 849 815 812 815 l 849 814 l 849 668 q 849 618 849 652 q 989 477 983 484 q 850 338 897 385 q 849 140 849 177 l 848 140 l 702 140 q 652 140 686 140 q 511 0 517 5 q 372 139 420 91 q 174 140 211 140 l 174 140 l 174 287 q 174 337 174 303 q 34 477 39 471 q 173 616 125 569 q 174 815 174 778 l 174 815 l 321 815 q 371 815 337 815 q 511 955 505 949 m 517 557 l 517 555 q 519 534 517 547 l 518 534 q 476 538 507 534 q 427 553 448 545 q 379 578 405 563 q 336 614 360 591 q 312 639 323 627 q 299 590 299 614 l 299 586 q 323 524 299 553 q 343 505 335 509 q 343 505 343 505 l 343 505 q 298 517 322 505 l 298 515 q 328 444 298 475 q 363 422 347 427 q 377 418 375 418 l 377 418 q 366 415 377 417 q 356 414 360 414 l 354 414 q 352 414 353 414 l 351 414 l 350 414 q 333 416 343 414 q 374 363 345 381 q 427 347 400 347 l 427 347 l 427 347 q 398 328 412 334 q 307 304 351 304 l 299 304 q 279 305 289 304 q 340 275 307 287 q 433 260 385 260 q 573 295 509 260 q 618 327 593 307 q 649 359 641 347 q 684 409 669 383 q 701 450 692 427 q 718 541 718 498 l 718 555 l 718 558 q 745 583 725 564 q 767 609 759 597 l 767 609 l 766 609 q 727 597 747 602 q 710 593 712 593 l 710 594 q 731 610 717 597 q 753 649 748 631 q 713 631 734 638 q 690 625 693 625 q 668 642 675 639 q 618 656 644 656 l 617 656 q 547 628 577 656 q 517 557 517 597 z "},"9":{"ha":1023,"x_min":34,"x_max":989,"o":"m 511 955 q 650 816 604 863 q 849 815 812 815 l 849 814 l 849 668 q 849 618 849 652 q 989 477 983 484 q 850 338 897 385 q 849 140 849 177 l 848 140 l 702 140 q 652 140 686 140 q 511 0 517 5 q 372 139 420 91 q 174 140 211 140 l 174 140 l 174 287 q 174 337 174 303 q 34 477 39 471 q 173 616 125 569 q 174 815 174 778 l 174 815 l 321 815 q 371 815 337 815 q 511 955 505 949 m 398 658 q 294 623 342 658 q 226 528 244 586 q 220 503 222 517 q 218 471 218 485 l 218 469 q 229 411 218 440 q 304 317 252 351 q 402 289 350 289 l 405 289 q 483 306 446 289 q 513 323 496 311 q 580 474 580 376 l 580 477 q 578 499 580 486 l 578 500 q 524 500 543 500 l 402 500 q 402 499 402 500 l 402 437 l 402 437 q 508 436 408 436 l 508 436 q 502 417 508 432 q 491 398 499 410 q 474 380 487 392 q 402 357 441 357 q 331 382 361 357 q 316 397 326 386 q 289 473 289 429 q 304 533 289 505 q 321 555 309 542 q 333 566 329 563 q 400 589 362 589 q 478 564 440 589 l 479 564 q 485 569 479 564 q 526 612 514 598 l 526 612 q 410 658 467 658 l 404 658 q 402 658 403 658 q 401 658 401 658 l 398 658 m 693 553 q 693 500 693 517 q 640 500 688 500 l 640 499 l 640 448 l 640 448 q 693 447 646 448 q 693 399 693 409 q 693 394 693 398 l 694 394 l 746 394 l 746 394 q 746 447 746 411 q 799 448 757 447 l 799 448 l 799 499 l 799 500 q 746 500 785 500 l 746 553 l 746 553 l 694 553 l 693 553 z "},"\u0000":{"ha":0,"x_min":0,"x_max":0,"o":""}," ":{"ha":345,"x_min":0,"x_max":0,"o":""},"!":{"ha":1023,"x_min":34,"x_max":989,"o":"m 593 797 q 530 786 559 797 q 465 731 487 768 q 444 645 444 694 l 444 556 l 342 556 q 342 556 342 556 l 342 439 q 342 439 342 439 l 444 439 l 444 140 q 444 140 444 140 l 564 140 q 564 140 564 140 l 564 439 l 665 439 q 680 556 666 444 q 680 556 680 556 l 564 556 l 564 622 q 567 656 564 649 q 572 667 567 659 q 593 684 578 679 q 631 688 604 688 l 684 688 q 684 688 684 688 l 684 792 l 684 792 q 597 797 642 797 l 593 797 m 509 955 l 514 955 q 785 869 659 955 q 840 825 811 851 q 884 777 873 791 q 924 720 910 743 q 989 480 989 606 l 989 475 q 903 203 989 330 q 859 149 885 178 q 811 105 825 115 q 753 65 777 79 q 514 0 640 0 l 509 0 q 237 85 363 0 q 183 130 212 104 q 139 178 149 163 q 99 235 113 212 q 34 475 34 349 l 34 480 q 119 751 34 625 q 164 806 138 777 q 212 850 197 840 q 269 890 245 876 q 509 955 382 955 z "},"\"":{"ha":1023,"x_min":34,"x_max":989,"o":"m 511 955 l 512 955 q 766 882 648 955 q 958 645 900 796 q 989 478 989 564 l 989 477 q 916 222 989 341 q 679 31 830 89 q 512 0 598 0 l 511 0 q 256 73 375 0 q 64 310 123 159 q 34 477 34 391 l 34 478 q 107 732 34 614 q 344 924 193 866 q 511 955 425 955 m 535 581 l 535 578 q 538 550 535 566 l 538 550 q 482 557 524 550 q 420 576 447 565 q 357 608 391 587 q 301 653 332 624 q 271 685 285 669 q 254 623 254 653 l 254 617 q 285 536 254 575 q 311 513 300 519 q 311 513 311 513 l 311 513 q 253 528 284 513 l 253 525 q 292 434 253 474 q 338 406 317 412 q 355 400 352 400 l 355 400 q 341 397 355 399 q 328 395 332 395 l 325 395 q 323 395 323 395 l 321 395 l 320 395 q 298 397 311 395 q 351 329 314 353 q 418 308 385 308 l 418 308 l 418 308 q 382 283 399 292 q 263 253 322 253 l 254 253 q 228 254 241 253 q 307 216 264 231 q 427 196 366 196 q 608 241 525 196 q 666 283 635 256 q 707 324 696 310 q 750 389 732 356 q 773 441 762 412 q 794 559 794 504 l 794 578 l 794 581 q 830 612 805 588 q 859 648 848 632 l 859 648 l 858 648 q 807 631 833 637 q 785 628 787 628 l 785 629 q 812 650 793 632 q 841 699 834 675 q 788 675 816 684 q 759 668 764 668 q 731 690 741 686 q 665 709 700 709 l 665 709 q 574 671 613 709 q 535 581 535 632 z "},"#":{"ha":1023,"x_min":34,"x_max":989,"o":"m 510 955 l 513 955 q 788 867 661 955 q 834 829 812 850 q 876 785 867 798 q 928 709 914 739 q 989 479 989 601 l 989 476 q 901 201 989 328 q 863 155 884 177 q 819 113 832 122 q 743 60 772 75 q 513 0 635 0 l 510 0 q 235 88 362 0 q 189 125 211 105 q 146 170 156 157 q 94 245 109 216 q 34 476 34 354 l 34 479 q 122 754 34 627 q 159 800 139 778 q 203 842 191 833 q 279 895 250 880 q 510 955 388 955 m 395 683 q 277 644 332 683 q 201 537 220 602 q 193 509 196 525 q 191 473 191 488 l 191 470 q 203 404 191 438 q 289 298 229 337 q 399 268 340 268 l 401 268 q 490 287 448 268 q 524 307 504 294 q 599 477 599 366 l 599 479 q 597 505 599 490 l 597 505 q 535 505 557 505 l 399 505 q 399 505 399 505 l 399 435 l 399 435 q 517 433 406 434 l 517 433 q 511 412 517 429 q 499 391 508 404 q 479 371 494 385 q 399 345 443 345 q 319 373 352 345 q 302 389 313 377 q 271 475 271 425 q 288 543 271 512 q 307 568 294 553 q 321 580 317 576 q 397 606 353 606 q 484 577 441 606 l 485 577 q 492 583 486 578 q 537 631 526 616 l 537 632 q 408 683 471 683 l 400 683 q 399 683 400 683 q 397 683 398 683 l 395 683 m 726 565 q 726 505 726 526 q 667 505 720 505 l 667 505 l 667 446 l 667 446 q 726 446 673 446 q 726 391 726 403 q 726 386 726 390 l 727 386 l 785 386 l 785 386 q 785 446 785 406 q 845 446 798 446 l 845 446 l 845 505 l 845 505 q 785 505 830 505 l 785 565 l 785 565 l 727 565 l 726 565 z "},"$":{"ha":1023,"x_min":34,"x_max":989,"o":"m 510 955 l 513 955 q 788 867 661 955 q 834 829 812 850 q 876 785 867 798 q 928 709 914 739 q 989 479 989 601 l 989 476 q 901 201 989 328 q 863 155 884 177 q 819 113 832 122 q 743 60 772 75 q 513 0 635 0 l 510 0 q 235 88 362 0 q 189 125 211 105 q 146 170 156 157 q 94 245 109 216 q 34 476 34 354 l 34 479 q 122 754 34 627 q 159 800 139 778 q 203 842 191 833 q 279 895 250 880 q 510 955 388 955 m 250 620 l 250 319 q 261 264 250 283 q 280 239 264 255 q 351 211 310 211 l 667 211 q 740 241 709 211 q 768 316 768 269 l 768 624 q 750 688 768 663 q 718 716 734 708 q 669 730 695 730 l 349 730 q 272 692 304 730 q 252 650 258 676 q 250 620 250 641 m 708 670 l 709 669 l 709 583 q 708 582 709 582 l 697 582 q 621 581 673 582 l 621 582 l 621 669 q 621 669 621 669 q 708 670 637 669 m 507 562 l 511 562 q 578 530 548 562 q 600 469 600 504 q 576 408 600 436 q 509 379 547 379 q 439 411 469 379 q 418 470 418 438 q 444 534 418 505 q 507 562 472 562 m 300 524 l 376 524 q 377 523 377 524 q 367 470 367 497 q 414 364 367 410 q 506 328 458 328 l 512 328 q 602 363 559 328 q 624 387 618 378 q 651 468 651 426 l 651 472 q 641 524 651 496 l 641 524 l 718 524 q 718 523 718 524 l 718 309 q 694 269 718 286 q 662 261 684 261 l 357 261 q 322 270 333 261 q 310 281 320 270 q 300 311 300 294 l 300 523 q 300 524 300 524 z "},"%":{"ha":1023,"x_min":34,"x_max":989,"o":"m 510 955 l 513 955 q 788 867 661 955 q 834 829 812 850 q 876 785 867 798 q 928 709 914 739 q 989 479 989 601 l 989 476 q 901 201 989 328 q 863 155 884 177 q 819 113 832 122 q 743 60 772 75 q 513 0 635 0 l 510 0 q 235 88 362 0 q 189 125 211 105 q 146 170 156 157 q 94 245 109 216 q 34 476 34 354 l 34 479 q 122 754 34 627 q 159 800 139 778 q 203 842 191 833 q 279 895 250 880 q 510 955 388 955 m 528 768 q 369 720 436 768 q 338 695 357 713 q 313 664 320 675 q 275 547 275 607 q 303 448 275 487 q 326 424 311 436 q 353 411 346 411 l 355 411 q 361 412 357 411 q 366 423 365 416 q 374 456 374 452 q 370 465 374 460 q 344 537 344 494 q 380 644 344 597 q 406 670 390 657 q 517 707 454 707 q 621 674 581 707 q 665 572 665 635 q 643 456 665 509 q 628 430 635 441 q 553 384 596 384 q 517 396 533 384 q 496 437 496 412 l 496 439 q 507 488 496 451 q 529 577 529 553 q 523 606 529 593 q 481 630 509 630 q 436 607 455 630 q 413 540 413 578 q 425 484 413 509 l 382 303 q 373 229 373 268 l 373 222 q 377 159 373 193 q 381 152 377 153 l 382 152 q 385 152 383 152 q 395 167 386 155 q 429 218 416 195 q 448 262 438 237 q 474 366 457 294 q 484 354 477 361 q 500 341 494 345 q 560 322 530 322 q 563 323 562 323 l 564 323 q 624 334 594 323 q 709 406 675 355 q 752 565 752 475 q 740 633 752 599 q 654 734 713 697 q 528 768 598 768 z "},"&":{"ha":1023,"x_min":34,"x_max":989,"o":"m 510 955 l 513 955 q 788 867 661 955 q 834 829 812 850 q 876 785 867 798 q 928 709 914 739 q 989 479 989 601 l 989 476 q 901 201 989 328 q 863 155 884 177 q 819 113 832 122 q 743 60 772 75 q 513 0 635 0 l 510 0 q 235 88 362 0 q 189 125 211 105 q 146 170 156 157 q 94 245 109 216 q 34 476 34 354 l 34 479 q 122 754 34 627 q 159 800 139 778 q 203 842 191 833 q 279 895 250 880 q 510 955 388 955 m 170 484 q 208 376 170 425 q 237 347 225 355 q 321 320 277 320 l 321 320 q 425 365 380 320 q 459 418 450 391 q 472 484 472 450 q 428 600 472 549 q 400 624 411 617 q 321 648 363 648 q 218 604 264 648 q 170 484 170 553 m 548 486 q 595 369 548 420 q 632 342 617 349 q 700 325 667 325 l 706 325 q 796 357 753 325 q 827 388 817 374 q 858 482 858 434 l 858 490 q 824 587 858 541 q 745 642 795 626 q 703 648 723 648 q 593 600 641 648 q 548 486 548 550 z "},"'":{"ha":1023,"x_min":34,"x_max":989,"o":"m 510 955 l 513 955 q 788 867 661 955 q 834 829 812 850 q 876 785 867 798 q 928 709 914 739 q 989 479 989 601 l 989 476 q 901 201 989 328 q 863 155 884 177 q 819 113 832 122 q 743 60 772 75 q 513 0 635 0 l 510 0 q 235 88 362 0 q 189 125 211 105 q 146 170 156 157 q 94 245 109 216 q 34 476 34 354 l 34 479 q 122 754 34 627 q 159 800 139 778 q 203 842 191 833 q 279 895 250 880 q 510 955 388 955 m 243 690 q 267 640 243 661 q 311 624 286 624 q 363 650 342 624 q 376 691 376 668 q 347 746 376 724 q 310 757 329 757 q 259 733 280 757 q 243 690 243 714 m 551 523 l 550 523 q 549 524 549 523 l 549 573 l 439 573 l 439 204 l 554 204 l 554 376 q 562 441 554 425 q 621 481 576 481 l 622 481 q 623 481 623 481 l 625 481 l 626 481 q 675 450 661 481 q 680 426 680 433 q 682 371 682 417 l 682 204 l 798 204 l 798 410 q 764 543 798 504 q 659 583 732 583 q 576 554 612 583 q 559 536 563 542 q 551 523 554 528 m 253 573 l 253 204 l 368 204 l 368 573 l 253 573 z "},"(":{"ha":1023,"x_min":34,"x_max":989,"o":"m 510 955 l 513 955 q 788 867 661 955 q 834 829 812 850 q 876 785 867 798 q 928 709 914 739 q 989 479 989 601 l 989 476 q 901 201 989 328 q 863 155 884 177 q 819 113 832 122 q 743 60 772 75 q 513 0 635 0 l 510 0 q 235 88 362 0 q 189 125 211 105 q 146 170 156 157 q 94 245 109 216 q 34 476 34 354 l 34 479 q 122 754 34 627 q 159 800 139 778 q 203 842 191 833 q 279 895 250 880 q 510 955 388 955 m 441 800 q 437 796 439 800 q 432 766 435 778 q 423 734 428 749 q 402 694 414 712 q 389 675 398 684 q 374 659 387 671 q 350 640 360 647 q 315 622 332 629 q 309 620 309 620 l 309 536 q 309 535 309 535 l 374 535 l 374 323 q 386 262 374 292 q 456 177 407 206 q 564 149 502 149 l 566 149 q 653 167 609 149 q 675 178 665 172 q 683 186 677 180 q 652 279 680 197 l 644 277 q 599 268 617 268 l 595 268 q 553 284 568 268 q 536 333 536 302 l 536 535 l 667 535 q 667 536 667 535 l 667 634 q 667 634 667 634 l 536 634 l 536 800 q 536 800 536 800 l 441 800 z "},")":{"ha":1023,"x_min":34,"x_max":989,"o":"m 510 955 l 513 955 q 788 867 661 955 q 834 829 812 850 q 876 785 867 798 q 928 709 914 739 q 989 479 989 601 l 989 476 q 901 201 989 328 q 863 155 884 177 q 819 113 832 122 q 743 60 772 75 q 513 0 635 0 l 510 0 q 235 88 362 0 q 189 125 211 105 q 146 170 156 157 q 94 245 109 216 q 34 476 34 354 l 34 479 q 122 754 34 627 q 159 800 139 778 q 203 842 191 833 q 279 895 250 880 q 510 955 388 955 m 469 633 q 406 627 423 633 q 395 620 402 625 q 387 608 387 612 l 387 607 q 387 606 387 607 q 399 603 395 605 q 419 589 414 598 q 424 576 422 583 q 427 559 426 570 q 429 520 429 534 l 429 518 q 429 517 429 517 q 429 516 429 517 l 429 513 q 422 461 429 479 q 407 446 418 446 q 351 507 389 446 q 307 597 324 552 q 294 613 302 609 q 281 616 285 616 q 186 616 267 616 q 172 613 180 616 q 163 602 163 611 l 163 602 q 165 593 163 598 q 221 479 191 533 q 273 394 245 434 q 314 340 290 369 q 345 310 328 325 q 372 290 359 298 q 413 268 392 276 q 489 252 455 252 l 532 252 q 543 255 535 252 q 553 264 551 258 q 556 275 555 267 q 563 319 556 300 q 568 330 566 326 q 585 340 576 340 l 586 340 q 622 313 599 340 q 651 281 639 294 q 669 266 663 269 q 709 250 690 250 l 710 250 q 716 251 713 250 l 804 252 q 813 253 806 252 q 836 273 836 258 l 836 275 q 833 284 836 279 q 823 302 829 292 q 794 338 816 313 q 771 361 786 346 q 745 385 749 380 q 725 416 725 404 l 725 417 q 737 444 725 427 q 779 499 737 445 q 836 600 836 574 l 836 600 q 833 608 836 605 q 809 616 828 616 l 807 616 q 800 616 803 616 l 699 615 q 694 615 696 615 q 689 614 691 615 q 677 604 682 613 q 665 574 670 588 q 642 529 652 546 q 573 447 594 447 l 573 447 q 568 448 570 447 q 555 490 555 456 l 555 490 q 555 529 555 518 q 557 585 557 574 q 553 614 557 606 q 541 627 550 622 q 532 629 534 629 q 477 633 518 633 l 469 633 z "},"*":{"ha":1023,"x_min":34,"x_max":989,"o":"m 510 955 l 513 955 q 788 867 661 955 q 834 829 812 850 q 876 785 867 798 q 928 709 914 739 q 989 479 989 601 l 989 476 q 901 201 989 328 q 863 155 884 177 q 819 113 832 122 q 743 60 772 75 q 513 0 635 0 l 510 0 q 235 88 362 0 q 189 125 211 105 q 146 170 156 157 q 94 245 109 216 q 34 476 34 354 l 34 479 q 122 754 34 627 q 159 800 139 778 q 203 842 191 833 q 279 895 250 880 q 510 955 388 955 m 513 697 q 395 695 462 697 q 296 691 332 694 q 267 688 275 690 q 233 673 248 684 q 217 658 224 666 q 205 634 212 650 q 196 600 201 621 q 190 496 190 542 l 190 444 q 195 353 190 406 q 200 325 196 337 q 210 293 205 304 q 243 260 221 273 q 260 254 250 257 q 286 250 269 252 q 346 245 296 248 q 516 242 463 242 q 641 244 564 242 q 755 250 741 248 q 781 259 770 253 q 795 267 788 262 q 808 281 802 273 q 822 305 817 291 q 830 337 827 318 q 837 444 837 396 l 837 496 q 831 600 837 542 q 823 630 827 621 q 806 663 817 650 q 793 673 796 672 q 777 683 785 679 q 758 688 770 686 q 713 693 745 691 q 513 697 615 697 m 446 568 q 589 493 450 566 q 621 476 621 477 l 592 462 q 446 386 591 460 l 446 386 l 446 568 z "},"+":{"ha":1023,"x_min":34,"x_max":989,"o":"m 510 955 l 513 955 q 788 867 661 955 q 834 829 812 850 q 876 785 867 798 q 928 709 914 739 q 989 479 989 601 l 989 476 q 901 201 989 328 q 863 155 884 177 q 819 113 832 122 q 743 60 772 75 q 513 0 635 0 l 510 0 q 235 88 362 0 q 189 125 211 105 q 146 170 156 157 q 94 245 109 216 q 34 476 34 354 l 34 479 q 122 754 34 627 q 159 800 139 778 q 203 842 191 833 q 279 895 250 880 q 510 955 388 955 m 507 760 q 450 749 479 760 q 370 682 395 728 q 351 604 351 656 l 351 597 q 355 524 351 575 q 338 520 347 520 q 319 523 329 520 q 299 530 304 530 l 296 530 q 275 511 275 524 q 304 485 275 497 q 350 451 350 474 q 336 415 350 439 q 300 369 326 396 q 262 340 279 349 q 225 327 232 327 q 212 319 212 327 l 212 318 q 237 297 212 308 q 289 286 256 291 q 299 264 296 286 q 311 245 301 245 q 357 251 345 251 q 373 250 368 251 q 434 222 397 250 q 511 193 471 193 l 517 193 q 564 204 543 193 q 609 233 581 212 q 669 251 632 251 l 670 251 q 682 250 676 251 l 716 245 q 725 251 722 245 q 736 285 732 285 q 815 319 815 297 q 808 327 815 325 q 744 355 777 331 q 709 389 728 366 q 677 451 677 432 l 677 451 q 703 479 677 469 q 753 511 753 494 q 751 516 753 512 q 727 530 743 530 q 720 529 723 530 q 688 520 700 520 q 673 524 681 520 q 676 600 676 580 q 673 643 676 625 q 652 690 671 661 q 620 726 644 705 q 522 760 574 760 l 507 760 z "},",":{"ha":1023,"x_min":34,"x_max":989,"o":"m 580 746 q 528 736 551 746 q 473 692 491 722 q 455 619 455 660 l 455 546 l 371 546 q 371 545 371 546 l 371 448 q 371 448 371 448 l 455 448 l 455 199 q 456 199 455 199 l 555 199 q 556 199 556 199 l 556 448 l 640 448 q 652 545 640 452 q 652 546 652 546 l 556 546 l 556 600 q 558 628 556 623 q 562 638 558 631 q 581 652 568 648 q 611 655 588 655 l 656 655 q 656 655 656 655 l 656 742 l 656 742 q 583 746 621 746 l 580 746 m 511 955 l 511 955 q 544 933 521 951 q 578 902 556 924 q 603 870 594 883 l 612 854 l 613 854 q 750 891 679 891 q 787 753 787 825 l 790 753 q 923 718 857 753 q 925 715 925 716 q 888 578 925 645 l 888 578 q 989 478 951 542 l 989 477 q 967 445 985 468 q 936 411 958 433 q 904 386 917 395 l 888 376 l 888 376 q 925 239 925 311 q 787 201 859 201 l 787 199 q 751 66 787 132 q 749 64 750 64 q 612 100 679 64 l 612 100 q 512 0 576 38 l 511 0 q 480 21 502 5 q 445 54 469 29 q 427 75 431 70 q 410 100 422 82 l 410 100 q 273 64 345 64 q 235 201 235 130 l 231 201 q 109 233 171 201 l 98 239 q 135 376 98 311 q 92 407 115 388 q 64 435 71 427 q 36 473 45 457 q 34 477 34 477 q 135 578 71 541 q 98 716 98 644 q 235 753 163 753 l 235 756 q 273 891 235 825 q 273 891 273 891 q 410 854 345 891 q 511 955 447 918 z "},"-":{"ha":1023,"x_min":34,"x_max":989,"o":"m 511 955 l 511 955 q 544 933 521 951 q 578 902 556 924 q 603 870 594 883 l 612 854 l 613 854 q 750 891 679 891 q 787 753 787 825 l 790 753 q 923 718 857 753 q 925 715 925 716 q 888 578 925 645 l 888 578 q 989 478 951 542 l 989 477 q 967 445 985 468 q 936 411 958 433 q 904 386 917 395 l 888 376 l 888 376 q 925 239 925 311 q 787 201 859 201 l 787 199 q 751 66 787 132 q 749 64 750 64 q 612 100 679 64 l 612 100 q 512 0 576 38 l 511 0 q 480 21 502 5 q 445 54 469 29 q 427 75 431 70 q 410 100 422 82 l 410 100 q 273 64 345 64 q 235 201 235 130 l 231 201 q 109 233 171 201 l 98 239 q 135 376 98 311 q 92 407 115 388 q 64 435 71 427 q 36 473 45 457 q 34 477 34 477 q 135 578 71 541 q 98 716 98 644 q 235 753 163 753 l 235 756 q 273 891 235 825 q 273 891 273 891 q 410 854 345 891 q 511 955 447 918 m 533 570 l 533 567 q 536 543 533 557 l 536 543 q 486 549 523 543 q 431 566 455 556 q 376 594 406 576 q 326 634 354 608 q 300 662 312 648 q 285 607 285 634 l 285 602 q 312 531 285 565 q 335 511 326 515 q 335 510 335 511 l 335 510 q 284 524 311 510 l 284 521 q 319 440 284 475 q 359 415 340 420 q 374 410 372 410 l 374 410 q 362 408 374 409 q 350 406 354 406 l 347 406 q 346 406 347 406 l 344 406 l 343 406 q 324 408 335 406 q 371 347 338 368 q 430 329 400 329 l 430 329 l 430 329 q 398 307 414 315 q 293 280 345 280 l 285 280 q 262 281 274 280 q 331 248 294 260 q 437 230 383 230 q 598 270 524 230 q 649 307 621 283 q 685 343 675 330 q 723 401 707 372 q 743 447 734 420 q 762 551 762 502 l 762 567 l 762 570 q 794 598 772 576 q 819 629 810 615 l 819 629 l 819 629 q 774 614 797 620 q 754 612 756 612 l 754 612 q 779 631 762 615 q 804 675 798 654 q 757 654 781 661 q 731 647 735 647 q 707 666 715 663 q 648 683 679 683 l 648 683 q 568 650 602 683 q 533 570 533 615 z "},".":{"ha":1023,"x_min":34,"x_max":989,"o":"m 511 955 l 511 955 q 544 933 521 951 q 578 902 556 924 q 603 870 594 883 l 612 854 l 613 854 q 750 891 679 891 q 787 753 787 825 l 790 753 q 923 718 857 753 q 925 715 925 716 q 888 578 925 645 l 888 578 q 989 478 951 542 l 989 477 q 967 445 985 468 q 936 411 958 433 q 904 386 917 395 l 888 376 l 888 376 q 925 239 925 311 q 787 201 859 201 l 787 199 q 751 66 787 132 q 749 64 750 64 q 612 100 679 64 l 612 100 q 512 0 576 38 l 511 0 q 480 21 502 5 q 445 54 469 29 q 427 75 431 70 q 410 100 422 82 l 410 100 q 273 64 345 64 q 235 201 235 130 l 231 201 q 109 233 171 201 l 98 239 q 135 376 98 311 q 92 407 115 388 q 64 435 71 427 q 36 473 45 457 q 34 477 34 477 q 135 578 71 541 q 98 716 98 644 q 235 753 163 753 l 235 756 q 273 891 235 825 q 273 891 273 891 q 410 854 345 891 q 511 955 447 918 m 409 678 q 294 640 347 678 q 218 534 238 598 q 211 507 214 522 q 209 471 209 486 l 209 469 q 221 404 209 437 q 305 300 246 338 q 413 269 355 269 l 416 269 q 503 288 461 269 q 536 308 517 294 q 610 475 610 366 l 610 478 q 609 503 610 488 l 609 503 q 548 503 570 503 l 414 503 q 414 503 414 503 l 414 433 l 414 433 q 530 432 420 433 l 530 432 q 524 412 530 428 q 512 391 521 403 q 493 371 507 384 q 414 345 457 345 q 334 373 368 345 q 318 389 329 377 q 288 473 288 425 q 304 540 288 509 q 323 564 310 550 q 337 576 332 573 q 411 602 369 602 q 498 574 456 602 l 498 574 q 505 580 499 574 q 550 627 538 612 l 550 628 q 422 678 485 678 l 415 678 q 413 678 414 678 q 412 678 412 678 l 409 678 m 736 562 q 736 503 736 523 q 677 503 730 503 l 677 503 l 677 445 l 677 445 q 736 444 684 445 q 736 391 736 402 q 736 386 736 390 l 736 386 l 794 386 l 794 386 q 795 444 795 405 q 853 445 806 444 l 853 445 l 853 503 l 853 503 q 795 503 838 503 l 794 562 l 794 562 l 736 562 l 736 562 z "},"/":{"ha":1023,"x_min":34,"x_max":989,"o":"m 511 955 l 511 955 q 544 933 521 951 q 578 902 556 924 q 603 870 594 883 l 612 854 l 613 854 q 750 891 679 891 q 787 753 787 825 l 790 753 q 923 718 857 753 q 925 715 925 716 q 888 578 925 645 l 888 578 q 989 478 951 542 l 989 477 q 967 445 985 468 q 936 411 958 433 q 904 386 917 395 l 888 376 l 888 376 q 925 239 925 311 q 787 201 859 201 l 787 199 q 751 66 787 132 q 749 64 750 64 q 612 100 679 64 l 612 100 q 512 0 576 38 l 511 0 q 480 21 502 5 q 445 54 469 29 q 427 75 431 70 q 410 100 422 82 l 410 100 q 273 64 345 64 q 235 201 235 130 l 231 201 q 109 233 171 201 l 98 239 q 135 376 98 311 q 92 407 115 388 q 64 435 71 427 q 36 473 45 457 q 34 477 34 477 q 135 578 71 541 q 98 716 98 644 q 235 753 163 753 l 235 756 q 273 891 235 825 q 273 891 273 891 q 410 854 345 891 q 511 955 447 918 m 281 598 l 281 328 q 291 279 281 296 q 308 256 294 271 q 372 231 335 231 l 655 231 q 720 258 693 231 q 746 326 746 283 l 746 602 q 730 659 746 636 q 701 684 715 677 q 656 696 680 696 l 370 696 q 301 663 330 696 q 283 625 288 648 q 281 598 281 617 m 692 643 l 692 642 l 692 564 q 692 564 692 564 l 682 564 q 614 564 661 564 l 614 564 l 614 642 q 614 642 614 642 q 692 643 629 642 m 511 546 l 515 546 q 575 517 549 546 q 595 463 595 494 q 573 408 595 433 q 513 382 548 382 q 451 411 477 382 q 431 464 431 435 q 454 521 431 495 q 511 546 480 546 m 326 511 l 395 511 q 395 511 395 511 q 386 464 386 488 q 429 369 386 410 q 511 336 467 336 l 516 336 q 596 368 559 336 q 616 389 611 381 q 641 462 641 424 l 641 465 q 631 511 641 488 l 631 511 l 701 511 q 701 511 701 511 l 701 319 q 680 283 701 298 q 650 276 670 276 l 377 276 q 346 284 355 276 q 335 294 344 284 q 326 321 326 306 l 326 511 q 326 511 326 511 z "},":":{"ha":1023,"x_min":34,"x_max":989,"o":"m 511 955 q 650 816 604 863 q 849 815 812 815 l 849 814 l 849 668 q 849 618 849 652 q 989 477 983 484 q 850 338 897 385 q 849 140 849 177 l 848 140 l 702 140 q 652 140 686 140 q 511 0 517 5 q 372 139 420 91 q 174 140 211 140 l 174 140 l 174 287 q 174 337 174 303 q 34 477 39 471 q 173 616 125 569 q 174 815 174 778 l 174 815 l 321 815 q 371 815 337 815 q 511 955 505 949 m 286 607 l 286 342 q 296 294 286 311 q 313 271 299 286 q 375 247 339 247 l 654 247 q 718 273 691 247 q 743 340 743 298 l 743 611 q 727 667 743 645 q 699 692 713 685 q 655 704 679 704 l 374 704 q 306 671 334 704 q 288 633 294 656 q 286 607 286 626 m 694 652 l 694 652 l 694 575 q 694 574 694 574 l 684 574 q 616 574 663 574 l 616 574 l 616 652 q 617 652 616 652 q 694 652 631 652 m 513 556 l 517 556 q 575 528 549 556 q 595 474 595 505 q 574 420 595 446 q 515 395 549 395 q 454 423 479 395 q 434 475 434 447 q 457 531 434 506 q 513 556 482 556 m 331 522 l 398 522 q 399 522 399 522 q 389 475 389 499 q 431 382 389 422 q 512 350 469 350 l 517 350 q 596 380 559 350 q 616 402 610 394 q 640 473 640 436 l 640 477 q 631 522 640 498 l 631 522 l 699 522 q 699 522 699 522 l 699 334 q 678 298 699 313 q 650 291 669 291 l 380 291 q 350 299 359 291 q 339 309 349 299 q 330 335 330 320 l 330 522 q 331 522 331 522 z "},";":{"ha":1023,"x_min":34,"x_max":989,"o":"m 511 955 q 650 816 604 863 q 849 815 812 815 l 849 814 l 849 668 q 849 618 849 652 q 989 477 983 484 q 850 338 897 385 q 849 140 849 177 l 848 140 l 702 140 q 652 140 686 140 q 511 0 517 5 q 372 139 420 91 q 174 140 211 140 l 174 140 l 174 287 q 174 337 174 303 q 34 477 39 471 q 173 616 125 569 q 174 815 174 778 l 174 815 l 321 815 q 371 815 337 815 q 511 955 505 949 m 534 727 q 401 688 457 727 q 376 667 392 682 q 355 641 361 650 q 323 543 323 593 q 347 460 323 493 q 366 441 353 451 q 388 430 382 430 l 389 430 q 395 431 392 430 q 399 440 398 434 q 406 468 406 465 q 402 475 406 471 q 380 535 380 499 q 411 624 380 585 q 432 646 419 635 q 524 677 472 677 q 612 649 578 677 q 648 564 648 616 q 629 468 648 511 q 617 446 623 455 q 555 408 591 408 q 524 418 538 408 q 507 452 507 431 l 507 454 q 517 494 507 463 q 534 568 534 549 q 530 593 534 582 q 495 612 518 612 q 457 593 473 612 q 438 537 438 570 q 448 490 438 511 l 412 340 q 405 279 405 311 l 405 273 q 408 220 405 248 q 412 214 408 215 l 412 214 q 414 214 413 214 q 423 227 416 216 q 451 269 441 250 q 467 306 459 286 q 489 393 475 332 q 497 382 492 389 q 511 372 505 375 q 561 356 535 356 q 563 357 562 357 l 564 357 q 614 366 589 357 q 685 426 656 383 q 720 558 720 483 q 710 615 720 587 q 639 699 688 668 q 534 727 592 727 z "},"<":{"ha":1023,"x_min":34,"x_max":989,"o":"m 511 955 q 650 816 604 863 q 849 815 812 815 l 849 814 l 849 668 q 849 618 849 652 q 989 477 983 484 q 850 338 897 385 q 849 140 849 177 l 848 140 l 702 140 q 652 140 686 140 q 511 0 517 5 q 372 139 420 91 q 174 140 211 140 l 174 140 l 174 287 q 174 337 174 303 q 34 477 39 471 q 173 616 125 569 q 174 815 174 778 l 174 815 l 321 815 q 371 815 337 815 q 511 955 505 949 m 250 468 q 279 384 250 422 q 302 361 294 368 q 368 340 334 340 l 368 340 q 449 375 414 340 q 477 416 469 395 q 486 468 486 441 q 452 559 486 519 q 431 577 439 572 q 368 596 401 596 q 288 562 323 596 q 250 468 250 522 m 546 468 q 583 376 546 416 q 612 355 600 361 q 665 342 639 342 l 670 342 q 740 367 706 342 q 764 391 756 380 q 789 465 789 427 l 789 471 q 762 547 789 511 q 701 589 739 577 q 667 594 683 594 q 581 557 618 594 q 546 468 546 518 z "},"=":{"ha":1023,"x_min":34,"x_max":989,"o":"m 511 955 q 650 816 604 863 q 849 815 812 815 l 849 814 l 849 668 q 849 618 849 652 q 989 477 983 484 q 850 338 897 385 q 849 140 849 177 l 848 140 l 702 140 q 652 140 686 140 q 511 0 517 5 q 372 139 420 91 q 174 140 211 140 l 174 140 l 174 287 q 174 337 174 303 q 34 477 39 471 q 173 616 125 569 q 174 815 174 778 l 174 815 l 321 815 q 371 815 337 815 q 511 955 505 949 m 271 658 q 292 613 271 631 q 330 599 309 599 q 376 622 357 599 q 388 659 388 638 q 361 707 388 688 q 330 717 347 717 q 285 696 303 717 q 271 658 271 679 m 542 510 l 541 510 q 541 511 541 510 l 541 555 l 444 555 l 444 229 l 545 229 l 545 380 q 551 438 545 423 q 604 473 564 473 l 604 473 q 606 473 606 473 l 607 473 l 608 473 q 651 446 639 473 q 656 425 656 431 q 659 376 659 417 l 659 229 l 760 229 l 760 410 q 730 528 760 494 q 637 563 703 563 q 564 538 597 563 q 549 521 553 526 q 542 510 545 515 m 279 555 l 279 229 l 380 229 l 380 555 l 279 555 z "},">":{"ha":1023,"x_min":34,"x_max":989,"o":"m 511 955 q 650 816 604 863 q 849 815 812 815 l 849 814 l 849 668 q 849 618 849 652 q 989 477 983 484 q 850 338 897 385 q 849 140 849 177 l 848 140 l 702 140 q 652 140 686 140 q 511 0 517 5 q 372 139 420 91 q 174 140 211 140 l 174 140 l 174 287 q 174 337 174 303 q 34 477 39 471 q 173 616 125 569 q 174 815 174 778 l 174 815 l 321 815 q 371 815 337 815 q 511 955 505 949 m 466 734 q 463 731 465 734 q 458 706 461 716 q 452 680 456 693 q 435 648 445 663 q 424 633 431 641 q 412 620 422 630 q 393 605 401 610 q 365 591 378 596 q 359 589 359 589 l 359 521 q 360 520 359 520 l 412 520 l 412 350 q 421 301 412 326 q 478 232 439 256 q 565 210 515 210 l 567 210 q 637 224 601 210 q 654 233 646 228 q 661 240 656 235 q 635 315 658 248 l 629 313 q 593 306 608 306 l 590 306 q 555 319 568 306 q 543 358 543 333 l 543 520 l 648 520 q 648 521 648 520 l 648 600 q 648 600 648 600 l 543 600 l 543 733 q 543 734 543 734 l 466 734 z "},"?":{"ha":1023,"x_min":34,"x_max":989,"o":"m 511 955 q 650 816 604 863 q 849 815 812 815 l 849 814 l 849 668 q 849 618 849 652 q 989 477 983 484 q 850 338 897 385 q 849 140 849 177 l 848 140 l 702 140 q 652 140 686 140 q 511 0 517 5 q 372 139 420 91 q 174 140 211 140 l 174 140 l 174 287 q 174 337 174 303 q 34 477 39 471 q 173 616 125 569 q 174 815 174 778 l 174 815 l 321 815 q 371 815 337 815 q 511 955 505 949 m 484 617 q 435 611 448 617 q 427 606 431 611 q 420 598 420 600 l 420 597 q 420 596 420 597 q 429 594 427 595 q 446 583 441 589 q 449 573 448 578 q 451 559 450 568 q 452 530 452 540 l 452 528 q 452 527 452 528 q 452 526 452 526 l 452 524 q 448 484 452 498 q 436 471 444 471 q 393 519 422 471 q 357 589 372 554 q 348 601 353 598 q 338 604 340 604 q 264 604 328 604 q 254 602 260 604 q 247 593 247 599 l 247 592 q 248 586 247 589 q 291 498 269 539 q 332 431 311 463 q 363 390 345 412 q 387 366 374 378 q 408 351 399 357 q 440 334 425 340 q 500 321 473 321 l 532 321 q 541 323 535 321 q 549 330 547 326 q 551 339 551 333 q 557 374 551 359 q 562 382 559 378 q 574 389 567 389 l 574 389 q 602 370 585 389 q 625 344 615 353 q 639 332 635 334 q 670 320 655 320 l 671 320 q 675 321 673 320 l 743 321 q 750 322 745 321 q 768 338 768 326 l 768 338 q 766 346 768 342 q 758 361 763 353 q 736 388 753 369 q 718 406 730 395 q 699 425 701 422 q 682 449 682 439 l 682 450 q 692 471 682 457 q 724 513 692 471 q 768 591 768 571 l 768 591 q 766 597 768 595 q 748 604 762 604 l 746 604 q 740 604 743 604 l 662 603 q 658 603 660 603 q 654 602 656 603 q 645 594 649 601 q 635 572 640 582 q 618 536 625 549 q 564 472 581 472 l 564 472 q 561 474 562 472 q 551 505 551 480 l 551 506 q 551 536 551 528 q 552 580 552 572 q 549 602 552 596 q 539 611 547 608 q 532 614 534 614 q 490 617 522 617 l 484 617 z "},"@":{"ha":1023,"x_min":34,"x_max":989,"o":"m 511 955 q 650 816 604 863 q 849 815 812 815 l 849 814 l 849 668 q 849 618 849 652 q 989 477 983 484 q 850 338 897 385 q 849 140 849 177 l 848 140 l 702 140 q 652 140 686 140 q 511 0 517 5 q 372 139 420 91 q 174 140 211 140 l 174 140 l 174 287 q 174 337 174 303 q 34 477 39 471 q 173 616 125 569 q 174 815 174 778 l 174 815 l 321 815 q 371 815 337 815 q 511 955 505 949 m 513 634 q 422 632 473 634 q 347 629 374 632 q 324 627 331 629 q 298 616 310 625 q 287 604 292 610 q 278 586 283 598 q 271 560 274 576 q 266 481 266 515 l 266 441 q 270 372 266 412 q 273 350 271 359 q 281 326 277 334 q 306 301 290 310 q 320 296 312 298 q 339 292 327 294 q 385 289 347 291 q 515 287 474 287 q 610 288 551 287 q 697 293 686 291 q 717 300 709 296 q 728 307 722 302 q 738 316 733 311 q 747 335 743 324 q 755 359 751 345 q 760 441 760 404 l 760 481 q 755 560 760 515 q 749 583 751 576 q 736 608 744 598 q 726 616 728 614 q 713 623 720 621 q 700 627 708 625 q 665 631 690 629 q 513 634 590 634 m 462 535 q 570 478 464 534 q 595 466 595 466 l 573 454 q 462 397 572 454 l 462 397 l 462 535 z "},"A":{"ha":1023,"x_min":34,"x_max":989,"o":"m 511 955 q 650 816 604 863 q 849 815 812 815 l 849 814 l 849 668 q 849 618 849 652 q 989 477 983 484 q 850 338 897 385 q 849 140 849 177 l 848 140 l 702 140 q 652 140 686 140 q 511 0 517 5 q 372 139 420 91 q 174 140 211 140 l 174 140 l 174 287 q 174 337 174 303 q 34 477 39 471 q 173 616 125 569 q 174 815 174 778 l 174 815 l 321 815 q 371 815 337 815 q 511 955 505 949 m 506 732 q 454 723 480 732 q 381 662 404 704 q 363 589 363 637 l 363 583 q 366 517 363 564 q 351 513 360 513 q 334 515 343 513 q 315 522 319 522 l 313 522 q 293 505 293 517 q 320 481 293 492 q 362 450 362 471 q 349 416 362 439 q 317 375 340 399 q 281 349 298 357 q 248 336 254 336 q 236 329 236 336 l 236 328 q 258 309 236 319 q 307 298 275 303 q 315 279 312 298 q 327 261 317 261 q 369 267 357 267 q 383 265 378 267 q 439 240 406 265 q 509 214 473 214 l 515 214 q 559 224 538 214 q 600 250 573 231 q 654 267 621 267 l 655 267 q 666 266 661 267 l 698 261 q 706 267 703 261 q 716 297 713 297 q 789 329 789 309 q 781 336 789 334 q 724 361 753 340 q 691 393 708 372 q 663 450 663 432 l 663 450 q 686 475 663 466 q 732 505 732 489 q 730 510 732 506 q 708 522 722 522 q 701 522 704 522 q 672 513 683 513 q 659 517 665 513 q 661 586 661 568 q 659 626 661 610 q 640 669 656 642 q 610 702 631 683 q 520 732 568 732 l 506 732 z "},"B":{"ha":896,"x_min":34,"x_max":862,"o":"m 525 745 q 471 735 496 745 q 416 689 434 720 q 397 615 397 657 l 397 540 l 311 540 q 311 540 311 540 l 311 441 q 311 441 311 441 l 397 441 l 397 186 q 397 186 397 186 l 500 186 q 500 186 500 186 l 500 441 l 586 441 q 599 540 587 445 q 598 540 599 540 l 500 540 l 500 596 q 503 625 500 618 q 507 634 503 627 q 525 648 512 644 q 557 652 533 652 l 602 652 q 602 652 602 652 l 602 741 l 602 741 q 528 745 567 745 l 525 745 m 448 955 l 710 804 l 862 716 l 862 716 q 862 239 862 498 q 532 48 701 146 q 448 0 450 1 l 448 0 l 186 151 l 34 239 l 34 239 q 34 716 34 456 q 364 907 195 809 q 448 955 446 954 l 448 955 z "},"C":{"ha":896,"x_min":34,"x_max":862,"o":"m 448 955 l 710 804 l 862 716 l 862 716 q 862 239 862 498 q 532 48 701 146 q 448 0 450 1 l 448 0 l 186 151 l 34 239 l 34 239 q 34 716 34 456 q 364 907 195 809 q 448 955 446 954 l 448 955 m 445 569 l 445 567 q 448 544 445 557 l 447 544 q 401 550 435 544 q 349 566 372 556 q 297 592 326 575 q 250 630 276 606 q 226 656 237 644 q 212 604 212 630 l 212 600 q 237 532 212 565 q 258 514 250 518 q 258 513 258 514 l 258 513 q 211 526 237 513 l 211 523 q 243 448 211 481 q 281 425 263 429 q 296 420 293 420 l 296 420 q 284 416 296 418 q 273 416 276 416 l 271 416 q 269 416 269 416 l 267 416 l 267 416 q 248 417 258 416 q 292 360 261 380 q 349 343 320 343 l 349 343 l 349 343 q 317 323 332 330 q 220 298 269 298 l 212 298 q 190 298 201 298 q 256 267 220 279 q 355 250 304 250 q 506 288 436 250 q 553 322 528 300 q 587 357 578 345 q 623 411 609 382 q 643 454 633 429 q 660 551 660 506 l 660 567 l 660 570 q 690 596 669 576 q 713 625 705 612 l 713 625 l 713 625 q 671 612 692 617 q 653 609 654 609 l 653 610 q 675 627 659 612 q 699 668 693 648 q 655 648 678 656 q 631 642 635 642 q 608 660 616 656 q 553 676 582 676 l 552 676 q 477 645 509 676 q 445 569 445 612 z "},"D":{"ha":896,"x_min":34,"x_max":862,"o":"m 448 955 l 710 804 l 862 716 l 862 716 q 862 239 862 498 q 532 48 701 146 q 448 0 450 1 l 448 0 l 186 151 l 34 239 l 34 239 q 34 716 34 456 q 364 907 195 809 q 448 955 446 954 l 448 955 m 331 680 q 216 642 269 680 q 140 536 160 600 q 133 509 136 524 q 131 473 131 488 l 131 471 q 143 406 131 439 q 227 302 168 340 q 335 271 277 271 l 338 271 q 425 290 383 271 q 458 310 439 296 q 532 477 532 368 l 532 480 q 531 505 532 490 l 531 505 q 470 505 492 505 l 336 505 q 336 505 336 505 l 336 435 l 336 435 q 452 434 342 435 l 452 434 q 446 414 452 430 q 434 393 443 405 q 415 373 429 386 q 336 347 379 347 q 256 375 290 347 q 240 391 251 379 q 210 475 210 427 q 227 542 210 511 q 245 566 232 552 q 259 578 254 575 q 333 604 291 604 q 420 576 378 604 l 420 576 q 427 582 421 576 q 472 629 460 614 l 472 630 q 344 680 407 680 l 337 680 q 335 680 336 680 q 334 680 334 680 l 331 680 m 658 564 q 658 505 658 525 q 600 505 652 505 l 600 505 l 600 447 l 600 447 q 658 446 606 447 q 658 393 658 404 q 658 388 658 392 l 659 388 l 716 388 l 716 388 q 717 446 717 407 q 775 447 728 446 l 775 447 l 775 505 l 775 505 q 717 505 760 505 l 716 564 l 716 564 l 659 564 l 658 564 z "},"E":{"ha":896,"x_min":34,"x_max":862,"o":"m 448 955 l 710 804 l 862 716 l 862 716 q 862 239 862 498 q 532 48 701 146 q 448 0 450 1 l 448 0 l 186 151 l 34 239 l 34 239 q 34 716 34 456 q 364 907 195 809 q 448 955 446 954 l 448 955 m 208 616 l 208 338 q 219 288 208 305 q 237 264 222 279 q 302 238 264 238 l 594 238 q 661 266 633 238 q 688 335 688 292 l 688 620 q 671 679 688 656 q 641 705 656 697 q 595 718 620 718 l 300 718 q 229 683 258 718 q 210 644 216 668 q 208 616 208 635 m 632 663 l 633 662 l 633 581 q 632 581 633 581 l 622 581 q 551 581 600 581 l 551 581 l 551 662 q 551 662 551 662 q 632 663 567 662 m 446 562 l 450 562 q 511 533 484 562 q 532 476 532 509 q 510 420 532 446 q 448 393 484 393 q 384 423 411 393 q 363 477 363 448 q 387 536 363 510 q 446 562 414 562 m 255 527 l 326 527 q 326 526 326 527 q 317 477 317 503 q 361 380 317 422 q 445 347 401 347 l 451 347 q 534 378 494 347 q 554 401 549 392 q 579 475 579 437 l 579 479 q 570 527 579 502 l 570 527 l 641 527 q 642 526 642 527 l 642 329 q 619 292 642 307 q 589 284 609 284 l 307 284 q 275 292 286 284 q 264 302 273 292 q 254 330 254 315 l 254 526 q 255 527 255 527 z "},"F":{"ha":896,"x_min":34,"x_max":862,"o":"m 448 955 l 710 804 l 862 716 l 862 716 q 862 239 862 498 q 532 48 701 146 q 448 0 450 1 l 448 0 l 186 151 l 34 239 l 34 239 q 34 716 34 456 q 364 907 195 809 q 448 955 446 954 l 448 955 m 465 739 q 328 699 385 739 q 301 676 317 692 q 279 650 286 660 q 247 549 247 601 q 271 463 247 496 q 290 443 277 453 q 313 431 308 431 l 315 431 q 320 433 317 431 q 325 442 324 435 q 332 471 332 467 q 328 478 332 474 q 306 540 306 503 q 337 632 306 592 q 359 655 346 644 q 455 687 401 687 q 545 659 511 687 q 583 570 583 625 q 564 471 583 516 q 551 448 557 458 q 487 408 524 408 q 455 419 469 408 q 437 454 437 433 l 437 456 q 447 498 437 466 q 465 574 465 554 q 460 600 465 589 q 425 621 449 621 q 385 601 401 621 q 366 543 366 576 q 375 494 366 516 l 339 339 q 331 275 331 308 l 331 269 q 334 214 331 243 q 338 208 334 209 l 339 208 q 340 208 340 208 q 351 220 342 210 q 378 265 368 245 q 395 303 387 281 q 418 393 404 330 q 427 382 421 389 q 441 371 435 374 q 493 355 467 355 q 494 356 494 356 l 496 356 q 548 366 522 356 q 621 428 592 383 q 658 564 658 486 q 647 623 658 594 q 574 710 625 678 q 465 739 525 739 z "},"G":{"ha":896,"x_min":34,"x_max":862,"o":"m 448 955 l 710 804 l 862 716 l 862 716 q 862 239 862 498 q 532 48 701 146 q 448 0 450 1 l 448 0 l 186 151 l 34 239 l 34 239 q 34 716 34 456 q 364 907 195 809 q 448 955 446 954 l 448 955 m 159 469 q 191 379 159 419 q 215 355 205 361 q 285 332 248 332 l 286 332 q 371 370 334 332 q 400 414 392 391 q 410 469 410 440 q 374 565 410 523 q 351 585 359 580 q 285 605 319 605 q 199 568 237 605 q 159 469 159 526 m 474 471 q 513 373 474 415 q 544 351 531 357 q 600 336 572 336 l 606 336 q 680 363 644 336 q 706 389 697 377 q 732 467 732 427 l 732 473 q 703 555 732 515 q 638 600 680 587 q 603 605 619 605 q 511 565 551 605 q 474 471 474 524 z "},"H":{"ha":896,"x_min":34,"x_max":862,"o":"m 448 955 l 710 804 l 862 716 l 862 716 q 862 239 862 498 q 532 48 701 146 q 448 0 450 1 l 448 0 l 186 151 l 34 239 l 34 239 q 34 716 34 456 q 364 907 195 809 q 448 955 446 954 l 448 955 m 227 670 q 248 626 227 644 q 284 612 264 612 q 330 635 311 612 q 342 671 342 650 q 316 718 342 699 q 284 728 300 728 q 240 707 258 728 q 227 670 227 690 m 493 524 l 492 524 q 492 525 492 524 l 492 568 l 397 568 l 397 248 l 496 248 l 496 397 q 502 454 496 439 q 554 489 515 489 l 554 489 q 555 489 555 489 l 557 489 l 559 489 q 600 461 588 489 q 605 441 605 446 q 608 393 608 433 l 608 248 l 707 248 l 707 427 q 678 541 707 509 q 586 576 651 576 q 515 552 547 576 q 500 535 503 541 q 493 524 496 530 m 234 568 l 234 248 l 334 248 l 334 568 l 234 568 z "},"I":{"ha":896,"x_min":34,"x_max":862,"o":"m 448 955 l 710 804 l 862 716 l 862 716 q 862 239 862 498 q 532 48 701 146 q 448 0 450 1 l 448 0 l 186 151 l 34 239 l 34 239 q 34 716 34 456 q 364 907 195 809 q 448 955 446 954 l 448 955 m 399 774 q 395 771 397 774 q 391 744 394 755 q 383 715 388 729 q 365 680 376 696 q 353 663 361 671 q 340 648 351 660 q 318 632 328 638 q 288 616 302 622 q 281 614 281 614 l 281 539 q 282 538 281 538 l 340 538 l 340 350 q 350 296 340 323 q 412 220 369 246 q 509 195 454 195 l 511 195 q 588 211 549 195 q 607 221 599 215 q 614 229 610 223 q 587 311 612 237 l 580 309 q 540 301 556 301 l 536 301 q 498 315 513 301 q 484 359 484 331 l 484 538 l 600 538 q 600 539 600 538 l 600 627 q 600 627 600 627 l 484 627 l 484 774 q 484 774 484 774 l 399 774 z "},"J":{"ha":896,"x_min":34,"x_max":862,"o":"m 448 955 l 710 804 l 862 716 l 862 716 q 862 239 862 498 q 532 48 701 146 q 448 0 450 1 l 448 0 l 186 151 l 34 239 l 34 239 q 34 716 34 456 q 364 907 195 809 q 448 955 446 954 l 448 955 m 417 636 q 364 630 378 636 q 354 625 360 629 q 347 615 347 618 l 347 614 q 347 613 347 614 q 357 611 355 612 q 375 598 370 606 q 379 587 378 593 q 382 573 380 582 q 383 540 383 551 l 383 538 q 383 537 383 538 q 383 536 383 536 l 383 534 q 378 489 383 505 q 365 476 374 476 q 317 529 349 476 q 279 605 294 567 q 268 618 275 615 q 258 622 260 622 q 176 621 245 622 q 164 619 171 621 q 157 610 157 617 l 157 609 q 158 602 157 606 q 205 505 180 551 q 250 432 227 466 q 285 387 264 411 q 311 360 296 373 q 334 342 324 349 q 370 324 352 331 q 435 311 406 311 l 471 311 q 480 313 474 311 q 490 321 487 316 q 492 330 491 323 q 498 368 492 353 q 503 378 500 374 q 516 386 509 386 l 517 386 q 548 363 528 386 q 573 335 563 347 q 588 322 583 325 q 623 309 606 309 l 623 309 q 628 310 626 309 l 703 311 q 711 312 705 311 q 730 329 730 317 l 730 330 q 729 338 730 333 q 720 353 726 345 q 695 384 714 363 q 675 404 688 391 q 654 425 657 421 q 636 450 636 440 l 636 452 q 646 475 636 460 q 682 522 646 475 q 730 608 730 585 l 730 608 q 729 614 730 612 q 708 622 724 622 l 706 622 q 699 621 703 622 l 614 621 q 610 621 612 621 q 605 620 608 621 q 595 611 600 618 q 585 586 589 597 q 565 547 574 562 q 507 477 524 477 l 507 477 q 502 478 504 477 q 491 513 491 486 l 491 514 q 492 547 492 538 q 493 595 493 586 q 490 620 493 613 q 479 630 486 627 q 471 633 473 633 q 424 636 460 636 l 417 636 z "},"K":{"ha":896,"x_min":34,"x_max":862,"o":"m 448 955 l 710 804 l 862 716 l 862 716 q 862 239 862 498 q 532 48 701 146 q 448 0 450 1 l 448 0 l 186 151 l 34 239 l 34 239 q 34 716 34 456 q 364 907 195 809 q 448 955 446 954 l 448 955 m 447 653 q 351 651 405 653 q 270 648 300 650 q 247 646 253 647 q 218 633 231 642 q 206 621 212 627 q 197 602 201 614 q 189 574 193 591 q 184 489 184 526 l 184 447 q 188 373 184 416 q 192 350 189 360 q 201 324 196 333 q 227 298 209 307 q 241 292 233 295 q 262 289 248 291 q 311 286 271 288 q 449 283 406 283 q 551 284 488 283 q 643 290 631 288 q 665 296 656 292 q 676 303 670 299 q 687 314 682 308 q 697 334 693 323 q 705 360 701 345 q 710 447 710 408 l 710 489 q 705 574 710 527 q 699 599 701 591 q 684 625 694 614 q 675 633 677 632 q 661 641 668 638 q 646 646 655 644 q 610 649 635 648 q 447 653 530 653 m 393 547 q 508 487 395 547 q 534 473 534 474 l 511 461 q 393 399 510 460 l 393 399 l 393 547 z "},"L":{"ha":896,"x_min":34,"x_max":862,"o":"m 448 955 l 710 804 l 862 716 l 862 716 q 862 239 862 498 q 532 48 701 146 q 448 0 450 1 l 448 0 l 186 151 l 34 239 l 34 239 q 34 716 34 456 q 364 907 195 809 q 448 955 446 954 l 448 955 m 444 747 q 390 738 418 747 q 313 673 338 718 q 295 597 295 648 l 295 591 q 298 522 295 570 q 282 517 292 517 q 264 520 273 517 q 245 527 249 527 l 242 527 q 221 509 221 521 q 250 484 221 496 q 294 451 294 473 q 280 416 294 439 q 246 372 271 398 q 209 345 226 353 q 174 332 180 332 q 161 324 161 332 l 161 323 q 185 303 161 314 q 235 292 203 297 q 245 272 241 292 q 256 254 247 254 q 301 259 288 259 q 315 258 311 259 q 374 231 339 258 q 448 203 410 203 l 454 203 q 500 214 479 203 q 543 241 515 221 q 600 259 564 259 l 601 259 q 612 258 607 259 l 646 254 q 654 259 651 254 q 665 291 661 291 q 741 324 741 303 q 733 332 741 330 q 672 358 703 336 q 638 392 656 370 q 608 451 608 433 l 608 451 q 633 478 608 468 q 681 509 681 492 q 680 514 681 509 q 656 527 671 527 q 649 526 652 527 q 618 517 630 517 q 604 522 612 517 q 607 593 607 575 q 604 635 607 618 q 585 681 602 653 q 553 715 576 696 q 459 747 509 747 l 444 747 z "},"M":{"ha":1023,"x_min":34,"x_max":989,"o":"m 589 802 q 526 791 555 802 q 461 736 483 773 q 439 650 439 699 l 439 561 l 338 561 q 338 561 338 561 l 338 444 q 338 444 338 444 l 439 444 l 439 144 q 439 144 439 144 l 560 144 q 560 144 560 144 l 560 444 l 661 444 q 676 561 662 449 q 675 561 676 561 l 560 561 l 560 627 q 563 661 560 654 q 568 672 563 663 q 589 688 574 684 q 627 692 600 692 l 680 692 q 680 693 680 692 l 680 797 l 680 797 q 593 802 638 802 l 589 802 m 142 955 l 880 955 q 972 904 938 955 q 989 840 989 876 l 989 115 q 941 19 989 54 q 880 0 915 0 l 142 0 q 51 51 85 0 q 34 115 34 79 l 34 840 q 81 936 34 901 q 142 955 108 955 z "},"N":{"ha":1023,"x_min":34,"x_max":989,"o":"m 142 955 l 880 955 q 972 904 938 955 q 989 840 989 876 l 989 115 q 941 19 989 54 q 880 0 915 0 l 142 0 q 51 51 85 0 q 34 115 34 79 l 34 840 q 81 936 34 901 q 142 955 108 955 m 515 581 l 515 578 q 518 550 515 566 l 517 550 q 462 557 503 550 q 399 576 427 565 q 337 608 370 587 q 281 653 312 624 q 251 685 264 669 q 234 623 234 653 l 234 617 q 264 536 234 575 q 290 513 280 519 q 290 513 290 513 l 290 513 q 233 528 264 513 l 233 525 q 272 434 233 474 q 317 406 296 412 q 335 400 332 400 l 335 400 q 321 397 335 399 q 307 395 312 395 l 304 395 q 302 395 303 395 l 300 395 l 300 395 q 278 397 290 395 q 331 329 294 353 q 398 308 364 308 l 398 308 l 398 308 q 361 283 379 292 q 243 253 302 253 l 234 253 q 208 254 221 253 q 286 216 243 231 q 406 196 345 196 q 588 241 505 196 q 646 283 614 256 q 686 324 675 310 q 730 389 712 356 q 753 441 742 412 q 774 559 774 504 l 774 578 l 774 581 q 810 612 785 588 q 838 648 828 632 l 838 648 l 838 648 q 787 631 813 637 q 765 628 767 628 l 765 629 q 792 650 773 632 q 821 699 814 675 q 768 675 795 684 q 739 668 743 668 q 711 690 720 686 q 645 709 680 709 l 644 709 q 553 671 593 709 q 515 581 515 632 z "},"O":{"ha":1023,"x_min":34,"x_max":989,"o":"m 142 955 l 880 955 q 972 904 938 955 q 989 840 989 876 l 989 115 q 941 19 989 54 q 880 0 915 0 l 142 0 q 51 51 85 0 q 34 115 34 79 l 34 840 q 81 936 34 901 q 142 955 108 955 m 376 697 q 248 654 307 697 q 163 537 186 608 q 155 507 159 524 q 153 467 153 484 l 153 464 q 167 393 153 429 q 260 277 195 319 q 380 243 316 243 l 384 243 q 480 264 433 243 q 517 286 495 271 q 599 471 599 350 l 599 475 q 597 502 599 486 l 597 503 q 530 503 554 503 l 380 503 q 380 502 380 503 l 380 425 l 380 425 q 510 424 388 425 l 510 424 q 503 401 510 419 q 490 378 500 391 q 469 356 485 370 q 380 326 429 326 q 292 358 330 326 q 275 375 287 363 q 241 469 241 415 q 260 543 241 509 q 280 570 265 555 q 296 584 290 581 q 378 612 331 612 q 474 581 427 612 l 475 581 q 482 588 475 582 q 532 640 519 624 l 532 641 q 390 697 460 697 l 382 697 q 380 697 381 697 q 378 697 379 697 l 376 697 m 739 568 q 739 503 739 524 q 673 503 732 503 l 673 502 l 673 438 l 673 438 q 739 437 681 438 q 739 378 739 391 q 739 372 739 377 l 739 372 l 803 372 l 803 372 q 804 437 804 393 q 869 438 817 437 l 869 438 l 869 502 l 869 503 q 804 503 852 503 l 803 568 l 803 568 l 739 568 l 739 568 z "},"P":{"ha":1023,"x_min":34,"x_max":989,"o":"m 142 955 l 880 955 q 972 904 938 955 q 989 840 989 876 l 989 115 q 941 19 989 54 q 880 0 915 0 l 142 0 q 51 51 85 0 q 34 115 34 79 l 34 840 q 81 936 34 901 q 142 955 108 955 m 252 616 l 252 315 q 264 260 252 279 q 283 235 267 251 q 353 207 313 207 l 670 207 q 743 237 712 207 q 771 312 771 265 l 771 620 q 753 684 771 659 q 720 712 737 704 q 671 726 698 726 l 352 726 q 275 688 307 726 q 254 646 260 672 q 252 616 252 637 m 711 666 l 711 665 l 711 578 q 711 578 711 578 l 700 578 q 623 577 675 578 l 623 578 l 623 665 q 624 665 623 665 q 711 666 640 665 m 509 557 l 514 557 q 581 526 551 557 q 603 465 603 500 q 578 404 603 432 q 511 375 550 375 q 442 407 471 375 q 420 466 420 434 q 446 530 420 501 q 509 557 475 557 m 303 519 l 379 519 q 380 519 380 519 q 370 466 370 493 q 417 360 370 406 q 509 324 460 324 l 515 324 q 604 359 562 324 q 627 383 621 374 q 654 464 654 422 l 654 468 q 644 519 654 492 l 644 519 l 720 519 q 721 519 721 519 l 721 305 q 697 264 721 281 q 665 257 686 257 l 359 257 q 325 266 336 257 q 313 277 323 266 q 302 307 302 290 l 302 519 q 303 519 303 519 z "},"Q":{"ha":1023,"x_min":34,"x_max":989,"o":"m 142 955 l 880 955 q 972 904 938 955 q 989 840 989 876 l 989 115 q 941 19 989 54 q 880 0 915 0 l 142 0 q 51 51 85 0 q 34 115 34 79 l 34 840 q 81 936 34 901 q 142 955 108 955 m 527 772 q 373 726 437 772 q 343 701 361 719 q 319 671 326 682 q 282 557 282 616 q 309 461 282 499 q 331 438 316 450 q 357 425 351 425 l 359 425 q 365 427 361 425 q 370 437 369 430 q 378 470 378 466 q 374 478 378 473 q 349 548 349 506 q 384 651 349 606 q 408 677 393 664 q 516 713 455 713 q 618 681 579 713 q 661 582 661 644 q 639 470 661 521 q 625 444 631 455 q 552 399 594 399 q 516 411 532 399 q 496 451 496 427 l 496 453 q 507 500 496 464 q 528 587 528 564 q 522 615 528 602 q 482 638 509 638 q 437 616 456 638 q 416 551 416 589 q 427 496 416 521 l 386 321 q 376 249 376 287 l 376 243 q 380 180 376 214 q 385 174 380 175 l 386 174 q 388 174 387 174 q 399 189 390 176 q 431 238 418 216 q 450 281 440 257 q 475 382 458 312 q 484 370 478 378 q 500 357 494 361 q 559 340 529 340 q 561 340 560 340 l 562 340 q 621 351 591 340 q 703 421 671 372 q 744 574 744 487 q 732 642 744 608 q 650 739 707 703 q 527 772 595 772 z "},"R":{"ha":1023,"x_min":34,"x_max":989,"o":"m 142 955 l 880 955 q 972 904 938 955 q 989 840 989 876 l 989 115 q 941 19 989 54 q 880 0 915 0 l 142 0 q 51 51 85 0 q 34 115 34 79 l 34 840 q 81 936 34 901 q 142 955 108 955 m 174 471 q 212 363 174 412 q 241 334 229 342 q 325 307 281 307 l 326 307 q 429 352 384 307 q 463 405 454 378 q 476 471 476 437 q 432 587 476 536 q 404 611 415 604 q 325 635 367 635 q 222 591 268 635 q 174 471 174 540 m 552 473 q 600 356 552 407 q 636 329 621 336 q 704 312 671 312 l 710 312 q 800 344 757 312 q 831 375 821 361 q 862 469 862 421 l 862 477 q 828 574 862 528 q 749 629 799 613 q 707 635 727 635 q 597 587 645 635 q 552 473 552 537 z "},"S":{"ha":1023,"x_min":34,"x_max":989,"o":"m 142 955 l 880 955 q 972 904 938 955 q 989 840 989 876 l 989 115 q 941 19 989 54 q 880 0 915 0 l 142 0 q 51 51 85 0 q 34 115 34 79 l 34 840 q 81 936 34 901 q 142 955 108 955 m 237 698 q 262 646 237 667 q 307 629 281 629 q 360 656 338 629 q 374 699 374 675 q 344 755 374 733 q 306 766 326 766 q 254 742 275 766 q 237 698 237 722 m 554 525 l 553 525 q 553 526 553 525 l 553 577 l 439 577 l 439 197 l 557 197 l 557 374 q 565 441 557 424 q 627 483 580 483 l 627 483 q 628 483 628 483 l 630 483 l 631 483 q 682 450 667 483 q 688 425 688 433 q 690 369 690 416 l 690 197 l 808 197 l 808 409 q 774 546 808 506 q 665 587 741 587 q 581 557 618 587 q 562 538 566 545 q 554 525 557 531 m 247 577 l 247 197 l 366 197 l 366 577 l 247 577 z "},"T":{"ha":1023,"x_min":34,"x_max":989,"o":"m 142 955 l 880 955 q 972 904 938 955 q 989 840 989 876 l 989 115 q 941 19 989 54 q 880 0 915 0 l 142 0 q 51 51 85 0 q 34 115 34 79 l 34 840 q 81 936 34 901 q 142 955 108 955 m 452 772 q 448 768 450 772 q 444 741 446 751 q 435 711 440 725 q 416 675 427 691 q 404 657 412 666 q 391 642 402 654 q 368 626 378 632 q 337 609 353 615 q 331 607 331 607 l 331 530 q 332 530 331 530 l 391 530 l 391 337 q 401 281 391 309 q 465 203 420 231 q 564 178 507 178 l 566 178 q 645 195 605 178 q 665 205 656 199 q 672 212 667 207 q 644 297 669 222 l 637 294 q 595 287 612 287 l 592 287 q 553 301 568 287 q 538 346 538 317 l 538 530 l 658 530 q 658 530 658 530 l 658 621 q 658 621 658 621 l 538 621 l 538 771 q 538 772 538 772 l 452 772 z "},"U":{"ha":1023,"x_min":34,"x_max":989,"o":"m 142 955 l 880 955 q 972 904 938 955 q 989 840 989 876 l 989 115 q 941 19 989 54 q 880 0 915 0 l 142 0 q 51 51 85 0 q 34 115 34 79 l 34 840 q 81 936 34 901 q 142 955 108 955 m 477 652 q 412 645 429 652 q 399 638 407 644 q 391 626 391 629 l 391 625 q 391 624 391 625 q 404 621 399 623 q 425 606 419 615 q 430 592 428 600 q 433 574 432 585 q 435 534 435 548 l 435 532 q 435 530 435 531 q 435 529 435 530 l 435 526 q 428 471 435 490 q 412 455 424 455 q 354 520 393 455 q 307 614 326 567 q 293 631 302 627 q 281 635 284 634 q 180 634 265 634 q 166 631 174 634 q 157 619 157 629 l 157 619 q 158 610 157 615 q 217 490 186 547 q 272 401 243 443 q 315 345 289 375 q 347 313 329 328 q 375 292 362 300 q 418 269 397 277 q 498 252 463 252 l 543 252 q 555 255 547 252 q 566 264 563 258 q 569 276 568 267 q 576 322 569 303 q 582 334 578 330 q 599 345 590 345 l 600 345 q 637 317 614 345 q 669 282 656 296 q 687 267 681 270 q 730 250 710 250 l 730 250 q 736 251 734 250 l 829 252 q 838 253 831 252 q 862 275 862 259 l 862 276 q 860 286 862 280 q 849 304 856 294 q 819 342 842 316 q 794 367 810 351 q 767 392 772 387 q 746 424 746 412 l 746 425 q 759 454 746 436 q 803 511 759 454 q 862 617 862 590 l 862 617 q 860 625 862 623 q 834 634 854 634 l 832 634 q 824 634 828 634 l 719 633 q 713 633 715 633 q 708 632 711 633 q 696 621 701 631 q 683 590 688 605 q 659 543 669 561 q 587 456 608 456 l 587 456 q 581 458 583 456 q 568 501 568 467 l 568 502 q 568 543 568 532 q 570 602 570 591 q 566 632 570 624 q 553 645 562 640 q 543 648 545 648 q 486 652 529 652 l 477 652 z "},"V":{"ha":1023,"x_min":34,"x_max":989,"o":"m 142 955 l 880 955 q 972 904 938 955 q 989 840 989 876 l 989 115 q 941 19 989 54 q 880 0 915 0 l 142 0 q 51 51 85 0 q 34 115 34 79 l 34 840 q 81 936 34 901 q 142 955 108 955 m 509 714 q 380 712 453 714 q 273 707 313 711 q 243 704 251 706 q 205 688 221 700 q 189 672 195 681 q 176 646 182 663 q 165 610 170 632 q 159 496 159 546 l 159 439 q 164 342 159 399 q 170 311 165 324 q 181 277 175 288 q 216 242 192 254 q 235 235 224 238 q 262 230 245 233 q 328 225 274 228 q 511 222 454 222 q 646 224 564 222 q 770 231 754 228 q 799 240 787 234 q 813 250 806 243 q 828 263 821 255 q 842 290 837 275 q 852 324 848 304 q 859 439 859 388 l 859 496 q 852 610 859 547 q 844 642 848 632 q 825 677 837 663 q 811 688 814 686 q 793 699 803 694 q 774 705 786 702 q 726 709 760 707 q 509 714 619 714 m 436 574 q 591 494 439 572 q 625 475 625 476 l 594 459 q 436 377 593 458 l 436 377 l 436 574 z "},"W":{"ha":1023,"x_min":34,"x_max":989,"o":"m 142 955 l 880 955 q 972 904 938 955 q 989 840 989 876 l 989 115 q 941 19 989 54 q 880 0 915 0 l 142 0 q 51 51 85 0 q 34 115 34 79 l 34 840 q 81 936 34 901 q 142 955 108 955 m 503 774 q 442 763 473 774 q 357 692 384 741 q 336 607 336 663 l 336 600 q 340 523 336 577 q 322 518 332 518 q 302 521 313 518 q 281 528 286 528 l 277 528 q 254 509 254 522 q 286 481 254 494 q 335 444 335 469 q 320 406 335 431 q 282 357 309 385 q 241 326 260 336 q 201 312 209 312 q 188 303 188 311 l 188 302 q 214 280 188 292 q 270 267 234 273 q 281 245 277 267 q 294 224 283 224 q 343 231 329 231 q 359 229 354 231 q 425 199 385 229 q 507 169 465 169 l 513 169 q 564 180 541 169 q 612 211 581 189 q 675 231 636 231 l 677 231 q 689 230 684 231 l 726 224 q 736 231 732 224 q 747 267 744 267 q 832 303 832 280 q 824 311 832 309 q 756 341 791 316 q 718 378 739 354 q 685 444 685 424 l 685 444 q 712 474 685 463 q 766 508 766 490 q 764 514 766 509 q 738 528 755 528 q 730 528 734 528 q 696 518 709 518 q 680 523 688 518 q 684 603 684 582 q 680 650 684 631 q 659 700 678 669 q 623 738 649 716 q 519 774 574 774 l 503 774 z "},"X":{"ha":1023,"x_min":34,"x_max":989,"o":"m 989 955 l 989 0 l 34 0 l 34 955 l 989 955 m 591 801 q 528 790 557 801 q 463 735 485 772 q 441 649 441 698 l 441 560 l 340 560 q 340 560 340 560 l 340 444 q 340 444 340 444 l 441 444 l 441 144 q 441 144 441 144 l 562 144 q 562 144 562 144 l 562 444 l 663 444 q 678 560 664 448 q 677 560 678 560 l 562 560 l 562 626 q 565 660 562 653 q 570 671 565 663 q 591 688 576 683 q 629 692 602 692 l 682 692 q 682 692 682 692 l 682 796 l 682 796 q 595 801 640 801 l 591 801 z "},"Y":{"ha":1023,"x_min":34,"x_max":989,"o":"m 506 587 l 506 585 q 509 557 506 573 l 509 557 q 453 564 494 557 q 391 583 418 572 q 328 615 361 594 q 272 660 303 631 q 242 692 256 676 q 225 629 225 660 l 225 624 q 256 543 225 582 q 281 520 271 526 q 281 519 281 520 l 281 519 q 224 535 255 519 l 224 532 q 263 441 224 481 q 309 412 288 418 q 326 407 323 407 l 326 407 q 312 404 326 406 q 298 402 303 402 l 296 402 q 294 402 294 402 l 292 402 l 291 402 q 269 404 281 402 q 322 336 285 359 q 389 315 355 315 l 389 315 l 389 315 q 353 290 370 299 q 234 260 293 260 l 225 260 q 199 261 212 260 q 277 223 235 237 q 397 203 336 203 q 579 248 496 203 q 637 290 606 263 q 677 331 667 317 q 721 396 703 363 q 744 448 733 418 q 765 566 765 511 l 765 585 l 765 588 q 801 619 776 595 q 829 654 819 639 l 829 654 l 829 654 q 778 638 804 644 q 756 635 758 635 l 756 635 q 783 656 764 639 q 812 706 805 682 q 759 682 787 691 q 730 675 734 675 q 702 696 711 692 q 636 715 671 715 l 635 715 q 545 678 584 715 q 506 587 506 639 m 989 955 l 989 0 l 34 0 l 34 955 l 989 955 z "},"Z":{"ha":1023,"x_min":34,"x_max":989,"o":"m 989 955 l 989 0 l 34 0 l 34 955 l 989 955 m 376 697 q 248 654 307 697 q 163 537 186 608 q 155 507 159 524 q 153 467 153 484 l 153 464 q 167 393 153 429 q 260 277 195 319 q 380 243 316 243 l 384 243 q 480 264 433 243 q 517 286 495 271 q 599 471 599 350 l 599 475 q 597 502 599 486 l 597 503 q 530 503 554 503 l 380 503 q 380 502 380 503 l 380 425 l 380 425 q 510 424 388 425 l 510 424 q 503 401 510 419 q 490 378 500 391 q 469 356 485 370 q 380 326 429 326 q 292 358 330 326 q 275 375 287 363 q 241 469 241 415 q 260 543 241 509 q 280 570 265 555 q 296 584 290 581 q 378 612 331 612 q 474 581 427 612 l 475 581 q 482 588 475 582 q 532 640 519 624 l 532 641 q 390 697 460 697 l 382 697 q 380 697 381 697 q 378 697 379 697 l 376 697 m 739 568 q 739 503 739 524 q 673 503 732 503 l 673 502 l 673 438 l 673 438 q 739 437 681 438 q 739 378 739 391 q 739 372 739 377 l 739 372 l 803 372 l 803 372 q 804 437 804 393 q 869 438 817 437 l 869 438 l 869 502 l 869 503 q 804 503 852 503 l 803 568 l 803 568 l 739 568 l 739 568 z "},"[":{"ha":1023,"x_min":34,"x_max":989,"o":"m 252 618 l 252 317 q 264 262 252 281 q 283 237 267 253 q 353 209 313 209 l 670 209 q 743 239 712 209 q 771 314 771 267 l 771 622 q 753 686 771 661 q 720 714 737 706 q 671 728 698 728 l 352 728 q 275 690 307 728 q 254 648 260 674 q 252 618 252 639 m 711 668 l 711 667 l 711 581 q 711 580 711 580 l 700 580 q 623 579 675 580 l 623 580 l 623 667 q 624 667 623 667 q 711 668 640 667 m 509 559 l 514 559 q 581 528 551 559 q 603 467 603 502 q 578 406 603 434 q 511 377 550 377 q 442 409 471 377 q 420 468 420 436 q 446 532 420 503 q 509 559 475 559 m 303 522 l 379 522 q 380 521 380 522 q 370 468 370 495 q 417 362 370 408 q 509 326 460 326 l 515 326 q 604 361 562 326 q 627 385 621 376 q 654 466 654 424 l 654 470 q 644 522 654 494 l 644 522 l 720 522 q 721 521 721 522 l 721 307 q 697 267 721 283 q 665 259 686 259 l 359 259 q 325 268 336 259 q 313 279 323 268 q 302 309 302 292 l 302 521 q 303 522 303 522 m 989 955 l 989 0 l 34 0 l 34 955 l 989 955 z "},"\\":{"ha":1023,"x_min":34,"x_max":989,"o":"m 540 770 q 382 724 448 770 q 352 699 371 717 q 328 668 334 679 q 290 552 290 612 q 317 454 290 492 q 340 430 324 442 q 366 417 360 417 l 368 417 q 374 419 371 417 q 379 429 378 422 q 387 463 387 458 q 383 471 387 466 q 358 542 358 499 q 393 648 358 602 q 418 674 404 661 q 528 711 467 711 q 632 678 593 711 q 676 576 676 640 q 654 463 676 514 q 640 436 646 448 q 565 391 608 391 q 528 403 545 391 q 508 444 508 419 l 508 446 q 519 493 508 456 q 541 581 541 558 q 534 611 541 597 q 494 634 522 634 q 448 612 467 634 q 426 545 426 583 q 437 489 426 514 l 395 311 q 387 237 387 275 l 387 231 q 391 167 387 201 q 395 161 391 161 l 395 161 q 397 161 397 161 q 409 175 399 163 q 441 226 429 203 q 460 269 451 245 q 487 373 469 301 q 496 361 490 368 q 512 348 506 352 q 572 330 542 330 q 574 330 573 330 l 575 330 q 635 342 605 330 q 720 413 686 362 q 761 569 761 479 q 749 637 761 604 q 665 737 724 701 q 540 770 609 770 m 989 955 l 989 0 l 34 0 l 34 955 l 989 955 z "},"]":{"ha":1023,"x_min":34,"x_max":989,"o":"m 168 474 q 205 367 168 415 q 235 338 223 346 q 319 311 275 311 l 319 311 q 422 355 378 311 q 457 408 448 382 q 470 475 470 440 q 426 590 470 540 q 398 614 409 608 q 319 638 361 638 q 216 594 262 638 q 168 474 168 543 m 546 477 q 593 359 546 410 q 630 332 615 340 q 698 315 665 315 l 704 315 q 794 347 751 315 q 825 378 814 364 q 856 473 856 425 l 856 480 q 822 578 856 531 q 743 632 793 616 q 701 638 721 638 q 591 590 639 638 q 546 477 546 541 m 989 955 l 989 0 l 34 0 l 34 955 l 989 955 z "},"^":{"ha":1023,"x_min":34,"x_max":989,"o":"m 225 682 q 250 630 225 652 q 294 614 269 614 q 348 640 326 614 q 362 683 362 659 q 332 740 362 718 q 294 751 313 751 q 241 726 263 751 q 225 682 225 707 m 542 509 l 541 509 q 541 510 541 509 l 541 562 l 427 562 l 427 181 l 545 181 l 545 358 q 553 426 545 408 q 614 467 568 467 l 615 467 q 616 467 616 467 l 618 467 l 619 467 q 669 434 655 467 q 675 410 675 417 q 677 353 677 401 l 677 181 l 796 181 l 796 393 q 762 530 796 490 q 653 572 729 572 q 568 542 606 572 q 550 523 554 529 q 542 509 545 515 m 235 562 l 235 181 l 353 181 l 353 562 l 235 562 m 989 955 l 989 0 l 34 0 l 34 955 l 989 955 z "},"_":{"ha":1023,"x_min":34,"x_max":989,"o":"m 450 801 q 446 797 448 801 q 441 766 444 779 q 432 734 437 750 q 412 694 424 712 q 397 675 407 685 q 383 659 395 672 q 359 640 370 648 q 324 622 341 629 q 317 620 317 620 l 317 536 q 318 535 317 535 l 383 535 l 383 323 q 395 262 383 292 q 465 176 416 206 q 574 148 511 148 l 576 148 q 663 166 618 148 q 684 178 675 171 q 692 186 687 180 q 661 279 690 196 l 654 276 q 608 268 627 268 l 605 268 q 562 283 578 268 q 546 333 546 301 l 546 535 l 677 535 q 677 536 677 535 l 677 634 q 677 634 677 634 l 546 634 l 546 800 q 546 801 546 801 l 450 801 m 989 955 l 989 0 l 34 0 l 34 955 l 989 955 z "},"`":{"ha":1023,"x_min":34,"x_max":989,"o":"m 484 646 q 419 639 437 646 q 407 632 414 637 q 398 620 398 623 l 398 618 q 399 618 398 618 q 411 614 407 616 q 433 600 427 609 q 437 586 435 593 q 441 568 439 579 q 442 528 442 542 l 442 526 q 442 524 442 525 q 442 523 442 524 l 442 520 q 435 465 442 484 q 420 449 431 449 q 361 514 401 449 q 314 608 333 561 q 300 625 309 621 q 288 629 292 628 q 188 628 273 628 q 174 625 181 628 q 164 613 164 623 l 164 613 q 165 604 164 609 q 224 484 193 541 q 279 395 250 437 q 322 339 296 369 q 354 307 336 322 q 382 286 370 294 q 426 262 404 271 q 506 245 470 245 l 551 245 q 562 249 554 245 q 574 258 570 252 q 576 270 576 261 q 583 316 576 297 q 589 328 586 323 q 606 338 597 338 l 608 338 q 645 311 621 338 q 676 276 663 290 q 694 260 688 264 q 737 244 718 244 l 738 244 q 744 245 741 244 l 836 245 q 846 247 839 245 q 869 269 869 253 l 869 270 q 867 279 869 274 q 857 298 863 288 q 826 336 849 310 q 802 361 818 345 q 774 386 779 381 q 753 418 753 406 l 753 419 q 766 448 753 430 q 810 505 766 448 q 869 611 869 584 l 869 611 q 867 619 869 616 q 842 628 862 628 l 840 628 q 831 628 836 628 l 726 627 q 721 627 723 627 q 715 626 718 627 q 703 615 708 625 q 690 584 696 599 q 666 536 677 555 q 594 450 616 450 l 594 450 q 589 452 591 450 q 576 495 576 460 l 576 496 q 576 536 576 526 q 578 596 577 585 q 574 626 578 618 q 560 639 570 634 q 551 642 553 642 q 493 646 536 646 l 484 646 m 989 955 l 989 0 l 34 0 l 34 955 l 989 955 z "},"a":{"ha":1023,"x_min":34,"x_max":989,"o":"m 510 709 q 385 707 456 709 q 279 703 318 706 q 249 699 257 701 q 212 684 228 696 q 196 668 203 676 q 183 642 190 659 q 174 607 178 629 q 167 496 167 545 l 167 440 q 172 345 167 400 q 178 314 174 327 q 189 281 182 292 q 222 246 200 259 q 242 239 231 242 q 268 235 251 237 q 332 230 280 233 q 513 227 456 227 q 645 229 564 227 q 766 235 751 233 q 794 244 783 238 q 809 254 802 248 q 823 267 817 260 q 837 294 832 279 q 846 327 842 307 q 854 440 854 390 l 854 496 q 847 607 854 545 q 838 638 842 629 q 820 673 832 659 q 807 684 810 682 q 789 694 798 690 q 770 700 782 698 q 723 705 756 703 q 510 709 618 709 m 439 572 q 591 493 442 570 q 625 475 624 476 l 594 459 q 439 379 593 458 l 439 379 l 439 572 m 989 955 l 989 0 l 34 0 l 34 955 l 989 955 z "},"b":{"ha":1023,"x_min":34,"x_max":989,"o":"m 989 955 l 989 0 l 34 0 l 34 955 l 989 955 m 503 768 q 443 758 473 768 q 357 686 385 735 q 337 602 337 658 l 337 595 q 340 517 337 572 q 323 513 333 513 q 303 515 313 513 q 281 523 286 523 l 278 523 q 255 503 255 517 q 287 475 255 488 q 336 439 336 463 q 321 400 336 426 q 283 351 310 380 q 241 321 260 330 q 202 307 210 307 q 189 298 189 306 l 189 297 q 215 275 189 286 q 271 262 235 268 q 281 239 277 262 q 294 219 283 219 q 344 225 330 225 q 360 224 355 225 q 425 194 386 224 q 507 163 465 163 l 514 163 q 565 175 541 163 q 612 205 582 183 q 676 225 637 225 l 677 225 q 690 224 684 225 l 727 219 q 736 225 733 219 q 748 261 745 261 q 833 298 833 275 q 825 306 833 304 q 757 336 791 311 q 719 373 739 349 q 686 439 686 418 l 686 439 q 713 469 686 458 q 766 503 766 484 q 765 509 766 504 q 739 523 755 523 q 731 522 734 523 q 697 513 709 513 q 681 517 689 513 q 684 597 684 576 q 681 644 684 625 q 659 694 679 663 q 624 732 650 711 q 519 768 575 768 l 503 768 z "},"c":{"ha":1023,"x_min":34,"x_max":989,"o":"m 583 766 q 527 756 553 766 q 469 708 488 741 q 449 630 449 674 l 449 551 l 359 551 q 359 551 359 551 l 359 447 q 359 446 359 446 l 449 446 l 449 178 q 450 178 449 178 l 557 178 q 557 178 557 178 l 557 446 l 648 446 q 661 551 648 451 q 661 551 661 551 l 557 551 l 557 610 q 559 640 557 634 q 564 650 559 642 q 583 665 570 661 q 616 669 592 669 l 665 669 q 665 669 665 669 l 665 762 l 665 762 q 586 766 627 766 l 583 766 m 509 905 q 295 846 396 905 q 243 810 273 834 q 201 771 230 802 q 161 723 177 745 q 84 480 84 610 l 84 475 q 142 261 84 362 q 178 210 155 239 q 218 167 187 196 q 266 127 243 143 q 509 50 379 50 l 514 50 q 728 109 627 50 q 779 144 749 121 q 822 184 793 153 q 862 232 846 210 q 939 475 939 345 l 939 480 q 880 694 939 593 q 844 745 868 715 q 805 788 836 759 q 757 828 779 812 q 514 905 644 905 l 509 905 m 509 955 l 514 955 q 785 869 659 955 q 840 825 811 851 q 884 777 873 791 q 924 720 910 743 q 989 480 989 606 l 989 475 q 903 203 989 330 q 859 149 885 178 q 811 105 825 115 q 753 65 777 79 q 514 0 640 0 l 509 0 q 237 85 363 0 q 183 130 212 104 q 139 178 149 163 q 99 235 113 212 q 34 475 34 349 l 34 480 q 119 751 34 625 q 164 806 138 777 q 212 850 197 840 q 269 890 245 876 q 509 955 382 955 z "},"d":{"ha":1023,"x_min":34,"x_max":989,"o":"m 522 570 l 522 567 q 526 541 522 556 l 525 541 q 473 547 511 541 q 414 565 440 555 q 356 595 387 576 q 303 637 332 610 q 275 667 288 653 q 260 609 260 637 l 260 604 q 288 528 260 565 q 312 507 302 512 q 312 506 312 507 l 312 506 q 258 521 288 506 l 258 517 q 295 433 258 470 q 338 406 318 412 q 354 401 351 401 l 354 401 q 340 397 354 399 q 328 396 332 396 l 326 396 q 323 396 324 396 l 321 396 l 321 396 q 300 398 312 396 q 350 334 315 356 q 413 315 381 315 l 413 315 l 413 315 q 379 292 395 300 q 268 263 323 263 l 260 263 q 235 264 248 263 q 309 229 269 242 q 420 210 363 210 q 591 252 513 210 q 645 291 616 266 q 683 330 673 316 q 724 391 707 359 q 745 439 735 412 q 765 549 765 498 l 765 567 l 765 570 q 799 600 775 576 q 825 633 816 618 l 825 633 l 825 633 q 777 617 802 623 q 757 614 759 614 l 757 615 q 782 635 764 618 q 809 681 802 659 q 760 659 785 667 q 732 652 736 652 q 706 672 715 668 q 644 690 677 690 l 644 690 q 559 655 595 690 q 522 570 522 618 m 509 905 q 295 846 396 905 q 243 810 273 834 q 201 771 230 802 q 161 723 177 745 q 84 480 84 610 l 84 475 q 142 261 84 362 q 178 210 155 239 q 218 167 187 196 q 266 127 243 143 q 509 50 379 50 l 514 50 q 728 109 627 50 q 779 144 749 121 q 822 184 793 153 q 862 232 846 210 q 939 475 939 345 l 939 480 q 880 694 939 593 q 844 745 868 715 q 805 788 836 759 q 757 828 779 812 q 514 905 644 905 l 509 905 m 509 955 l 514 955 q 785 869 659 955 q 840 825 811 851 q 884 777 873 791 q 924 720 910 743 q 989 480 989 606 l 989 475 q 903 203 989 330 q 859 149 885 178 q 811 105 825 115 q 753 65 777 79 q 514 0 640 0 l 509 0 q 237 85 363 0 q 183 130 212 104 q 139 178 149 163 q 99 235 113 212 q 34 475 34 349 l 34 480 q 119 751 34 625 q 164 806 138 777 q 212 850 197 840 q 269 890 245 876 q 509 955 382 955 z "},"e":{"ha":1023,"x_min":34,"x_max":989,"o":"m 509 905 q 295 846 396 905 q 243 810 273 834 q 201 771 230 802 q 161 723 177 745 q 84 480 84 610 l 84 475 q 142 261 84 362 q 178 210 155 239 q 218 167 187 196 q 266 127 243 143 q 509 50 379 50 l 514 50 q 728 109 627 50 q 779 144 749 121 q 822 184 793 153 q 862 232 846 210 q 939 475 939 345 l 939 480 q 880 694 939 593 q 844 745 868 715 q 805 788 836 759 q 757 828 779 812 q 514 905 644 905 l 509 905 m 509 955 l 514 955 q 785 869 659 955 q 840 825 811 851 q 884 777 873 791 q 924 720 910 743 q 989 480 989 606 l 989 475 q 903 203 989 330 q 859 149 885 178 q 811 105 825 115 q 753 65 777 79 q 514 0 640 0 l 509 0 q 237 85 363 0 q 183 130 212 104 q 139 178 149 163 q 99 235 113 212 q 34 475 34 349 l 34 480 q 119 751 34 625 q 164 806 138 777 q 212 850 197 840 q 269 890 245 876 q 509 955 382 955 m 392 673 l 395 673 q 396 673 395 673 q 398 673 397 673 l 405 673 q 533 623 468 673 l 533 622 q 488 574 521 607 q 481 568 482 569 l 481 568 q 394 597 439 597 q 320 571 352 597 q 306 559 315 568 q 288 534 293 545 q 271 468 271 504 q 301 383 271 419 q 317 368 312 372 q 397 339 351 339 q 476 366 440 339 q 495 385 490 378 q 507 406 504 397 q 513 427 513 422 l 513 427 q 397 428 404 427 l 397 428 l 397 497 q 397 498 397 498 l 531 498 q 592 498 553 498 l 592 497 q 593 473 593 483 l 593 469 q 519 302 593 360 q 486 283 500 289 q 399 264 444 264 l 396 264 q 288 294 338 264 q 204 399 229 332 q 192 463 192 431 l 192 466 q 194 501 192 481 q 201 529 197 517 q 277 634 221 593 q 392 673 330 673 m 720 556 l 777 556 l 777 556 l 778 498 q 836 498 821 498 l 836 497 l 836 439 l 836 439 q 778 439 789 439 q 777 380 778 399 l 777 380 l 720 380 l 719 380 q 719 386 719 385 q 719 439 719 397 q 661 439 667 439 l 661 439 l 661 497 l 661 498 q 719 498 713 498 q 719 556 719 517 l 720 556 z "},"f":{"ha":1023,"x_min":34,"x_max":989,"o":"m 273 606 l 273 326 q 283 275 273 293 q 301 251 287 267 q 367 225 329 225 l 662 225 q 730 253 701 225 q 756 323 756 279 l 756 610 q 739 669 756 646 q 709 696 724 688 q 663 709 688 709 l 366 709 q 294 674 323 709 q 275 634 280 659 q 273 606 273 626 m 700 653 l 701 652 l 701 572 q 700 571 701 571 l 690 571 q 618 570 667 571 l 618 571 l 618 652 q 619 652 618 652 q 700 653 634 652 m 512 552 l 517 552 q 578 523 551 552 q 600 465 600 498 q 576 408 600 435 q 514 382 550 382 q 450 412 477 382 q 429 467 429 437 q 454 526 429 499 q 512 552 480 552 m 320 517 l 391 517 q 391 516 391 517 q 382 467 382 492 q 426 368 382 410 q 511 334 467 334 l 517 334 q 601 367 562 334 q 621 389 616 380 q 647 465 647 425 l 647 469 q 637 517 647 491 l 637 517 l 709 517 q 709 516 709 517 l 709 317 q 687 279 709 295 q 657 272 677 272 l 372 272 q 340 280 351 272 q 329 290 338 280 q 319 318 319 303 l 319 516 q 320 517 320 517 m 509 905 q 295 846 396 905 q 243 810 273 834 q 201 771 230 802 q 161 723 177 745 q 84 480 84 610 l 84 475 q 142 261 84 362 q 178 210 155 239 q 218 167 187 196 q 266 127 243 143 q 509 50 379 50 l 514 50 q 728 109 627 50 q 779 144 749 121 q 822 184 793 153 q 862 232 846 210 q 939 475 939 345 l 939 480 q 880 694 939 593 q 844 745 868 715 q 805 788 836 759 q 757 828 779 812 q 514 905 644 905 l 509 905 m 509 955 l 514 955 q 785 869 659 955 q 840 825 811 851 q 884 777 873 791 q 924 720 910 743 q 989 480 989 606 l 989 475 q 903 203 989 330 q 859 149 885 178 q 811 105 825 115 q 753 65 777 79 q 514 0 640 0 l 509 0 q 237 85 363 0 q 183 130 212 104 q 139 178 149 163 q 99 235 113 212 q 34 475 34 349 l 34 480 q 119 751 34 625 q 164 806 138 777 q 212 850 197 840 q 269 890 245 876 q 509 955 382 955 z "},"g":{"ha":1023,"x_min":34,"x_max":989,"o":"m 531 734 q 387 691 448 734 q 359 668 377 684 q 337 640 343 650 q 302 534 302 589 q 328 444 302 479 q 349 422 334 434 q 372 411 367 411 l 374 411 q 380 412 377 411 q 385 422 384 416 q 392 452 392 448 q 388 460 392 455 q 365 525 365 486 q 397 622 365 580 q 420 646 406 633 q 521 680 464 680 q 616 649 579 680 q 656 556 656 614 q 635 452 656 499 q 622 428 629 438 q 554 387 593 387 q 521 397 536 387 q 503 435 503 412 l 503 437 q 513 480 503 447 q 532 562 532 540 q 527 588 532 576 q 489 609 514 609 q 448 589 465 609 q 427 528 427 563 q 437 477 427 499 l 399 314 q 391 247 391 281 l 391 241 q 395 182 391 214 q 399 176 395 178 l 399 176 q 401 176 400 176 q 411 190 403 179 q 441 236 430 216 q 459 276 450 254 q 482 370 467 305 q 491 359 486 366 q 506 348 500 351 q 561 331 532 331 q 563 332 562 332 l 564 332 q 618 342 591 332 q 695 406 665 360 q 734 550 734 469 q 723 612 734 581 q 646 703 699 669 q 531 734 595 734 m 509 905 q 295 846 396 905 q 243 810 273 834 q 201 771 230 802 q 161 723 177 745 q 84 480 84 610 l 84 475 q 142 261 84 362 q 178 210 155 239 q 218 167 187 196 q 266 127 243 143 q 509 50 379 50 l 514 50 q 728 109 627 50 q 779 144 749 121 q 822 184 793 153 q 862 232 846 210 q 939 475 939 345 l 939 480 q 880 694 939 593 q 844 745 868 715 q 805 788 836 759 q 757 828 779 812 q 514 905 644 905 l 509 905 m 509 955 l 514 955 q 785 869 659 955 q 840 825 811 851 q 884 777 873 791 q 924 720 910 743 q 989 480 989 606 l 989 475 q 903 203 989 330 q 859 149 885 178 q 811 105 825 115 q 753 65 777 79 q 514 0 640 0 l 509 0 q 237 85 363 0 q 183 130 212 104 q 139 178 149 163 q 99 235 113 212 q 34 475 34 349 l 34 480 q 119 751 34 625 q 164 806 138 777 q 212 850 197 840 q 269 890 245 876 q 509 955 382 955 z "},"h":{"ha":1023,"x_min":34,"x_max":989,"o":"m 193 472 q 227 372 193 417 q 255 345 243 353 q 333 320 292 320 l 334 320 q 429 361 388 320 q 462 411 453 387 q 473 473 473 441 q 433 581 473 534 q 407 603 416 597 q 333 625 372 625 q 237 584 279 625 q 193 472 193 536 m 545 475 q 589 366 545 413 q 623 340 609 347 q 686 325 654 325 l 691 325 q 775 354 735 325 q 804 383 794 370 q 833 471 833 426 l 833 478 q 801 569 833 526 q 728 619 774 605 q 689 625 707 625 q 586 581 631 625 q 545 475 545 534 m 509 905 q 295 846 396 905 q 243 810 273 834 q 201 771 230 802 q 161 723 177 745 q 84 480 84 610 l 84 475 q 142 261 84 362 q 178 210 155 239 q 218 167 187 196 q 266 127 243 143 q 509 50 379 50 l 514 50 q 728 109 627 50 q 779 144 749 121 q 822 184 793 153 q 862 232 846 210 q 939 475 939 345 l 939 480 q 880 694 939 593 q 844 745 868 715 q 805 788 836 759 q 757 828 779 812 q 514 905 644 905 l 509 905 m 509 955 l 514 955 q 785 869 659 955 q 840 825 811 851 q 884 777 873 791 q 924 720 910 743 q 989 480 989 606 l 989 475 q 903 203 989 330 q 859 149 885 178 q 811 105 825 115 q 753 65 777 79 q 514 0 640 0 l 509 0 q 237 85 363 0 q 183 130 212 104 q 139 178 149 163 q 99 235 113 212 q 34 475 34 349 l 34 480 q 119 751 34 625 q 164 806 138 777 q 212 850 197 840 q 269 890 245 876 q 509 955 382 955 z "},"i":{"ha":1023,"x_min":34,"x_max":989,"o":"m 257 684 q 279 637 257 656 q 321 622 298 622 q 370 646 350 622 q 382 685 382 663 q 355 737 382 717 q 320 747 338 747 q 272 725 292 747 q 257 684 257 707 m 548 526 l 547 526 q 547 526 547 526 l 547 574 l 443 574 l 443 224 l 551 224 l 551 387 q 557 449 551 433 q 614 487 572 487 l 615 487 q 616 487 616 487 l 618 487 l 618 487 q 665 456 652 487 q 671 434 671 441 q 672 382 672 426 l 672 224 l 781 224 l 781 419 q 750 545 781 509 q 650 583 720 583 q 572 555 606 583 q 555 538 559 544 q 548 526 551 532 m 266 574 l 266 224 l 375 224 l 375 574 l 266 574 m 509 905 q 295 846 396 905 q 243 810 273 834 q 201 771 230 802 q 161 723 177 745 q 84 480 84 610 l 84 475 q 142 261 84 362 q 178 210 155 239 q 218 167 187 196 q 266 127 243 143 q 509 50 379 50 l 514 50 q 728 109 627 50 q 779 144 749 121 q 822 184 793 153 q 862 232 846 210 q 939 475 939 345 l 939 480 q 880 694 939 593 q 844 745 868 715 q 805 788 836 759 q 757 828 779 812 q 514 905 644 905 l 509 905 m 509 955 l 514 955 q 785 869 659 955 q 840 825 811 851 q 884 777 873 791 q 924 720 910 743 q 989 480 989 606 l 989 475 q 903 203 989 330 q 859 149 885 178 q 811 105 825 115 q 753 65 777 79 q 514 0 640 0 l 509 0 q 237 85 363 0 q 183 130 212 104 q 139 178 149 163 q 99 235 113 212 q 34 475 34 349 l 34 480 q 119 751 34 625 q 164 806 138 777 q 212 850 197 840 q 269 890 245 876 q 509 955 382 955 z "},"j":{"ha":1023,"x_min":34,"x_max":989,"o":"m 449 790 q 444 786 446 790 q 439 757 443 768 q 431 726 436 741 q 412 688 423 706 q 398 670 408 680 q 385 655 397 667 q 361 637 371 644 q 329 620 345 627 q 322 618 322 618 l 322 538 q 323 537 322 537 l 385 537 l 385 335 q 396 277 385 306 q 463 196 416 224 q 566 169 507 169 l 568 169 q 650 186 608 169 q 671 197 662 191 q 679 205 673 199 q 649 294 675 215 l 642 291 q 599 283 616 283 l 595 283 q 555 298 570 283 q 539 345 539 315 l 539 537 l 663 537 q 663 538 663 537 l 663 631 q 663 631 663 631 l 539 631 l 539 789 q 539 790 539 790 l 449 790 m 509 905 q 295 846 396 905 q 243 810 273 834 q 201 771 230 802 q 161 723 177 745 q 84 480 84 610 l 84 475 q 142 261 84 362 q 178 210 155 239 q 218 167 187 196 q 266 127 243 143 q 509 50 379 50 l 514 50 q 728 109 627 50 q 779 144 749 121 q 822 184 793 153 q 862 232 846 210 q 939 475 939 345 l 939 480 q 880 694 939 593 q 844 745 868 715 q 805 788 836 759 q 757 828 779 812 q 514 905 644 905 l 509 905 m 509 955 l 514 955 q 785 869 659 955 q 840 825 811 851 q 884 777 873 791 q 924 720 910 743 q 989 480 989 606 l 989 475 q 903 203 989 330 q 859 149 885 178 q 811 105 825 115 q 753 65 777 79 q 514 0 640 0 l 509 0 q 237 85 363 0 q 183 130 212 104 q 139 178 149 163 q 99 235 113 212 q 34 475 34 349 l 34 480 q 119 751 34 625 q 164 806 138 777 q 212 850 197 840 q 269 890 245 876 q 509 955 382 955 z "},"k":{"ha":1023,"x_min":34,"x_max":989,"o":"m 460 619 q 402 613 418 619 q 391 606 398 612 q 384 596 384 599 l 384 595 q 385 594 384 595 q 395 591 391 593 q 414 578 409 587 q 418 566 416 572 q 422 550 420 560 q 423 514 423 527 l 423 512 q 423 511 423 511 q 423 511 423 511 l 423 508 q 416 459 423 476 q 403 445 413 445 q 351 502 387 445 q 310 585 326 544 q 298 600 305 597 q 286 604 290 603 q 198 603 273 603 q 185 600 192 603 q 177 589 177 598 l 177 589 q 178 581 177 587 q 231 476 203 526 q 279 397 253 434 q 317 347 294 374 q 345 319 329 333 q 370 300 359 308 q 408 280 389 288 q 479 265 448 265 l 519 265 q 528 268 522 265 q 538 277 536 271 q 541 286 541 279 q 547 328 541 311 q 553 338 550 334 q 568 347 560 347 l 569 347 q 602 322 581 347 q 629 292 618 304 q 646 278 641 281 q 684 264 666 264 l 684 264 q 690 264 687 264 l 770 265 q 779 267 773 265 q 800 286 800 271 l 800 286 q 798 295 800 290 q 789 311 795 303 q 762 345 782 321 q 741 367 754 353 q 717 389 720 385 q 698 417 698 407 l 698 418 q 709 444 698 428 q 748 494 709 444 q 800 588 800 564 l 800 588 q 798 595 800 593 q 776 603 793 603 l 774 603 q 767 603 770 603 l 674 602 q 669 602 671 602 q 665 601 667 602 q 653 591 658 600 q 642 564 647 577 q 621 522 630 538 q 557 446 576 446 l 557 446 q 552 448 554 446 q 541 486 541 455 l 541 486 q 541 522 541 512 q 543 574 542 564 q 538 601 543 594 q 527 613 536 608 q 519 615 520 615 q 467 619 506 619 l 460 619 m 509 905 q 295 846 396 905 q 243 810 273 834 q 201 771 230 802 q 161 723 177 745 q 84 480 84 610 l 84 475 q 142 261 84 362 q 178 210 155 239 q 218 167 187 196 q 266 127 243 143 q 509 50 379 50 l 514 50 q 728 109 627 50 q 779 144 749 121 q 822 184 793 153 q 862 232 846 210 q 939 475 939 345 l 939 480 q 880 694 939 593 q 844 745 868 715 q 805 788 836 759 q 757 828 779 812 q 514 905 644 905 l 509 905 m 509 955 l 514 955 q 785 869 659 955 q 840 825 811 851 q 884 777 873 791 q 924 720 910 743 q 989 480 989 606 l 989 475 q 903 203 989 330 q 859 149 885 178 q 811 105 825 115 q 753 65 777 79 q 514 0 640 0 l 509 0 q 237 85 363 0 q 183 130 212 104 q 139 178 149 163 q 99 235 113 212 q 34 475 34 349 l 34 480 q 119 751 34 625 q 164 806 138 777 q 212 850 197 840 q 269 890 245 876 q 509 955 382 955 z "},"l":{"ha":1023,"x_min":34,"x_max":989,"o":"m 514 682 q 404 680 466 682 q 310 677 345 679 q 283 673 290 675 q 251 659 265 670 q 236 646 243 653 q 226 623 231 638 q 216 591 221 611 q 211 494 211 536 l 211 444 q 216 360 211 409 q 220 333 216 345 q 230 303 225 313 q 260 273 240 284 q 277 267 267 270 q 300 262 286 265 q 357 259 311 260 q 517 256 467 256 q 633 258 562 256 q 741 263 727 260 q 765 271 755 266 q 778 279 772 274 q 791 292 785 285 q 804 315 798 301 q 811 345 808 327 q 817 444 817 400 l 817 494 q 812 591 817 536 q 804 619 808 611 q 788 650 798 638 q 776 659 779 659 q 761 669 769 665 q 744 674 754 672 q 702 678 732 677 q 514 682 610 682 m 451 561 q 585 491 454 559 q 615 475 614 475 l 588 462 q 451 391 587 460 l 451 391 l 451 561 m 509 905 q 295 846 396 905 q 243 810 273 834 q 201 771 230 802 q 161 723 177 745 q 84 480 84 610 l 84 475 q 142 261 84 362 q 178 210 155 239 q 218 167 187 196 q 266 127 243 143 q 509 50 379 50 l 514 50 q 728 109 627 50 q 779 144 749 121 q 822 184 793 153 q 862 232 846 210 q 939 475 939 345 l 939 480 q 880 694 939 593 q 844 745 868 715 q 805 788 836 759 q 757 828 779 812 q 514 905 644 905 l 509 905 m 509 955 l 514 955 q 785 869 659 955 q 840 825 811 851 q 884 777 873 791 q 924 720 910 743 q 989 480 989 606 l 989 475 q 903 203 989 330 q 859 149 885 178 q 811 105 825 115 q 753 65 777 79 q 514 0 640 0 l 509 0 q 237 85 363 0 q 183 130 212 104 q 139 178 149 163 q 99 235 113 212 q 34 475 34 349 l 34 480 q 119 751 34 625 q 164 806 138 777 q 212 850 197 840 q 269 890 245 876 q 509 955 382 955 z "},"m":{"ha":1023,"x_min":34,"x_max":989,"o":"m 509 905 q 295 846 396 905 q 243 810 273 834 q 201 771 230 802 q 161 723 177 745 q 84 480 84 610 l 84 475 q 142 261 84 362 q 178 210 155 239 q 218 167 187 196 q 266 127 243 143 q 509 50 379 50 l 514 50 q 728 109 627 50 q 779 144 749 121 q 822 184 793 153 q 862 232 846 210 q 939 475 939 345 l 939 480 q 880 694 939 593 q 844 745 868 715 q 805 788 836 759 q 757 828 779 812 q 514 905 644 905 l 509 905 m 509 955 l 514 955 q 785 869 659 955 q 840 825 811 851 q 884 777 873 791 q 924 720 910 743 q 989 480 989 606 l 989 475 q 903 203 989 330 q 859 149 885 178 q 811 105 825 115 q 753 65 777 79 q 514 0 640 0 l 509 0 q 237 85 363 0 q 183 130 212 104 q 139 178 149 163 q 99 235 113 212 q 34 475 34 349 l 34 480 q 119 751 34 625 q 164 806 138 777 q 212 850 197 840 q 269 890 245 876 q 509 955 382 955 m 505 753 l 519 753 q 616 720 570 753 q 648 684 640 699 q 668 638 666 656 q 671 595 671 621 q 668 522 671 576 q 683 517 675 517 q 714 526 694 517 q 721 527 718 527 q 745 513 736 527 q 747 508 747 509 q 697 477 747 491 q 672 450 672 467 l 672 450 q 703 389 672 431 q 738 355 722 366 q 800 327 770 332 q 808 319 808 325 q 730 286 808 298 q 719 253 726 286 q 710 247 716 247 l 676 252 q 665 253 671 253 l 663 253 q 605 235 627 253 q 562 207 577 214 q 515 196 539 196 l 508 196 q 433 224 469 196 q 373 252 397 252 q 358 253 368 253 q 313 247 345 253 q 300 266 302 247 q 290 286 297 286 q 239 298 258 292 q 215 319 215 309 l 215 319 q 227 328 215 327 q 264 340 235 328 q 302 369 281 349 q 336 414 327 395 q 351 450 351 437 q 305 483 351 472 q 276 509 276 495 q 297 527 276 521 l 300 527 q 320 519 304 527 q 338 517 330 517 q 355 522 348 517 q 351 593 351 572 l 351 599 q 370 677 351 651 q 449 743 395 722 q 505 753 477 753 z "},"n":{"ha":1023,"x_min":34,"x_max":989,"o":"m 581 740 q 528 731 551 740 q 473 686 492 716 q 456 614 456 654 l 456 540 l 372 540 q 372 540 372 540 l 372 443 q 372 443 372 443 l 456 443 l 456 194 q 456 194 456 194 l 556 194 q 556 194 556 194 l 556 443 l 640 443 q 652 540 640 447 q 652 540 652 540 l 556 540 l 556 595 q 558 623 556 617 q 562 632 558 625 q 581 646 568 642 q 611 649 589 649 l 656 649 q 656 650 656 649 l 656 736 l 656 736 q 583 740 621 740 l 581 740 m 511 955 l 511 955 q 544 933 521 951 q 578 902 556 924 q 603 870 594 883 l 612 854 l 613 854 q 750 891 679 891 q 787 753 787 825 l 790 753 q 923 718 857 753 q 925 715 925 716 q 888 578 925 645 l 888 578 q 989 478 951 542 l 989 477 q 967 445 985 468 q 936 411 958 433 q 904 386 917 395 l 888 376 l 888 376 q 925 239 925 311 q 787 201 859 201 l 787 199 q 751 66 787 132 q 749 64 750 64 q 612 100 679 64 l 612 100 q 512 0 576 38 l 511 0 q 480 21 502 5 q 445 54 469 29 q 427 75 431 70 q 410 100 422 82 l 410 100 q 273 64 345 64 q 235 201 235 130 l 231 201 q 109 233 171 201 l 98 239 q 135 376 98 311 q 92 407 115 388 q 64 435 71 427 q 36 473 45 457 q 34 477 34 477 q 135 578 71 541 q 98 716 98 644 q 235 753 163 753 l 235 756 q 273 891 235 825 q 273 891 273 891 q 410 854 345 891 q 511 955 447 918 m 511 891 q 424 804 455 859 q 304 836 367 836 q 304 836 304 836 q 273 719 273 779 l 273 716 q 153 684 210 716 q 185 565 153 623 q 98 477 130 533 q 100 474 98 477 q 124 441 108 460 q 148 416 130 433 q 185 390 168 400 q 153 271 153 333 l 162 265 q 269 239 216 239 l 273 239 q 304 119 273 176 q 423 151 367 119 l 424 151 q 439 129 434 135 q 454 111 441 125 q 484 82 475 89 q 511 64 503 68 l 512 64 q 598 151 568 96 l 599 151 q 718 119 656 119 q 720 121 718 119 q 750 236 750 178 l 750 239 q 869 271 812 239 q 838 389 869 333 l 838 390 l 852 398 q 879 420 863 406 q 906 450 899 439 q 925 477 922 469 l 925 478 q 838 564 892 534 l 838 565 q 869 684 869 623 q 868 686 869 684 q 753 716 811 716 l 750 716 q 718 836 750 779 q 600 804 656 836 l 599 804 l 591 818 q 569 845 583 829 q 539 872 550 865 q 511 891 519 888 l 511 891 z "},"o":{"ha":1023,"x_min":34,"x_max":989,"o":"m 515 567 l 515 564 q 517 542 515 555 l 517 542 q 471 547 505 542 q 420 563 442 554 q 368 589 396 572 q 322 627 348 603 q 298 653 309 640 q 283 602 283 627 l 283 597 q 309 531 283 562 q 330 512 322 516 q 330 511 330 512 l 330 511 q 283 524 308 511 l 283 522 q 315 446 283 479 q 352 422 335 428 q 367 418 364 418 l 367 418 q 355 416 367 417 q 344 414 348 414 l 341 414 q 340 414 340 414 l 338 414 l 338 414 q 320 416 330 414 q 363 359 332 379 q 418 342 391 342 l 418 342 l 418 342 q 389 322 404 329 q 291 297 340 297 l 283 297 q 262 298 273 297 q 326 267 292 279 q 425 250 375 250 q 575 288 507 250 q 623 321 597 300 q 656 356 647 344 q 692 410 677 382 q 711 452 702 428 q 728 549 728 504 l 728 564 l 728 568 q 758 593 737 573 q 781 622 772 609 l 781 622 l 781 622 q 739 608 760 614 q 721 606 722 606 l 721 607 q 743 624 728 609 q 767 665 761 645 q 723 645 746 652 q 699 639 703 639 q 676 656 684 654 q 622 672 650 672 l 621 672 q 547 642 579 672 q 515 567 515 609 m 511 955 l 511 955 q 544 933 521 951 q 578 902 556 924 q 603 870 594 883 l 612 854 l 613 854 q 750 891 679 891 q 787 753 787 825 l 790 753 q 923 718 857 753 q 925 715 925 716 q 888 578 925 645 l 888 578 q 989 478 951 542 l 989 477 q 967 445 985 468 q 936 411 958 433 q 904 386 917 395 l 888 376 l 888 376 q 925 239 925 311 q 787 201 859 201 l 787 199 q 751 66 787 132 q 749 64 750 64 q 612 100 679 64 l 612 100 q 512 0 576 38 l 511 0 q 480 21 502 5 q 445 54 469 29 q 427 75 431 70 q 410 100 422 82 l 410 100 q 273 64 345 64 q 235 201 235 130 l 231 201 q 109 233 171 201 l 98 239 q 135 376 98 311 q 92 407 115 388 q 64 435 71 427 q 36 473 45 457 q 34 477 34 477 q 135 578 71 541 q 98 716 98 644 q 235 753 163 753 l 235 756 q 273 891 235 825 q 273 891 273 891 q 410 854 345 891 q 511 955 447 918 m 511 891 q 424 804 455 859 q 304 836 367 836 q 304 836 304 836 q 273 719 273 779 l 273 716 q 153 684 210 716 q 185 565 153 623 q 98 477 130 533 q 100 474 98 477 q 124 441 108 460 q 148 416 130 433 q 185 390 168 400 q 153 271 153 333 l 162 265 q 269 239 216 239 l 273 239 q 304 119 273 176 q 423 151 367 119 l 424 151 q 439 129 434 135 q 454 111 441 125 q 484 82 475 89 q 511 64 503 68 l 512 64 q 598 151 568 96 l 599 151 q 718 119 656 119 q 720 121 718 119 q 750 236 750 178 l 750 239 q 869 271 812 239 q 838 389 869 333 l 838 390 l 852 398 q 879 420 863 406 q 906 450 899 439 q 925 477 922 469 l 925 478 q 838 564 892 534 l 838 565 q 869 684 869 623 q 868 686 869 684 q 753 716 811 716 l 750 716 q 718 836 750 779 q 600 804 656 836 l 599 804 l 591 818 q 569 845 583 829 q 539 872 550 865 q 511 891 519 888 l 511 891 z "},"p":{"ha":1023,"x_min":34,"x_max":989,"o":"m 511 955 l 511 955 q 544 933 521 951 q 578 902 556 924 q 603 870 594 883 l 612 854 l 613 854 q 750 891 679 891 q 787 753 787 825 l 790 753 q 923 718 857 753 q 925 715 925 716 q 888 578 925 645 l 888 578 q 989 478 951 542 l 989 477 q 967 445 985 468 q 936 411 958 433 q 904 386 917 395 l 888 376 l 888 376 q 925 239 925 311 q 787 201 859 201 l 787 199 q 751 66 787 132 q 749 64 750 64 q 612 100 679 64 l 612 100 q 512 0 576 38 l 511 0 q 480 21 502 5 q 445 54 469 29 q 427 75 431 70 q 410 100 422 82 l 410 100 q 273 64 345 64 q 235 201 235 130 l 231 201 q 109 233 171 201 l 98 239 q 135 376 98 311 q 92 407 115 388 q 64 435 71 427 q 36 473 45 457 q 34 477 34 477 q 135 578 71 541 q 98 716 98 644 q 235 753 163 753 l 235 756 q 273 891 235 825 q 273 891 273 891 q 410 854 345 891 q 511 955 447 918 m 511 891 q 424 804 455 859 q 304 836 367 836 q 304 836 304 836 q 273 719 273 779 l 273 716 q 153 684 210 716 q 185 565 153 623 q 98 477 130 533 q 100 474 98 477 q 124 441 108 460 q 148 416 130 433 q 185 390 168 400 q 153 271 153 333 l 162 265 q 269 239 216 239 l 273 239 q 304 119 273 176 q 423 151 367 119 l 424 151 q 439 129 434 135 q 454 111 441 125 q 484 82 475 89 q 511 64 503 68 l 512 64 q 598 151 568 96 l 599 151 q 718 119 656 119 q 720 121 718 119 q 750 236 750 178 l 750 239 q 869 271 812 239 q 838 389 869 333 l 838 390 l 852 398 q 879 420 863 406 q 906 450 899 439 q 925 477 922 469 l 925 478 q 838 564 892 534 l 838 565 q 869 684 869 623 q 868 686 869 684 q 753 716 811 716 l 750 716 q 718 836 750 779 q 600 804 656 836 l 599 804 l 591 818 q 569 845 583 829 q 539 872 550 865 q 511 891 519 888 l 511 891 m 406 654 l 408 654 q 410 654 409 654 q 411 654 410 654 l 417 654 q 532 609 473 654 l 532 608 q 492 566 521 595 q 486 560 486 561 l 485 560 q 408 586 448 586 q 341 563 370 586 q 328 552 337 559 q 312 530 317 539 q 297 471 297 503 q 324 395 297 427 q 339 380 334 384 q 410 355 369 355 q 481 378 449 355 q 498 396 494 390 q 509 415 506 407 q 514 433 514 430 l 514 433 q 410 435 416 434 l 410 435 l 410 496 q 410 497 410 497 l 530 497 q 585 497 549 497 l 585 496 q 586 475 586 484 l 586 471 q 520 322 586 374 q 490 304 503 310 q 412 288 452 288 l 410 288 q 313 315 357 288 q 237 408 260 349 q 227 466 227 437 l 227 469 q 229 500 227 482 q 235 525 231 514 q 302 619 253 582 q 406 654 351 654 m 699 549 l 751 549 l 751 549 l 751 497 q 804 497 790 497 l 804 496 l 804 445 l 804 445 q 751 444 762 444 q 751 392 751 409 l 751 392 l 699 392 l 699 392 q 699 397 699 395 q 699 444 699 407 q 646 445 652 445 l 646 445 l 646 496 l 646 497 q 699 497 694 497 q 699 549 699 515 l 699 549 z "},"q":{"ha":1023,"x_min":34,"x_max":989,"o":"m 291 599 l 291 345 q 300 299 291 315 q 317 277 304 291 q 376 254 342 254 l 643 254 q 704 279 679 254 q 728 342 728 302 l 728 602 q 713 655 728 634 q 686 680 700 673 q 644 691 667 691 l 375 691 q 310 660 337 691 q 293 623 298 646 q 291 599 291 616 m 677 641 l 678 640 l 678 567 q 677 567 678 567 l 669 567 q 604 566 648 567 l 604 567 l 604 640 q 604 640 604 640 q 677 641 618 640 m 508 549 l 511 549 q 568 523 543 549 q 587 471 587 500 q 566 419 587 444 q 510 395 542 395 q 451 422 476 395 q 433 473 433 445 q 454 526 433 502 q 508 549 478 549 m 334 517 l 398 517 q 399 516 399 517 q 390 473 390 494 q 430 383 390 421 q 507 353 467 353 l 512 353 q 587 382 552 353 q 606 402 602 395 q 629 471 629 435 l 629 473 q 621 517 629 494 l 621 517 l 686 517 q 686 516 686 517 l 686 336 q 666 302 686 317 q 638 296 657 296 l 382 296 q 352 303 361 296 q 342 313 350 303 q 333 338 333 323 l 333 516 q 334 517 334 517 m 511 955 l 511 955 q 544 933 521 951 q 578 902 556 924 q 603 870 594 883 l 612 854 l 613 854 q 750 891 679 891 q 787 753 787 825 l 790 753 q 923 718 857 753 q 925 715 925 716 q 888 578 925 645 l 888 578 q 989 478 951 542 l 989 477 q 967 445 985 468 q 936 411 958 433 q 904 386 917 395 l 888 376 l 888 376 q 925 239 925 311 q 787 201 859 201 l 787 199 q 751 66 787 132 q 749 64 750 64 q 612 100 679 64 l 612 100 q 512 0 576 38 l 511 0 q 480 21 502 5 q 445 54 469 29 q 427 75 431 70 q 410 100 422 82 l 410 100 q 273 64 345 64 q 235 201 235 130 l 231 201 q 109 233 171 201 l 98 239 q 135 376 98 311 q 92 407 115 388 q 64 435 71 427 q 36 473 45 457 q 34 477 34 477 q 135 578 71 541 q 98 716 98 644 q 235 753 163 753 l 235 756 q 273 891 235 825 q 273 891 273 891 q 410 854 345 891 q 511 955 447 918 m 511 891 q 424 804 455 859 q 304 836 367 836 q 304 836 304 836 q 273 719 273 779 l 273 716 q 153 684 210 716 q 185 565 153 623 q 98 477 130 533 q 100 474 98 477 q 124 441 108 460 q 148 416 130 433 q 185 390 168 400 q 153 271 153 333 l 162 265 q 269 239 216 239 l 273 239 q 304 119 273 176 q 423 151 367 119 l 424 151 q 439 129 434 135 q 454 111 441 125 q 484 82 475 89 q 511 64 503 68 l 512 64 q 598 151 568 96 l 599 151 q 718 119 656 119 q 720 121 718 119 q 750 236 750 178 l 750 239 q 869 271 812 239 q 838 389 869 333 l 838 390 l 852 398 q 879 420 863 406 q 906 450 899 439 q 925 477 922 469 l 925 478 q 838 564 892 534 l 838 565 q 869 684 869 623 q 868 686 869 684 q 753 716 811 716 l 750 716 q 718 836 750 779 q 600 804 656 836 l 599 804 l 591 818 q 569 845 583 829 q 539 872 550 865 q 511 891 519 888 l 511 891 z "},"r":{"ha":1023,"x_min":34,"x_max":989,"o":"m 524 720 q 390 680 446 720 q 364 659 380 674 q 343 633 349 642 q 311 534 311 585 q 335 450 311 483 q 354 430 340 440 q 376 418 371 418 l 378 418 q 383 420 380 418 q 387 429 387 422 q 395 458 395 454 q 391 465 395 460 q 370 525 370 489 q 399 615 370 576 q 421 637 408 627 q 515 669 462 669 q 604 642 570 669 q 641 555 641 608 q 622 458 641 502 q 610 435 616 444 q 546 396 583 396 q 515 406 529 396 q 498 441 498 420 l 498 443 q 507 484 498 452 q 526 559 526 539 q 520 584 526 573 q 486 604 509 604 q 446 585 463 604 q 427 528 427 561 q 437 480 427 502 l 401 328 q 393 265 393 298 l 393 260 q 397 205 393 235 q 401 200 397 201 l 401 200 q 403 200 402 200 q 413 212 405 202 q 440 256 430 237 q 457 293 449 272 q 479 381 465 319 q 487 371 482 377 q 501 359 496 363 q 552 344 526 344 q 554 345 553 345 l 555 345 q 606 354 580 345 q 678 415 649 372 q 713 549 713 472 q 703 606 713 578 q 631 692 682 661 q 524 720 583 720 m 511 955 l 511 955 q 544 933 521 951 q 578 902 556 924 q 603 870 594 883 l 612 854 l 613 854 q 750 891 679 891 q 787 753 787 825 l 790 753 q 923 718 857 753 q 925 715 925 716 q 888 578 925 645 l 888 578 q 989 478 951 542 l 989 477 q 967 445 985 468 q 936 411 958 433 q 904 386 917 395 l 888 376 l 888 376 q 925 239 925 311 q 787 201 859 201 l 787 199 q 751 66 787 132 q 749 64 750 64 q 612 100 679 64 l 612 100 q 512 0 576 38 l 511 0 q 480 21 502 5 q 445 54 469 29 q 427 75 431 70 q 410 100 422 82 l 410 100 q 273 64 345 64 q 235 201 235 130 l 231 201 q 109 233 171 201 l 98 239 q 135 376 98 311 q 92 407 115 388 q 64 435 71 427 q 36 473 45 457 q 34 477 34 477 q 135 578 71 541 q 98 716 98 644 q 235 753 163 753 l 235 756 q 273 891 235 825 q 273 891 273 891 q 410 854 345 891 q 511 955 447 918 m 511 891 q 424 804 455 859 q 304 836 367 836 q 304 836 304 836 q 273 719 273 779 l 273 716 q 153 684 210 716 q 185 565 153 623 q 98 477 130 533 q 100 474 98 477 q 124 441 108 460 q 148 416 130 433 q 185 390 168 400 q 153 271 153 333 l 162 265 q 269 239 216 239 l 273 239 q 304 119 273 176 q 423 151 367 119 l 424 151 q 439 129 434 135 q 454 111 441 125 q 484 82 475 89 q 511 64 503 68 l 512 64 q 598 151 568 96 l 599 151 q 718 119 656 119 q 720 121 718 119 q 750 236 750 178 l 750 239 q 869 271 812 239 q 838 389 869 333 l 838 390 l 852 398 q 879 420 863 406 q 906 450 899 439 q 925 477 922 469 l 925 478 q 838 564 892 534 l 838 565 q 869 684 869 623 q 868 686 869 684 q 753 716 811 716 l 750 716 q 718 836 750 779 q 600 804 656 836 l 599 804 l 591 818 q 569 845 583 829 q 539 872 550 865 q 511 891 519 888 l 511 891 z "},"s":{"ha":1023,"x_min":34,"x_max":989,"o":"m 244 477 q 274 392 244 430 q 297 369 288 376 q 363 348 328 348 l 363 348 q 445 383 410 348 q 472 425 465 404 q 482 477 482 450 q 447 568 482 528 q 425 588 434 583 q 363 606 396 606 q 282 572 318 606 q 244 477 244 531 m 543 479 q 580 387 543 427 q 608 366 596 371 q 662 352 635 352 l 667 352 q 738 377 704 352 q 762 401 754 391 q 787 476 787 438 l 787 481 q 760 559 787 522 q 698 602 737 589 q 665 606 680 606 q 578 568 616 606 q 543 479 543 529 m 511 955 l 511 955 q 544 933 521 951 q 578 902 556 924 q 603 870 594 883 l 612 854 l 613 854 q 750 891 679 891 q 787 753 787 825 l 790 753 q 923 718 857 753 q 925 715 925 716 q 888 578 925 645 l 888 578 q 989 478 951 542 l 989 477 q 967 445 985 468 q 936 411 958 433 q 904 386 917 395 l 888 376 l 888 376 q 925 239 925 311 q 787 201 859 201 l 787 199 q 751 66 787 132 q 749 64 750 64 q 612 100 679 64 l 612 100 q 512 0 576 38 l 511 0 q 480 21 502 5 q 445 54 469 29 q 427 75 431 70 q 410 100 422 82 l 410 100 q 273 64 345 64 q 235 201 235 130 l 231 201 q 109 233 171 201 l 98 239 q 135 376 98 311 q 92 407 115 388 q 64 435 71 427 q 36 473 45 457 q 34 477 34 477 q 135 578 71 541 q 98 716 98 644 q 235 753 163 753 l 235 756 q 273 891 235 825 q 273 891 273 891 q 410 854 345 891 q 511 955 447 918 m 511 891 q 424 804 455 859 q 304 836 367 836 q 304 836 304 836 q 273 719 273 779 l 273 716 q 153 684 210 716 q 185 565 153 623 q 98 477 130 533 q 100 474 98 477 q 124 441 108 460 q 148 416 130 433 q 185 390 168 400 q 153 271 153 333 l 162 265 q 269 239 216 239 l 273 239 q 304 119 273 176 q 423 151 367 119 l 424 151 q 439 129 434 135 q 454 111 441 125 q 484 82 475 89 q 511 64 503 68 l 512 64 q 598 151 568 96 l 599 151 q 718 119 656 119 q 720 121 718 119 q 750 236 750 178 l 750 239 q 869 271 812 239 q 838 389 869 333 l 838 390 l 852 398 q 879 420 863 406 q 906 450 899 439 q 925 477 922 469 l 925 478 q 838 564 892 534 l 838 565 q 869 684 869 623 q 868 686 869 684 q 753 716 811 716 l 750 716 q 718 836 750 779 q 600 804 656 836 l 599 804 l 591 818 q 569 845 583 829 q 539 872 550 865 q 511 891 519 888 l 511 891 z "},"t":{"ha":1023,"x_min":34,"x_max":989,"o":"m 296 644 q 315 604 296 621 q 349 592 330 592 q 390 612 373 592 q 401 644 401 626 q 378 688 401 671 q 349 696 363 696 q 309 677 326 696 q 296 644 296 663 m 538 513 l 537 513 q 537 513 537 513 l 537 552 l 450 552 l 450 262 l 541 262 l 541 397 q 546 448 541 435 q 593 479 557 479 l 594 479 q 594 479 594 479 l 595 479 l 597 479 q 635 455 624 479 q 640 436 640 441 q 641 393 641 429 l 641 262 l 732 262 l 732 424 q 706 528 732 498 q 623 559 681 559 q 558 537 587 559 q 545 522 547 527 q 538 513 541 517 m 304 552 l 304 262 l 394 262 l 394 552 l 304 552 m 511 955 l 511 955 q 544 933 521 951 q 578 902 556 924 q 603 870 594 883 l 612 854 l 613 854 q 750 891 679 891 q 787 753 787 825 l 790 753 q 923 718 857 753 q 925 715 925 716 q 888 578 925 645 l 888 578 q 989 478 951 542 l 989 477 q 967 445 985 468 q 936 411 958 433 q 904 386 917 395 l 888 376 l 888 376 q 925 239 925 311 q 787 201 859 201 l 787 199 q 751 66 787 132 q 749 64 750 64 q 612 100 679 64 l 612 100 q 512 0 576 38 l 511 0 q 480 21 502 5 q 445 54 469 29 q 427 75 431 70 q 410 100 422 82 l 410 100 q 273 64 345 64 q 235 201 235 130 l 231 201 q 109 233 171 201 l 98 239 q 135 376 98 311 q 92 407 115 388 q 64 435 71 427 q 36 473 45 457 q 34 477 34 477 q 135 578 71 541 q 98 716 98 644 q 235 753 163 753 l 235 756 q 273 891 235 825 q 273 891 273 891 q 410 854 345 891 q 511 955 447 918 m 511 891 q 424 804 455 859 q 304 836 367 836 q 304 836 304 836 q 273 719 273 779 l 273 716 q 153 684 210 716 q 185 565 153 623 q 98 477 130 533 q 100 474 98 477 q 124 441 108 460 q 148 416 130 433 q 185 390 168 400 q 153 271 153 333 l 162 265 q 269 239 216 239 l 273 239 q 304 119 273 176 q 423 151 367 119 l 424 151 q 439 129 434 135 q 454 111 441 125 q 484 82 475 89 q 511 64 503 68 l 512 64 q 598 151 568 96 l 599 151 q 718 119 656 119 q 720 121 718 119 q 750 236 750 178 l 750 239 q 869 271 812 239 q 838 389 869 333 l 838 390 l 852 398 q 879 420 863 406 q 906 450 899 439 q 925 477 922 469 l 925 478 q 838 564 892 534 l 838 565 q 869 684 869 623 q 868 686 869 684 q 753 716 811 716 l 750 716 q 718 836 750 779 q 600 804 656 836 l 599 804 l 591 818 q 569 845 583 829 q 539 872 550 865 q 511 891 519 888 l 511 891 z "},"u":{"ha":1023,"x_min":34,"x_max":989,"o":"m 460 724 q 457 721 458 724 q 453 697 456 707 q 446 672 450 684 q 430 641 439 655 q 420 626 427 634 q 408 614 418 624 q 389 600 398 605 q 363 586 376 591 q 357 584 357 584 l 357 519 q 358 518 357 518 l 408 518 l 408 354 q 417 307 408 330 q 472 240 434 263 q 555 218 508 218 l 557 218 q 625 233 591 218 q 642 241 634 237 q 648 248 644 243 q 623 320 645 256 l 617 318 q 583 311 597 311 l 580 311 q 547 323 559 311 q 534 361 534 337 l 534 518 l 635 518 q 635 519 635 518 l 635 595 q 635 595 635 595 l 534 595 l 534 723 q 534 724 534 724 l 460 724 m 511 955 l 511 955 q 544 933 521 951 q 578 902 556 924 q 603 870 594 883 l 612 854 l 613 854 q 750 891 679 891 q 787 753 787 825 l 790 753 q 923 718 857 753 q 925 715 925 716 q 888 578 925 645 l 888 578 q 989 478 951 542 l 989 477 q 967 445 985 468 q 936 411 958 433 q 904 386 917 395 l 888 376 l 888 376 q 925 239 925 311 q 787 201 859 201 l 787 199 q 751 66 787 132 q 749 64 750 64 q 612 100 679 64 l 612 100 q 512 0 576 38 l 511 0 q 480 21 502 5 q 445 54 469 29 q 427 75 431 70 q 410 100 422 82 l 410 100 q 273 64 345 64 q 235 201 235 130 l 231 201 q 109 233 171 201 l 98 239 q 135 376 98 311 q 92 407 115 388 q 64 435 71 427 q 36 473 45 457 q 34 477 34 477 q 135 578 71 541 q 98 716 98 644 q 235 753 163 753 l 235 756 q 273 891 235 825 q 273 891 273 891 q 410 854 345 891 q 511 955 447 918 m 511 891 q 424 804 455 859 q 304 836 367 836 q 304 836 304 836 q 273 719 273 779 l 273 716 q 153 684 210 716 q 185 565 153 623 q 98 477 130 533 q 100 474 98 477 q 124 441 108 460 q 148 416 130 433 q 185 390 168 400 q 153 271 153 333 l 162 265 q 269 239 216 239 l 273 239 q 304 119 273 176 q 423 151 367 119 l 424 151 q 439 129 434 135 q 454 111 441 125 q 484 82 475 89 q 511 64 503 68 l 512 64 q 598 151 568 96 l 599 151 q 718 119 656 119 q 720 121 718 119 q 750 236 750 178 l 750 239 q 869 271 812 239 q 838 389 869 333 l 838 390 l 852 398 q 879 420 863 406 q 906 450 899 439 q 925 477 922 469 l 925 478 q 838 564 892 534 l 838 565 q 869 684 869 623 q 868 686 869 684 q 753 716 811 716 l 750 716 q 718 836 750 779 q 600 804 656 836 l 599 804 l 591 818 q 569 845 583 829 q 539 872 550 865 q 511 891 519 888 l 511 891 z "},"v":{"ha":1023,"x_min":34,"x_max":989,"o":"m 480 626 q 429 621 443 626 q 420 614 426 619 q 414 606 414 608 l 414 605 q 414 604 414 605 q 423 602 420 603 q 440 589 435 597 q 444 580 442 585 q 446 566 446 574 q 448 534 448 545 l 448 532 q 448 532 448 532 q 448 531 448 532 l 448 528 q 442 486 448 500 q 430 474 439 474 q 385 524 416 474 q 349 596 363 560 q 338 609 345 606 q 328 612 331 612 q 251 612 317 612 q 240 610 245 612 q 233 600 233 608 l 233 600 q 234 593 233 597 q 279 500 255 545 q 321 432 299 465 q 355 389 335 412 q 379 363 366 376 q 401 347 391 353 q 435 330 418 336 q 497 317 469 317 l 531 317 q 540 319 534 317 q 549 327 547 321 q 551 336 551 328 q 556 371 551 356 q 561 380 558 376 q 574 388 567 388 l 575 388 q 604 367 586 388 q 629 340 618 351 q 642 328 637 330 q 675 315 661 315 l 676 315 q 680 316 678 315 l 751 317 q 760 317 753 317 q 777 334 777 322 l 777 336 q 776 342 777 338 q 768 357 772 349 q 743 386 762 366 q 725 406 737 393 q 704 425 708 421 q 688 450 688 440 l 688 450 q 698 473 688 458 q 732 517 698 473 q 777 599 777 578 l 777 599 q 776 606 777 603 q 756 612 772 612 l 754 612 q 748 612 751 612 l 667 612 q 663 612 664 612 q 659 610 661 612 q 649 602 653 609 q 639 578 644 589 q 621 541 629 555 q 564 475 581 475 l 564 475 q 561 475 562 475 q 551 509 551 483 l 551 509 q 551 541 551 532 q 552 587 551 578 q 549 610 552 604 q 538 621 546 616 q 531 622 532 622 q 487 626 520 626 l 480 626 m 511 955 l 511 955 q 544 933 521 951 q 578 902 556 924 q 603 870 594 883 l 612 854 l 613 854 q 750 891 679 891 q 787 753 787 825 l 790 753 q 923 718 857 753 q 925 715 925 716 q 888 578 925 645 l 888 578 q 989 478 951 542 l 989 477 q 967 445 985 468 q 936 411 958 433 q 904 386 917 395 l 888 376 l 888 376 q 925 239 925 311 q 787 201 859 201 l 787 199 q 751 66 787 132 q 749 64 750 64 q 612 100 679 64 l 612 100 q 512 0 576 38 l 511 0 q 480 21 502 5 q 445 54 469 29 q 427 75 431 70 q 410 100 422 82 l 410 100 q 273 64 345 64 q 235 201 235 130 l 231 201 q 109 233 171 201 l 98 239 q 135 376 98 311 q 92 407 115 388 q 64 435 71 427 q 36 473 45 457 q 34 477 34 477 q 135 578 71 541 q 98 716 98 644 q 235 753 163 753 l 235 756 q 273 891 235 825 q 273 891 273 891 q 410 854 345 891 q 511 955 447 918 m 511 891 q 424 804 455 859 q 304 836 367 836 q 304 836 304 836 q 273 719 273 779 l 273 716 q 153 684 210 716 q 185 565 153 623 q 98 477 130 533 q 100 474 98 477 q 124 441 108 460 q 148 416 130 433 q 185 390 168 400 q 153 271 153 333 l 162 265 q 269 239 216 239 l 273 239 q 304 119 273 176 q 423 151 367 119 l 424 151 q 439 129 434 135 q 454 111 441 125 q 484 82 475 89 q 511 64 503 68 l 512 64 q 598 151 568 96 l 599 151 q 718 119 656 119 q 720 121 718 119 q 750 236 750 178 l 750 239 q 869 271 812 239 q 838 389 869 333 l 838 390 l 852 398 q 879 420 863 406 q 906 450 899 439 q 925 477 922 469 l 925 478 q 838 564 892 534 l 838 565 q 869 684 869 623 q 868 686 869 684 q 753 716 811 716 l 750 716 q 718 836 750 779 q 600 804 656 836 l 599 804 l 591 818 q 569 845 583 829 q 539 872 550 865 q 511 891 519 888 l 511 891 z "},"w":{"ha":1023,"x_min":34,"x_max":989,"o":"m 511 647 q 418 646 471 647 q 342 642 370 644 q 319 640 326 642 q 293 629 304 637 q 281 617 286 623 q 272 597 277 610 q 264 572 269 589 q 260 490 260 526 l 260 451 q 263 381 260 421 q 267 358 264 368 q 277 334 271 342 q 301 309 283 317 q 315 304 307 306 q 334 300 321 302 q 381 297 343 298 q 513 294 471 294 q 609 296 550 294 q 698 301 686 298 q 718 307 709 303 q 729 313 723 310 q 739 324 734 317 q 749 344 745 332 q 755 368 753 353 q 762 451 762 414 l 762 490 q 756 572 762 527 q 750 595 753 589 q 736 621 745 610 q 728 629 730 628 q 714 636 722 633 q 701 640 709 638 q 665 644 690 642 q 511 647 589 647 m 458 547 q 569 489 461 545 q 595 476 594 477 l 572 464 q 458 406 570 464 l 458 406 l 458 547 m 511 955 l 511 955 q 544 933 521 951 q 578 902 556 924 q 603 870 594 883 l 612 854 l 613 854 q 750 891 679 891 q 787 753 787 825 l 790 753 q 923 718 857 753 q 925 715 925 716 q 888 578 925 645 l 888 578 q 989 478 951 542 l 989 477 q 967 445 985 468 q 936 411 958 433 q 904 386 917 395 l 888 376 l 888 376 q 925 239 925 311 q 787 201 859 201 l 787 199 q 751 66 787 132 q 749 64 750 64 q 612 100 679 64 l 612 100 q 512 0 576 38 l 511 0 q 480 21 502 5 q 445 54 469 29 q 427 75 431 70 q 410 100 422 82 l 410 100 q 273 64 345 64 q 235 201 235 130 l 231 201 q 109 233 171 201 l 98 239 q 135 376 98 311 q 92 407 115 388 q 64 435 71 427 q 36 473 45 457 q 34 477 34 477 q 135 578 71 541 q 98 716 98 644 q 235 753 163 753 l 235 756 q 273 891 235 825 q 273 891 273 891 q 410 854 345 891 q 511 955 447 918 m 511 891 q 424 804 455 859 q 304 836 367 836 q 304 836 304 836 q 273 719 273 779 l 273 716 q 153 684 210 716 q 185 565 153 623 q 98 477 130 533 q 100 474 98 477 q 124 441 108 460 q 148 416 130 433 q 185 390 168 400 q 153 271 153 333 l 162 265 q 269 239 216 239 l 273 239 q 304 119 273 176 q 423 151 367 119 l 424 151 q 439 129 434 135 q 454 111 441 125 q 484 82 475 89 q 511 64 503 68 l 512 64 q 598 151 568 96 l 599 151 q 718 119 656 119 q 720 121 718 119 q 750 236 750 178 l 750 239 q 869 271 812 239 q 838 389 869 333 l 838 390 l 852 398 q 879 420 863 406 q 906 450 899 439 q 925 477 922 469 l 925 478 q 838 564 892 534 l 838 565 q 869 684 869 623 q 868 686 869 684 q 753 716 811 716 l 750 716 q 718 836 750 779 q 600 804 656 836 l 599 804 l 591 818 q 569 845 583 829 q 539 872 550 865 q 511 891 519 888 l 511 891 z "},"x":{"ha":1023,"x_min":34,"x_max":989,"o":"m 511 955 l 511 955 q 544 933 521 951 q 578 902 556 924 q 603 870 594 883 l 612 854 l 613 854 q 750 891 679 891 q 787 753 787 825 l 790 753 q 923 718 857 753 q 925 715 925 716 q 888 578 925 645 l 888 578 q 989 478 951 542 l 989 477 q 967 445 985 468 q 936 411 958 433 q 904 386 917 395 l 888 376 l 888 376 q 925 239 925 311 q 787 201 859 201 l 787 199 q 751 66 787 132 q 749 64 750 64 q 612 100 679 64 l 612 100 q 512 0 576 38 l 511 0 q 480 21 502 5 q 445 54 469 29 q 427 75 431 70 q 410 100 422 82 l 410 100 q 273 64 345 64 q 235 201 235 130 l 231 201 q 109 233 171 201 l 98 239 q 135 376 98 311 q 92 407 115 388 q 64 435 71 427 q 36 473 45 457 q 34 477 34 477 q 135 578 71 541 q 98 716 98 644 q 235 753 163 753 l 235 756 q 273 891 235 825 q 273 891 273 891 q 410 854 345 891 q 511 955 447 918 m 511 891 q 424 804 455 859 q 304 836 367 836 q 304 836 304 836 q 273 719 273 779 l 273 716 q 153 684 210 716 q 185 565 153 623 q 98 477 130 533 q 100 474 98 477 q 124 441 108 460 q 148 416 130 433 q 185 390 168 400 q 153 271 153 333 l 162 265 q 269 239 216 239 l 273 239 q 304 119 273 176 q 423 151 367 119 l 424 151 q 439 129 434 135 q 454 111 441 125 q 484 82 475 89 q 511 64 503 68 l 512 64 q 598 151 568 96 l 599 151 q 718 119 656 119 q 720 121 718 119 q 750 236 750 178 l 750 239 q 869 271 812 239 q 838 389 869 333 l 838 390 l 852 398 q 879 420 863 406 q 906 450 899 439 q 925 477 922 469 l 925 478 q 838 564 892 534 l 838 565 q 869 684 869 623 q 868 686 869 684 q 753 716 811 716 l 750 716 q 718 836 750 779 q 600 804 656 836 l 599 804 l 591 818 q 569 845 583 829 q 539 872 550 865 q 511 891 519 888 l 511 891 m 508 735 l 522 735 q 612 704 570 735 q 642 671 634 686 q 661 628 659 644 q 664 587 664 612 q 661 519 664 570 q 675 515 668 515 q 705 523 686 515 q 711 524 707 524 q 734 511 726 524 q 734 506 734 507 q 688 476 734 490 q 665 450 665 467 l 665 450 q 694 394 665 433 q 726 361 711 373 q 785 336 756 340 q 792 329 792 334 q 719 297 792 309 q 709 267 716 297 q 701 261 706 261 l 669 266 q 658 267 664 267 l 657 267 q 602 250 623 267 q 561 223 576 230 q 517 213 541 213 l 511 213 q 440 239 475 213 q 384 265 406 265 q 370 267 379 267 q 328 261 358 267 q 316 279 318 261 q 307 298 313 298 q 259 309 276 303 q 236 328 236 319 l 236 329 q 248 336 236 336 q 281 349 254 336 q 317 375 298 357 q 350 417 341 399 q 363 450 363 439 q 321 482 363 472 q 294 506 294 493 q 313 524 294 518 l 316 524 q 335 517 320 524 q 352 515 344 515 q 367 519 361 515 q 364 585 364 566 l 364 591 q 382 665 364 640 q 456 726 405 707 q 508 735 482 735 z "},"y":{"ha":1023,"x_min":34,"x_max":989,"o":"m 572 709 q 525 701 547 709 q 477 661 492 688 q 460 596 460 633 l 460 530 l 385 530 q 385 530 385 530 l 385 444 q 385 444 385 444 l 460 444 l 460 220 q 460 220 460 220 l 550 220 q 550 220 550 220 l 550 444 l 625 444 q 636 530 626 447 q 636 530 636 530 l 550 530 l 550 579 q 552 604 550 599 q 556 613 552 606 q 572 625 561 621 q 600 628 579 628 l 640 628 q 640 629 640 628 l 640 706 l 640 706 q 574 709 608 709 l 572 709 m 511 955 q 650 816 604 863 q 849 815 812 815 l 849 814 l 849 668 q 849 618 849 652 q 989 477 983 484 q 850 338 897 385 q 849 140 849 177 l 848 140 l 702 140 q 652 140 686 140 q 511 0 517 5 q 372 139 420 91 q 174 140 211 140 l 174 140 l 174 287 q 174 337 174 303 q 34 477 39 471 q 173 616 125 569 q 174 815 174 778 l 174 815 l 321 815 q 371 815 337 815 q 511 955 505 949 m 511 890 q 391 769 506 885 q 347 769 361 769 l 220 769 l 220 769 q 220 597 220 736 q 100 477 178 557 q 220 357 104 472 q 220 313 220 328 l 220 186 l 220 186 q 391 186 252 186 q 511 66 432 144 q 632 186 517 70 q 675 186 661 186 l 802 186 l 803 186 q 803 357 803 218 q 924 477 844 397 q 803 598 919 483 q 803 642 803 627 l 803 768 l 803 769 q 631 769 770 769 q 511 890 591 810 z "},"z":{"ha":1023,"x_min":34,"x_max":989,"o":"m 507 577 l 507 574 q 509 553 507 566 l 509 553 q 467 558 498 553 q 420 573 440 565 q 372 597 398 582 q 330 632 354 610 q 307 656 317 644 q 294 608 294 632 l 294 604 q 317 544 294 573 q 337 526 330 530 q 337 525 337 526 l 337 525 q 294 537 317 525 l 294 535 q 323 466 294 496 q 358 445 342 449 q 370 441 369 441 l 370 441 q 360 437 370 439 q 350 436 354 436 l 348 436 q 347 436 347 436 l 345 436 l 345 436 q 328 438 337 436 q 368 387 340 404 q 419 371 393 371 l 419 371 l 419 371 q 391 353 404 359 q 302 329 346 329 l 294 329 q 275 330 285 329 q 334 302 302 313 q 425 286 379 286 q 562 321 499 286 q 606 352 582 332 q 636 382 628 372 q 669 432 656 407 q 687 471 679 449 q 703 560 703 519 l 703 574 l 703 578 q 730 602 711 583 q 751 627 743 616 l 751 627 l 751 627 q 713 615 732 620 q 696 612 698 612 l 696 613 q 716 629 702 616 q 738 667 733 648 q 699 648 719 656 q 676 643 680 643 q 655 659 662 656 q 606 673 631 673 l 605 673 q 536 646 566 673 q 507 577 507 616 m 511 955 q 650 816 604 863 q 849 815 812 815 l 849 814 l 849 668 q 849 618 849 652 q 989 477 983 484 q 850 338 897 385 q 849 140 849 177 l 848 140 l 702 140 q 652 140 686 140 q 511 0 517 5 q 372 139 420 91 q 174 140 211 140 l 174 140 l 174 287 q 174 337 174 303 q 34 477 39 471 q 173 616 125 569 q 174 815 174 778 l 174 815 l 321 815 q 371 815 337 815 q 511 955 505 949 m 511 890 q 391 769 506 885 q 347 769 361 769 l 220 769 l 220 769 q 220 597 220 736 q 100 477 178 557 q 220 357 104 472 q 220 313 220 328 l 220 186 l 220 186 q 391 186 252 186 q 511 66 432 144 q 632 186 517 70 q 675 186 661 186 l 802 186 l 803 186 q 803 357 803 218 q 924 477 844 397 q 803 598 919 483 q 803 642 803 627 l 803 768 l 803 769 q 631 769 770 769 q 511 890 591 810 z "},"{":{"ha":1023,"x_min":34,"x_max":989,"o":"m 511 955 q 650 816 604 863 q 849 815 812 815 l 849 814 l 849 668 q 849 618 849 652 q 989 477 983 484 q 850 338 897 385 q 849 140 849 177 l 848 140 l 702 140 q 652 140 686 140 q 511 0 517 5 q 372 139 420 91 q 174 140 211 140 l 174 140 l 174 287 q 174 337 174 303 q 34 477 39 471 q 173 616 125 569 q 174 815 174 778 l 174 815 l 321 815 q 371 815 337 815 q 511 955 505 949 m 511 890 q 391 769 506 885 q 347 769 361 769 l 220 769 l 220 769 q 220 597 220 736 q 100 477 178 557 q 220 357 104 472 q 220 313 220 328 l 220 186 l 220 186 q 391 186 252 186 q 511 66 432 144 q 632 186 517 70 q 675 186 661 186 l 802 186 l 803 186 q 803 357 803 218 q 924 477 844 397 q 803 598 919 483 q 803 642 803 627 l 803 768 l 803 769 q 631 769 770 769 q 511 890 591 810 m 408 647 l 411 647 q 412 647 412 647 q 414 647 413 647 l 419 647 q 527 605 472 647 l 527 604 q 490 564 517 592 q 484 559 484 560 l 483 559 q 410 583 448 583 q 348 562 375 583 q 336 551 345 559 q 321 531 326 539 q 307 475 307 505 q 332 404 307 434 q 346 391 341 394 q 412 367 374 367 q 479 389 449 367 q 495 406 491 400 q 505 423 503 416 q 511 440 511 437 l 511 440 q 412 441 418 441 l 412 441 l 412 500 q 412 500 412 500 l 525 500 q 576 500 543 500 l 576 500 q 578 479 578 488 l 578 476 q 515 336 578 385 q 488 319 499 325 q 415 304 452 304 l 412 304 q 321 330 363 304 q 251 417 272 361 q 241 471 241 444 l 241 473 q 242 503 241 486 q 248 526 245 516 q 312 614 265 580 q 408 647 357 647 m 684 549 l 732 549 l 732 549 l 732 500 q 781 500 769 500 l 781 500 l 781 451 l 781 451 q 732 450 742 450 q 732 401 732 418 l 732 401 l 684 401 l 683 401 q 683 406 683 405 q 683 450 683 415 q 634 451 640 451 l 634 451 l 634 500 l 634 500 q 683 500 678 500 q 683 549 683 517 l 684 549 z "},"|":{"ha":1023,"x_min":34,"x_max":989,"o":"m 304 598 l 304 356 q 314 312 304 327 q 330 291 316 304 q 386 269 353 269 l 642 269 q 700 293 675 269 q 723 353 723 316 l 723 602 q 708 653 723 633 q 682 676 696 669 q 642 687 664 687 l 385 687 q 323 657 348 687 q 307 623 311 644 q 304 598 304 616 m 675 639 l 675 639 l 675 568 q 675 568 675 568 l 665 568 q 604 567 646 568 l 604 568 l 604 639 q 604 639 604 639 q 675 639 617 639 m 512 551 l 515 551 q 569 526 545 551 q 587 477 587 505 q 568 427 587 450 q 514 404 545 404 q 458 430 481 404 q 440 478 440 452 q 461 529 440 506 q 512 551 484 551 m 345 521 l 407 521 q 408 520 408 521 q 399 478 399 500 q 437 392 399 429 q 511 363 472 363 l 516 363 q 588 391 555 363 q 606 411 602 404 q 629 476 629 441 l 629 479 q 620 521 629 499 l 620 521 l 682 521 q 682 520 682 521 l 682 348 q 663 315 682 329 q 637 309 654 309 l 391 309 q 363 316 372 309 q 353 325 361 316 q 345 349 345 336 l 345 520 q 345 521 345 521 m 511 955 q 650 816 604 863 q 849 815 812 815 l 849 814 l 849 668 q 849 618 849 652 q 989 477 983 484 q 850 338 897 385 q 849 140 849 177 l 848 140 l 702 140 q 652 140 686 140 q 511 0 517 5 q 372 139 420 91 q 174 140 211 140 l 174 140 l 174 287 q 174 337 174 303 q 34 477 39 471 q 173 616 125 569 q 174 815 174 778 l 174 815 l 321 815 q 371 815 337 815 q 511 955 505 949 m 511 890 q 391 769 506 885 q 347 769 361 769 l 220 769 l 220 769 q 220 597 220 736 q 100 477 178 557 q 220 357 104 472 q 220 313 220 328 l 220 186 l 220 186 q 391 186 252 186 q 511 66 432 144 q 632 186 517 70 q 675 186 661 186 l 802 186 l 803 186 q 803 357 803 218 q 924 477 844 397 q 803 598 919 483 q 803 642 803 627 l 803 768 l 803 769 q 631 769 770 769 q 511 890 591 810 z "},"}":{"ha":1023,"x_min":34,"x_max":989,"o":"m 530 714 q 404 677 457 714 q 380 657 395 671 q 361 633 366 642 q 330 540 330 587 q 352 461 330 492 q 370 443 358 452 q 391 433 387 433 l 393 433 q 398 433 395 433 q 401 442 401 436 q 408 469 408 465 q 405 475 408 471 q 385 532 385 498 q 413 616 385 580 q 433 637 421 627 q 521 667 471 667 q 604 640 572 667 q 638 559 638 609 q 621 469 638 509 q 609 447 614 456 q 549 411 584 411 q 521 421 534 411 q 505 453 505 433 l 505 455 q 513 493 505 464 q 530 564 530 545 q 526 587 530 576 q 493 606 515 606 q 457 587 473 606 q 439 534 439 565 q 448 490 439 509 l 414 347 q 408 289 408 319 l 408 284 q 411 233 408 260 q 414 228 411 229 l 414 228 q 416 228 415 228 q 425 239 418 230 q 451 280 441 262 q 467 315 459 296 q 487 397 473 340 q 495 387 490 393 q 508 377 503 380 q 555 362 531 362 q 557 363 557 363 l 558 363 q 606 372 582 363 q 673 429 646 388 q 707 554 707 483 q 697 608 707 581 q 629 687 676 658 q 530 714 585 714 m 511 955 q 650 816 604 863 q 849 815 812 815 l 849 814 l 849 668 q 849 618 849 652 q 989 477 983 484 q 850 338 897 385 q 849 140 849 177 l 848 140 l 702 140 q 652 140 686 140 q 511 0 517 5 q 372 139 420 91 q 174 140 211 140 l 174 140 l 174 287 q 174 337 174 303 q 34 477 39 471 q 173 616 125 569 q 174 815 174 778 l 174 815 l 321 815 q 371 815 337 815 q 511 955 505 949 m 511 890 q 391 769 506 885 q 347 769 361 769 l 220 769 l 220 769 q 220 597 220 736 q 100 477 178 557 q 220 357 104 472 q 220 313 220 328 l 220 186 l 220 186 q 391 186 252 186 q 511 66 432 144 q 632 186 517 70 q 675 186 661 186 l 802 186 l 803 186 q 803 357 803 218 q 924 477 844 397 q 803 598 919 483 q 803 642 803 627 l 803 768 l 803 769 q 631 769 770 769 q 511 890 591 810 z "},"~":{"ha":1023,"x_min":34,"x_max":989,"o":"m 250 474 q 278 392 250 429 q 300 370 292 376 q 363 349 330 349 l 364 349 q 442 383 409 349 q 469 423 463 404 q 479 474 479 448 q 446 562 479 524 q 425 580 433 575 q 363 598 396 598 q 286 564 321 598 q 250 474 250 526 m 536 474 q 572 384 536 423 q 600 363 589 370 q 652 351 627 351 l 657 351 q 725 376 692 351 q 749 399 741 388 q 772 471 772 434 l 772 476 q 746 550 772 515 q 687 591 724 580 q 654 596 669 596 q 571 560 607 596 q 536 474 536 522 m 511 955 q 650 816 604 863 q 849 815 812 815 l 849 814 l 849 668 q 849 618 849 652 q 989 477 983 484 q 850 338 897 385 q 849 140 849 177 l 848 140 l 702 140 q 652 140 686 140 q 511 0 517 5 q 372 139 420 91 q 174 140 211 140 l 174 140 l 174 287 q 174 337 174 303 q 34 477 39 471 q 173 616 125 569 q 174 815 174 778 l 174 815 l 321 815 q 371 815 337 815 q 511 955 505 949 m 511 890 q 391 769 506 885 q 347 769 361 769 l 220 769 l 220 769 q 220 597 220 736 q 100 477 178 557 q 220 357 104 472 q 220 313 220 328 l 220 186 l 220 186 q 391 186 252 186 q 511 66 432 144 q 632 186 517 70 q 675 186 661 186 l 802 186 l 803 186 q 803 357 803 218 q 924 477 844 397 q 803 598 919 483 q 803 642 803 627 l 803 768 l 803 769 q 631 769 770 769 q 511 890 591 810 z "},"":{"ha":1023,"x_min":34,"x_max":989,"o":"m 280 650 q 300 608 280 625 q 336 595 316 595 q 380 616 361 595 q 391 651 391 632 q 366 697 391 679 q 336 707 352 707 q 294 687 311 707 q 280 650 280 671 m 537 511 l 536 511 q 536 511 536 511 l 536 553 l 444 553 l 444 243 l 540 243 l 540 387 q 546 442 540 428 q 596 475 559 475 l 597 475 q 598 475 598 475 l 600 475 l 600 475 q 641 450 629 475 q 646 429 646 435 q 648 383 648 422 l 648 243 l 744 243 l 744 416 q 716 527 744 495 q 627 561 690 561 q 559 537 589 561 q 545 521 548 526 q 537 511 540 515 m 288 553 l 288 243 l 385 243 l 385 553 l 288 553 m 511 955 q 650 816 604 863 q 849 815 812 815 l 849 814 l 849 668 q 849 618 849 652 q 989 477 983 484 q 850 338 897 385 q 849 140 849 177 l 848 140 l 702 140 q 652 140 686 140 q 511 0 517 5 q 372 139 420 91 q 174 140 211 140 l 174 140 l 174 287 q 174 337 174 303 q 34 477 39 471 q 173 616 125 569 q 174 815 174 778 l 174 815 l 321 815 q 371 815 337 815 q 511 955 505 949 m 511 890 q 391 769 506 885 q 347 769 361 769 l 220 769 l 220 769 q 220 597 220 736 q 100 477 178 557 q 220 357 104 472 q 220 313 220 328 l 220 186 l 220 186 q 391 186 252 186 q 511 66 432 144 q 632 186 517 70 q 675 186 661 186 l 802 186 l 803 186 q 803 357 803 218 q 924 477 844 397 q 803 598 919 483 q 803 642 803 627 l 803 768 l 803 769 q 631 769 770 769 q 511 890 591 810 z "},"":{"ha":1023,"x_min":34,"x_max":989,"o":"m 471 717 q 467 714 469 717 q 464 691 466 701 q 458 668 461 680 q 442 639 451 652 q 432 625 439 632 q 421 612 430 622 q 404 599 411 604 q 378 586 391 591 q 373 584 373 584 l 373 522 q 374 521 373 521 l 421 521 l 421 366 q 429 321 421 343 q 481 257 446 279 q 562 237 516 237 l 563 237 q 627 250 594 237 q 643 258 635 254 q 649 264 645 260 q 626 334 646 272 l 621 331 q 587 325 600 325 l 584 325 q 553 336 564 325 q 541 373 541 350 l 541 521 l 637 521 q 637 522 637 521 l 637 595 q 637 595 637 595 l 541 595 l 541 716 q 541 717 541 717 l 471 717 m 511 955 q 650 816 604 863 q 849 815 812 815 l 849 814 l 849 668 q 849 618 849 652 q 989 477 983 484 q 850 338 897 385 q 849 140 849 177 l 848 140 l 702 140 q 652 140 686 140 q 511 0 517 5 q 372 139 420 91 q 174 140 211 140 l 174 140 l 174 287 q 174 337 174 303 q 34 477 39 471 q 173 616 125 569 q 174 815 174 778 l 174 815 l 321 815 q 371 815 337 815 q 511 955 505 949 m 511 890 q 391 769 506 885 q 347 769 361 769 l 220 769 l 220 769 q 220 597 220 736 q 100 477 178 557 q 220 357 104 472 q 220 313 220 328 l 220 186 l 220 186 q 391 186 252 186 q 511 66 432 144 q 632 186 517 70 q 675 186 661 186 l 802 186 l 803 186 q 803 357 803 218 q 924 477 844 397 q 803 598 919 483 q 803 642 803 627 l 803 768 l 803 769 q 631 769 770 769 q 511 890 591 810 z "},"":{"ha":1023,"x_min":34,"x_max":989,"o":"m 494 595 q 450 590 463 595 q 443 586 447 590 q 437 578 437 580 l 437 577 q 437 576 437 577 q 444 574 443 575 q 460 564 456 570 q 463 555 462 560 q 465 543 464 551 q 466 516 466 526 l 466 515 q 466 514 466 515 q 466 513 466 513 l 466 511 q 462 475 466 488 q 451 464 458 464 q 412 507 438 464 q 380 570 393 538 q 372 581 376 578 q 363 584 365 583 q 296 583 353 583 q 286 581 292 583 q 280 573 280 579 l 280 573 q 281 567 280 570 q 320 488 300 525 q 357 427 338 456 q 386 390 368 410 q 407 368 395 379 q 426 355 418 360 q 455 339 441 345 q 509 328 484 328 l 538 328 q 545 330 541 328 q 553 336 552 332 q 555 344 555 338 q 560 375 555 362 q 565 383 562 380 q 576 389 570 389 l 576 389 q 602 372 585 389 q 622 349 613 357 q 635 337 631 340 q 663 327 649 327 l 663 327 q 667 328 666 327 l 729 328 q 735 329 731 328 q 751 343 751 332 l 751 343 q 750 350 751 347 q 743 363 747 356 q 722 388 737 371 q 705 405 717 394 q 688 422 691 419 q 673 444 673 434 l 673 444 q 682 463 673 451 q 711 501 682 464 q 751 572 751 554 l 751 572 q 750 578 751 575 q 733 583 746 583 l 731 583 q 726 583 728 583 l 655 583 q 652 583 654 583 q 648 582 650 583 q 640 574 644 581 q 631 554 635 564 q 616 522 622 534 q 567 465 582 465 l 567 465 q 564 466 565 465 q 555 494 555 471 l 555 495 q 555 522 555 515 q 556 562 556 554 q 553 582 556 576 q 545 590 551 587 q 538 592 539 592 q 500 595 529 595 l 494 595 m 511 955 q 650 816 604 863 q 849 815 812 815 l 849 814 l 849 668 q 849 618 849 652 q 989 477 983 484 q 850 338 897 385 q 849 140 849 177 l 848 140 l 702 140 q 652 140 686 140 q 511 0 517 5 q 372 139 420 91 q 174 140 211 140 l 174 140 l 174 287 q 174 337 174 303 q 34 477 39 471 q 173 616 125 569 q 174 815 174 778 l 174 815 l 321 815 q 371 815 337 815 q 511 955 505 949 m 511 890 q 391 769 506 885 q 347 769 361 769 l 220 769 l 220 769 q 220 597 220 736 q 100 477 178 557 q 220 357 104 472 q 220 313 220 328 l 220 186 l 220 186 q 391 186 252 186 q 511 66 432 144 q 632 186 517 70 q 675 186 661 186 l 802 186 l 803 186 q 803 357 803 218 q 924 477 844 397 q 803 598 919 483 q 803 642 803 627 l 803 768 l 803 769 q 631 769 770 769 q 511 890 591 810 z "},"":{"ha":1023,"x_min":34,"x_max":989,"o":"m 513 642 q 425 640 475 642 q 352 637 379 640 q 330 635 337 637 q 305 625 317 633 q 294 613 299 618 q 286 595 290 608 q 279 571 282 586 q 274 494 274 528 l 274 455 q 278 389 274 427 q 281 368 279 376 q 289 344 285 353 q 313 320 297 329 q 326 316 319 317 q 345 312 333 314 q 389 309 353 311 q 515 307 475 307 q 606 308 550 307 q 691 313 680 311 q 710 319 702 315 q 720 326 715 321 q 730 335 726 330 q 739 353 736 342 q 747 376 743 363 q 751 455 751 420 l 751 494 q 747 571 751 528 q 741 593 743 586 q 728 616 736 608 q 719 625 721 623 q 706 632 713 629 q 694 635 701 633 q 660 639 684 637 q 513 642 587 642 m 463 547 q 568 492 465 546 q 593 479 592 479 l 571 469 q 463 413 570 468 l 463 413 l 463 547 m 511 955 q 650 816 604 863 q 849 815 812 815 l 849 814 l 849 668 q 849 618 849 652 q 989 477 983 484 q 850 338 897 385 q 849 140 849 177 l 848 140 l 702 140 q 652 140 686 140 q 511 0 517 5 q 372 139 420 91 q 174 140 211 140 l 174 140 l 174 287 q 174 337 174 303 q 34 477 39 471 q 173 616 125 569 q 174 815 174 778 l 174 815 l 321 815 q 371 815 337 815 q 511 955 505 949 m 511 890 q 391 769 506 885 q 347 769 361 769 l 220 769 l 220 769 q 220 597 220 736 q 100 477 178 557 q 220 357 104 472 q 220 313 220 328 l 220 186 l 220 186 q 391 186 252 186 q 511 66 432 144 q 632 186 517 70 q 675 186 661 186 l 802 186 l 803 186 q 803 357 803 218 q 924 477 844 397 q 803 598 919 483 q 803 642 803 627 l 803 768 l 803 769 q 631 769 770 769 q 511 890 591 810 z "},"":{"ha":1023,"x_min":34,"x_max":989,"o":"m 511 955 q 650 816 604 863 q 849 815 812 815 l 849 814 l 849 668 q 849 618 849 652 q 989 477 983 484 q 850 338 897 385 q 849 140 849 177 l 848 140 l 702 140 q 652 140 686 140 q 511 0 517 5 q 372 139 420 91 q 174 140 211 140 l 174 140 l 174 287 q 174 337 174 303 q 34 477 39 471 q 173 616 125 569 q 174 815 174 778 l 174 815 l 321 815 q 371 815 337 815 q 511 955 505 949 m 511 890 q 391 769 506 885 q 347 769 361 769 l 220 769 l 220 769 q 220 597 220 736 q 100 477 178 557 q 220 357 104 472 q 220 313 220 328 l 220 186 l 220 186 q 391 186 252 186 q 511 66 432 144 q 632 186 517 70 q 675 186 661 186 l 802 186 l 803 186 q 803 357 803 218 q 924 477 844 397 q 803 598 919 483 q 803 642 803 627 l 803 768 l 803 769 q 631 769 770 769 q 511 890 591 810 m 505 720 l 517 720 q 604 690 564 720 q 633 659 625 672 q 650 618 648 633 q 653 579 653 602 q 650 513 653 562 q 663 510 657 510 q 692 517 673 510 q 698 518 694 518 q 720 507 711 518 q 720 501 720 503 q 676 473 720 486 q 654 449 654 465 l 654 449 q 682 395 654 433 q 713 364 698 375 q 768 340 741 344 q 775 333 775 338 q 705 303 775 315 q 696 274 703 303 q 688 269 693 269 l 657 273 q 648 274 653 274 l 646 274 q 594 258 614 274 q 555 233 569 239 q 513 223 536 223 l 508 223 q 440 248 473 223 q 387 273 408 273 q 374 274 382 274 q 333 269 362 274 q 322 286 324 269 q 313 304 319 304 q 268 315 284 309 q 246 333 246 324 l 246 333 q 257 340 246 340 q 290 352 263 340 q 323 377 305 360 q 355 417 346 401 q 367 449 367 439 q 327 479 367 469 q 300 502 300 490 q 319 518 300 513 l 322 518 q 340 512 326 518 q 356 510 349 510 q 371 513 365 510 q 368 577 368 558 l 368 583 q 385 652 368 629 q 455 711 407 692 q 505 720 480 720 z "},"":{"ha":896,"x_min":34,"x_max":862,"o":"m 513 735 q 463 726 486 735 q 410 683 427 712 q 393 613 393 652 l 393 543 l 312 543 q 312 543 312 543 l 312 449 q 312 449 312 449 l 393 449 l 393 209 q 393 209 393 209 l 490 209 q 490 209 490 209 l 490 449 l 570 449 q 583 543 571 452 q 583 543 583 543 l 490 543 l 490 595 q 492 622 490 616 q 496 631 492 624 q 513 645 501 640 q 543 648 521 648 l 586 648 q 586 648 586 648 l 586 731 l 586 732 q 516 735 553 735 l 513 735 m 448 955 l 710 804 l 862 716 l 862 716 q 862 239 862 498 q 532 48 701 146 q 448 0 450 1 l 448 0 l 186 151 l 34 239 l 34 239 q 34 716 34 456 q 364 907 195 809 q 448 955 446 954 l 448 955 m 448 898 q 374 855 446 897 q 83 688 225 770 q 83 267 83 459 l 83 267 l 217 190 l 448 57 l 448 57 q 522 100 450 58 q 812 267 671 185 q 812 688 812 496 l 812 688 l 679 765 l 448 898 l 448 898 z "},"":{"ha":896,"x_min":34,"x_max":862,"o":"m 445 576 l 445 574 q 448 551 445 564 l 447 551 q 401 557 435 551 q 349 572 372 563 q 297 599 326 582 q 250 637 276 612 q 226 663 237 650 q 212 611 212 637 l 212 606 q 237 539 212 572 q 258 521 250 525 q 258 520 258 521 l 258 520 q 211 533 237 520 l 211 530 q 243 454 211 488 q 281 431 263 436 q 296 427 293 427 l 296 427 q 284 423 296 425 q 273 422 276 422 l 271 422 q 269 422 269 422 l 267 422 l 267 422 q 248 424 258 422 q 292 367 261 387 q 349 350 320 350 l 349 350 l 349 350 q 317 330 332 337 q 220 304 269 304 l 212 304 q 190 305 201 304 q 256 273 220 286 q 355 257 304 257 q 506 294 436 257 q 553 329 528 307 q 587 363 578 351 q 623 418 609 389 q 643 461 633 436 q 660 558 660 513 l 660 574 l 660 576 q 690 603 669 583 q 713 632 705 619 l 713 632 l 713 632 q 671 618 692 624 q 653 616 654 616 l 653 616 q 675 633 659 619 q 699 675 693 655 q 655 655 678 663 q 631 649 635 649 q 608 667 616 663 q 553 683 582 683 l 552 683 q 477 652 509 683 q 445 576 445 619 m 448 955 l 710 804 l 862 716 l 862 716 q 862 239 862 498 q 532 48 701 146 q 448 0 450 1 l 448 0 l 186 151 l 34 239 l 34 239 q 34 716 34 456 q 364 907 195 809 q 448 955 446 954 l 448 955 m 448 898 q 374 855 446 897 q 83 688 225 770 q 83 267 83 459 l 83 267 l 217 190 l 448 57 l 448 57 q 522 100 450 58 q 812 267 671 185 q 812 688 812 496 l 812 688 l 679 765 l 448 898 l 448 898 z "},"":{"ha":896,"x_min":34,"x_max":862,"o":"m 448 955 l 710 804 l 862 716 l 862 716 q 862 239 862 498 q 532 48 701 146 q 448 0 450 1 l 448 0 l 186 151 l 34 239 l 34 239 q 34 716 34 456 q 364 907 195 809 q 448 955 446 954 l 448 955 m 448 898 q 374 855 446 897 q 83 688 225 770 q 83 267 83 459 l 83 267 l 217 190 l 448 57 l 448 57 q 522 100 450 58 q 812 267 671 185 q 812 688 812 496 l 812 688 l 679 765 l 448 898 l 448 898 m 331 668 l 334 668 q 335 668 334 668 q 336 668 336 668 l 343 668 q 466 620 404 668 l 466 619 q 423 574 454 605 q 416 568 417 568 l 416 568 q 333 595 376 595 q 262 570 292 595 q 248 559 257 567 q 231 535 236 545 q 214 472 214 506 q 243 391 214 425 q 259 376 254 379 q 335 348 291 348 q 412 374 377 348 q 429 393 425 386 q 441 412 438 404 q 447 432 447 428 l 447 432 q 335 433 342 433 l 335 433 l 335 500 q 335 500 335 500 l 464 500 q 523 500 485 500 l 523 500 q 524 476 524 486 l 524 473 q 453 313 524 368 q 421 294 434 300 q 338 276 381 276 l 335 276 q 231 305 279 276 q 151 406 175 342 q 139 467 139 437 l 139 470 q 141 503 139 484 q 147 530 144 519 q 220 631 167 591 q 331 668 272 668 m 645 556 l 700 556 l 700 556 l 701 500 q 757 500 743 500 l 757 500 l 757 444 l 757 444 q 701 444 711 444 q 700 388 701 406 l 700 388 l 645 388 l 644 388 q 644 393 644 392 q 644 444 644 404 q 588 444 595 444 l 588 444 l 588 500 l 588 500 q 644 500 639 500 q 644 556 644 519 l 645 556 z "},"":{"ha":896,"x_min":34,"x_max":862,"o":"m 222 605 l 222 345 q 232 298 222 315 q 248 276 235 290 q 309 252 274 252 l 583 252 q 646 277 619 252 q 670 342 670 302 l 670 608 q 654 664 670 642 q 626 688 641 681 q 584 700 607 700 l 308 700 q 241 667 269 700 q 224 631 229 654 q 222 605 222 623 m 618 648 l 618 648 l 618 572 q 618 572 618 572 l 608 572 q 543 572 587 572 l 543 572 l 543 648 q 543 648 543 648 q 618 648 557 648 m 444 555 l 448 555 q 505 528 480 555 q 525 474 525 505 q 504 422 525 446 q 446 397 479 397 q 386 425 412 397 q 367 475 367 448 q 389 530 367 506 q 444 555 414 555 m 266 522 l 332 522 q 332 521 332 522 q 323 475 323 499 q 364 384 323 423 q 443 353 402 353 l 449 353 q 526 383 490 353 q 545 404 540 395 q 568 473 568 437 l 568 477 q 559 522 568 498 l 559 522 l 626 522 q 627 521 627 522 l 627 336 q 606 302 627 316 q 578 295 597 295 l 315 295 q 285 302 294 295 q 274 312 283 302 q 265 338 265 324 l 265 521 q 266 522 266 522 m 448 955 l 710 804 l 862 716 l 862 716 q 862 239 862 498 q 532 48 701 146 q 448 0 450 1 l 448 0 l 186 151 l 34 239 l 34 239 q 34 716 34 456 q 364 907 195 809 q 448 955 446 954 l 448 955 m 448 898 q 374 855 446 897 q 83 688 225 770 q 83 267 83 459 l 83 267 l 217 190 l 448 57 l 448 57 q 522 100 450 58 q 812 267 671 185 q 812 688 812 496 l 812 688 l 679 765 l 448 898 l 448 898 z "},"":{"ha":896,"x_min":34,"x_max":862,"o":"m 465 746 q 328 705 385 746 q 301 683 317 699 q 279 656 286 667 q 247 555 247 608 q 271 470 247 503 q 290 450 277 460 q 313 438 308 438 l 315 438 q 320 439 317 438 q 325 449 324 442 q 332 478 332 474 q 328 485 332 481 q 306 547 306 510 q 337 639 306 599 q 359 662 346 650 q 455 694 401 694 q 545 665 511 694 q 583 577 583 632 q 564 478 583 523 q 551 455 557 465 q 487 415 524 415 q 455 426 469 415 q 437 461 437 439 l 437 463 q 447 505 437 473 q 465 581 465 561 q 460 607 465 595 q 425 627 449 627 q 385 608 401 627 q 366 549 366 583 q 375 501 366 523 l 339 346 q 331 281 331 315 l 331 276 q 334 220 331 250 q 338 215 334 216 l 339 215 q 340 215 340 215 q 351 227 342 217 q 378 272 368 252 q 395 310 387 288 q 418 400 404 337 q 427 389 421 395 q 441 378 435 381 q 493 362 467 362 q 494 363 494 363 l 496 363 q 548 372 522 363 q 621 435 592 390 q 658 571 658 493 q 647 630 658 601 q 574 717 625 685 q 465 746 525 746 m 448 955 l 710 804 l 862 716 l 862 716 q 862 239 862 498 q 532 48 701 146 q 448 0 450 1 l 448 0 l 186 151 l 34 239 l 34 239 q 34 716 34 456 q 364 907 195 809 q 448 955 446 954 l 448 955 m 448 898 q 374 855 446 897 q 83 688 225 770 q 83 267 83 459 l 83 267 l 217 190 l 448 57 l 448 57 q 522 100 450 58 q 812 267 671 185 q 812 688 812 496 l 812 688 l 679 765 l 448 898 l 448 898 z "},"":{"ha":896,"x_min":34,"x_max":862,"o":"m 173 472 q 203 385 173 424 q 227 361 217 368 q 295 339 260 339 l 296 339 q 379 376 343 339 q 408 418 399 397 q 418 472 418 444 q 382 566 418 525 q 359 586 368 581 q 295 605 329 605 q 212 569 249 605 q 173 472 173 528 m 479 474 q 518 379 479 420 q 548 357 535 363 q 603 343 576 343 l 608 343 q 681 369 646 343 q 706 394 697 382 q 731 471 731 432 l 731 477 q 703 556 731 517 q 640 600 680 587 q 606 605 621 605 q 516 566 555 605 q 479 474 479 526 m 448 955 l 710 804 l 862 716 l 862 716 q 862 239 862 498 q 532 48 701 146 q 448 0 450 1 l 448 0 l 186 151 l 34 239 l 34 239 q 34 716 34 456 q 364 907 195 809 q 448 955 446 954 l 448 955 m 448 898 q 374 855 446 897 q 83 688 225 770 q 83 267 83 459 l 83 267 l 217 190 l 448 57 l 448 57 q 522 100 450 58 q 812 267 671 185 q 812 688 812 496 l 812 688 l 679 765 l 448 898 l 448 898 z "},"":{"ha":896,"x_min":34,"x_max":862,"o":"m 220 666 q 240 624 220 642 q 275 611 256 611 q 319 633 301 611 q 330 667 330 648 q 306 713 330 694 q 275 722 291 722 q 233 701 250 722 q 220 666 220 686 m 475 526 l 475 526 q 475 527 475 526 l 475 569 l 383 569 l 383 262 l 478 262 l 478 404 q 484 460 478 445 q 534 492 496 492 l 534 492 q 534 492 534 492 l 536 492 l 538 492 q 578 466 566 492 q 583 446 583 452 q 585 401 585 439 l 585 262 l 680 262 l 680 433 q 653 543 680 511 q 564 576 627 576 q 497 553 527 576 q 481 537 485 542 q 475 526 478 532 m 227 569 l 227 262 l 323 262 l 323 569 l 227 569 m 448 955 l 710 804 l 862 716 l 862 716 q 862 239 862 498 q 532 48 701 146 q 448 0 450 1 l 448 0 l 186 151 l 34 239 l 34 239 q 34 716 34 456 q 364 907 195 809 q 448 955 446 954 l 448 955 m 448 898 q 374 855 446 897 q 83 688 225 770 q 83 267 83 459 l 83 267 l 217 190 l 448 57 l 448 57 q 522 100 450 58 q 812 267 671 185 q 812 688 812 496 l 812 688 l 679 765 l 448 898 l 448 898 z "},"":{"ha":896,"x_min":34,"x_max":862,"o":"m 404 752 q 401 749 402 752 q 397 724 399 734 q 389 697 393 710 q 372 664 382 680 q 361 648 368 656 q 349 635 359 646 q 329 620 338 626 q 300 605 315 611 q 295 603 295 603 l 295 534 q 296 534 295 534 l 349 534 l 349 359 q 359 309 349 334 q 416 238 376 262 q 505 215 454 215 l 507 215 q 579 230 543 215 q 597 239 589 234 q 604 246 599 241 q 578 323 601 254 l 572 321 q 534 313 549 313 l 531 313 q 496 327 509 313 q 483 367 483 341 l 483 534 l 590 534 q 590 534 590 534 l 590 615 q 590 615 590 615 l 483 615 l 483 751 q 483 752 483 752 l 404 752 m 448 955 l 710 804 l 862 716 l 862 716 q 862 239 862 498 q 532 48 701 146 q 448 0 450 1 l 448 0 l 186 151 l 34 239 l 34 239 q 34 716 34 456 q 364 907 195 809 q 448 955 446 954 l 448 955 m 448 898 q 374 855 446 897 q 83 688 225 770 q 83 267 83 459 l 83 267 l 217 190 l 448 57 l 448 57 q 522 100 450 58 q 812 267 671 185 q 812 688 812 496 l 812 688 l 679 765 l 448 898 l 448 898 z "},"":{"ha":896,"x_min":34,"x_max":862,"o":"m 418 619 q 370 614 382 619 q 360 608 366 613 q 354 600 354 602 l 354 598 q 354 597 354 598 q 363 596 361 597 q 380 584 375 591 q 383 574 382 580 q 386 561 385 569 q 387 530 387 541 l 387 528 q 387 528 387 528 q 387 526 387 527 l 387 524 q 382 483 387 497 q 370 471 378 471 q 326 519 355 471 q 290 590 304 555 q 280 603 286 600 q 271 606 273 606 q 195 606 259 606 q 184 604 190 606 q 177 595 177 602 l 177 594 q 178 587 177 591 q 222 497 199 540 q 264 430 242 461 q 296 388 277 410 q 320 363 307 375 q 342 347 332 353 q 374 330 358 336 q 435 317 408 317 l 468 317 q 477 319 471 317 q 486 327 484 322 q 488 336 487 329 q 493 371 488 356 q 498 380 495 376 q 511 387 504 387 l 511 387 q 540 366 522 387 q 563 340 554 351 q 577 328 572 330 q 609 316 594 316 l 610 316 q 614 317 612 316 l 684 317 q 691 319 686 317 q 709 334 709 323 l 709 336 q 708 342 709 338 q 699 357 705 349 q 676 385 694 366 q 658 404 670 392 q 638 423 641 420 q 622 447 622 437 l 622 448 q 631 469 622 456 q 665 513 631 470 q 709 593 709 572 l 709 593 q 708 599 709 597 q 688 606 703 606 l 686 606 q 680 606 684 606 l 601 606 q 597 606 599 606 q 593 604 595 606 q 584 596 588 603 q 574 572 578 583 q 555 536 564 550 q 502 471 518 471 l 502 471 q 497 473 499 471 q 487 505 487 479 l 487 506 q 488 537 488 528 q 489 581 489 572 q 486 604 489 597 q 476 614 483 610 q 468 616 470 616 q 425 619 458 619 l 418 619 m 448 955 l 710 804 l 862 716 l 862 716 q 862 239 862 498 q 532 48 701 146 q 448 0 450 1 l 448 0 l 186 151 l 34 239 l 34 239 q 34 716 34 456 q 364 907 195 809 q 448 955 446 954 l 448 955 m 448 898 q 374 855 446 897 q 83 688 225 770 q 83 267 83 459 l 83 267 l 217 190 l 448 57 l 448 57 q 522 100 450 58 q 812 267 671 185 q 812 688 812 496 l 812 688 l 679 765 l 448 898 l 448 898 z "},"":{"ha":896,"x_min":34,"x_max":862,"o":"m 452 652 q 361 650 412 652 q 286 647 313 650 q 264 646 269 647 q 237 633 248 642 q 225 623 231 628 q 216 604 221 616 q 210 578 212 594 q 204 498 204 533 l 204 458 q 208 388 204 429 q 212 366 210 376 q 220 342 216 351 q 244 318 228 326 q 258 312 250 315 q 277 309 265 311 q 323 306 286 308 q 454 303 413 303 q 550 304 492 303 q 637 309 627 308 q 658 316 649 311 q 669 322 663 319 q 679 332 673 327 q 688 351 684 341 q 695 376 692 361 q 701 458 701 421 l 701 498 q 695 578 701 534 q 690 602 692 594 q 676 625 685 616 q 667 634 669 633 q 654 641 661 638 q 640 646 649 644 q 606 648 630 647 q 452 652 530 652 m 401 553 q 510 496 403 552 q 535 483 534 484 l 513 471 q 401 413 512 471 l 401 413 l 401 553 m 448 955 l 710 804 l 862 716 l 862 716 q 862 239 862 498 q 532 48 701 146 q 448 0 450 1 l 448 0 l 186 151 l 34 239 l 34 239 q 34 716 34 456 q 364 907 195 809 q 448 955 446 954 l 448 955 m 448 898 q 374 855 446 897 q 83 688 225 770 q 83 267 83 459 l 83 267 l 217 190 l 448 57 l 448 57 q 522 100 450 58 q 812 267 671 185 q 812 688 812 496 l 812 688 l 679 765 l 448 898 l 448 898 z "},"":{"ha":896,"x_min":34,"x_max":862,"o":"m 448 955 l 710 804 l 862 716 l 862 716 q 862 239 862 498 q 532 48 701 146 q 448 0 450 1 l 448 0 l 186 151 l 34 239 l 34 239 q 34 716 34 456 q 364 907 195 809 q 448 955 446 954 l 448 955 m 448 898 q 374 855 446 897 q 83 688 225 770 q 83 267 83 459 l 83 267 l 217 190 l 448 57 l 448 57 q 522 100 450 58 q 812 267 671 185 q 812 688 812 496 l 812 688 l 679 765 l 448 898 l 448 898 m 439 740 l 454 740 q 545 709 503 740 q 576 675 568 689 q 595 631 593 648 q 598 590 598 614 q 595 520 598 572 q 610 515 602 515 q 639 524 620 515 q 646 525 642 525 q 669 512 661 525 q 670 507 670 508 q 623 477 670 491 q 600 451 600 467 l 600 451 q 629 393 600 433 q 662 361 646 372 q 721 334 692 338 q 728 328 728 332 q 654 295 728 307 q 644 264 651 295 q 635 258 641 258 l 603 263 q 592 264 598 264 l 591 264 q 535 246 556 264 q 494 220 508 227 q 449 210 473 210 l 443 210 q 371 236 406 210 q 314 262 336 262 q 300 264 309 264 q 256 258 287 264 q 245 276 247 258 q 235 296 241 296 q 186 307 204 301 q 163 327 163 317 l 163 328 q 176 335 163 334 q 210 347 182 335 q 246 374 227 356 q 279 417 270 399 q 292 451 292 439 q 250 483 292 472 q 222 507 222 494 q 242 525 222 519 l 245 525 q 264 518 249 525 q 281 515 273 515 q 296 520 290 515 q 294 588 294 568 l 294 593 q 311 668 294 643 q 387 730 335 711 q 439 740 413 740 z "},"":{"ha":1023,"x_min":34,"x_max":989,"o":"m 597 803 q 534 792 562 803 q 469 737 490 774 q 447 651 447 700 l 447 562 l 346 562 q 346 562 346 562 l 346 446 q 346 446 346 446 l 447 446 l 447 146 q 447 146 447 146 l 568 146 q 568 146 568 146 l 568 446 l 669 446 q 684 562 669 450 q 683 562 684 562 l 568 562 l 568 628 q 570 662 568 655 q 575 673 570 665 q 597 690 582 685 q 634 694 607 694 l 688 694 q 688 694 688 694 l 688 798 l 688 798 q 600 803 646 803 l 597 803 m 147 955 l 876 955 q 959 918 923 955 q 989 842 989 883 l 989 113 q 960 38 989 72 q 876 0 923 0 l 148 0 q 60 41 97 0 q 34 113 34 75 l 34 842 q 71 925 34 889 q 147 955 106 955 m 87 843 l 87 112 q 119 60 87 78 q 146 54 132 54 l 876 54 q 928 84 911 54 q 935 112 935 98 l 935 843 q 903 896 935 878 q 877 901 890 901 l 146 901 q 104 885 121 901 q 87 843 87 867 z "},"":{"ha":1023,"x_min":34,"x_max":989,"o":"m 508 594 l 508 591 q 511 564 508 580 l 511 564 q 455 570 496 564 q 393 589 420 578 q 330 622 363 601 q 274 667 305 637 q 244 699 258 683 q 227 636 227 667 l 227 631 q 258 550 227 589 q 283 527 273 532 q 283 526 283 527 l 283 526 q 226 542 257 526 l 226 538 q 265 448 226 488 q 311 419 290 425 q 328 414 325 414 l 328 414 q 314 410 328 412 q 300 409 305 409 l 298 409 q 296 409 296 409 l 294 409 l 293 409 q 271 411 283 409 q 324 342 287 366 q 391 321 357 321 l 391 321 l 391 321 q 355 297 372 306 q 236 267 295 267 l 227 267 q 201 268 214 267 q 279 230 237 244 q 399 210 338 210 q 581 255 498 210 q 639 296 608 270 q 680 338 669 323 q 723 403 705 370 q 746 455 735 425 q 767 572 767 517 l 767 591 l 767 595 q 803 626 778 602 q 831 661 821 646 l 831 661 l 831 661 q 780 645 806 651 q 758 642 760 642 l 758 642 q 785 663 766 646 q 814 713 807 689 q 761 689 789 698 q 732 682 736 682 q 704 703 713 699 q 638 722 673 722 l 637 722 q 547 685 586 722 q 508 594 508 646 m 147 955 l 876 955 q 959 918 923 955 q 989 842 989 883 l 989 113 q 960 38 989 72 q 876 0 923 0 l 148 0 q 60 41 97 0 q 34 113 34 75 l 34 842 q 71 925 34 889 q 147 955 106 955 m 87 843 l 87 112 q 119 60 87 78 q 146 54 132 54 l 876 54 q 928 84 911 54 q 935 112 935 98 l 935 843 q 903 896 935 878 q 877 901 890 901 l 146 901 q 104 885 121 901 q 87 843 87 867 z "},"":{"ha":1023,"x_min":34,"x_max":989,"o":"m 147 955 l 876 955 q 959 918 923 955 q 989 842 989 883 l 989 113 q 960 38 989 72 q 876 0 923 0 l 148 0 q 60 41 97 0 q 34 113 34 75 l 34 842 q 71 925 34 889 q 147 955 106 955 m 87 843 l 87 112 q 119 60 87 78 q 146 54 132 54 l 876 54 q 928 84 911 54 q 935 112 935 98 l 935 843 q 903 896 935 878 q 877 901 890 901 l 146 901 q 104 885 121 901 q 87 843 87 867 m 387 682 l 391 682 q 392 682 391 682 q 394 682 393 682 l 401 682 q 537 629 468 682 l 537 629 q 490 578 524 612 q 483 572 484 572 l 481 572 q 390 602 437 602 q 311 574 345 602 q 296 562 306 571 q 277 536 282 547 q 258 465 258 503 q 291 375 258 413 q 308 359 302 363 q 393 328 344 328 q 477 356 439 328 q 497 377 492 370 q 510 399 507 390 q 516 421 516 417 l 516 421 q 393 422 399 422 l 393 422 l 393 496 q 393 496 393 496 l 535 496 q 600 496 558 496 l 600 496 q 602 470 602 481 l 602 467 q 523 290 602 351 q 488 269 502 275 q 395 248 443 248 l 392 248 q 277 281 330 248 q 188 391 214 321 q 175 460 175 426 l 175 463 q 177 500 175 479 q 184 530 180 517 q 265 642 206 597 q 387 682 322 682 m 735 559 l 797 559 l 797 559 l 798 496 q 859 496 844 496 l 859 496 l 859 435 l 859 435 q 798 434 810 434 q 797 372 798 392 l 797 372 l 735 372 l 734 372 q 734 378 734 376 q 734 434 734 389 q 673 435 680 435 l 673 435 l 673 496 l 673 496 q 734 496 729 496 q 734 559 734 517 l 735 559 z "},"":{"ha":1023,"x_min":34,"x_max":989,"o":"m 252 621 l 252 320 q 263 265 252 284 q 282 239 267 256 q 353 212 312 212 l 669 212 q 742 241 711 212 q 770 317 770 270 l 770 625 q 752 688 770 663 q 720 717 736 709 q 671 730 697 730 l 351 730 q 274 693 306 730 q 254 650 260 677 q 252 621 252 642 m 710 671 l 711 670 l 711 583 q 710 583 711 583 l 699 583 q 623 582 675 583 l 623 583 l 623 670 q 623 670 623 670 q 710 671 640 670 m 509 562 l 513 562 q 580 531 550 562 q 602 469 602 505 q 578 408 602 437 q 511 380 549 380 q 441 412 471 380 q 420 471 420 439 q 446 534 420 506 q 509 562 474 562 m 302 524 l 378 524 q 379 524 379 524 q 369 471 369 498 q 416 365 369 410 q 508 329 460 329 l 514 329 q 604 363 562 329 q 626 388 620 378 q 653 469 653 427 l 653 473 q 643 524 653 497 l 643 524 l 720 524 q 720 524 720 524 l 720 310 q 696 269 720 286 q 664 262 686 262 l 359 262 q 324 271 335 262 q 312 281 322 271 q 302 311 302 295 l 302 524 q 302 524 302 524 m 147 955 l 876 955 q 959 918 923 955 q 989 842 989 883 l 989 113 q 960 38 989 72 q 876 0 923 0 l 148 0 q 60 41 97 0 q 34 113 34 75 l 34 842 q 71 925 34 889 q 147 955 106 955 m 87 843 l 87 112 q 119 60 87 78 q 146 54 132 54 l 876 54 q 928 84 911 54 q 935 112 935 98 l 935 843 q 903 896 935 878 q 877 901 890 901 l 146 901 q 104 885 121 901 q 87 843 87 867 z "},"":{"ha":1023,"x_min":34,"x_max":989,"o":"m 527 772 q 373 726 437 772 q 343 701 361 719 q 319 671 326 682 q 282 557 282 616 q 309 461 282 499 q 331 438 316 450 q 357 425 351 425 l 359 425 q 365 427 361 425 q 370 437 369 430 q 378 470 378 466 q 374 478 378 473 q 349 548 349 506 q 384 651 349 606 q 408 677 393 664 q 516 713 455 713 q 618 681 579 713 q 661 582 661 644 q 639 470 661 521 q 625 444 631 455 q 552 399 594 399 q 516 411 532 399 q 496 451 496 427 l 496 453 q 507 500 496 464 q 528 587 528 564 q 522 615 528 602 q 482 638 509 638 q 437 616 456 638 q 416 551 416 589 q 427 496 416 521 l 386 321 q 376 249 376 287 l 376 243 q 380 180 376 214 q 385 174 380 175 l 386 174 q 388 174 387 174 q 399 189 390 176 q 431 238 418 216 q 450 281 440 257 q 475 382 458 312 q 484 370 478 378 q 500 357 494 361 q 559 340 529 340 q 561 340 560 340 l 562 340 q 621 351 591 340 q 703 421 671 372 q 744 574 744 487 q 732 642 744 608 q 650 739 707 703 q 527 772 595 772 m 147 955 l 876 955 q 959 918 923 955 q 989 842 989 883 l 989 113 q 960 38 989 72 q 876 0 923 0 l 148 0 q 60 41 97 0 q 34 113 34 75 l 34 842 q 71 925 34 889 q 147 955 106 955 m 87 843 l 87 112 q 119 60 87 78 q 146 54 132 54 l 876 54 q 928 84 911 54 q 935 112 935 98 l 935 843 q 903 896 935 878 q 877 901 890 901 l 146 901 q 104 885 121 901 q 87 843 87 867 z "},"":{"ha":1023,"x_min":34,"x_max":989,"o":"m 180 470 q 216 366 180 413 q 245 338 233 345 q 326 311 283 311 l 327 311 q 427 355 383 311 q 460 406 451 380 q 473 471 473 437 q 430 583 473 534 q 403 606 414 600 q 326 629 367 629 q 227 587 271 629 q 180 470 180 537 m 547 473 q 593 359 547 408 q 628 332 614 340 q 694 316 662 316 l 700 316 q 787 347 745 316 q 817 377 807 363 q 848 469 848 422 l 848 476 q 814 571 848 526 q 738 623 786 608 q 697 629 716 629 q 590 583 637 629 q 547 473 547 534 m 147 955 l 876 955 q 959 918 923 955 q 989 842 989 883 l 989 113 q 960 38 989 72 q 876 0 923 0 l 148 0 q 60 41 97 0 q 34 113 34 75 l 34 842 q 71 925 34 889 q 147 955 106 955 m 87 843 l 87 112 q 119 60 87 78 q 146 54 132 54 l 876 54 q 928 84 911 54 q 935 112 935 98 l 935 843 q 903 896 935 878 q 877 901 890 901 l 146 901 q 104 885 121 901 q 87 843 87 867 z "},"":{"ha":1023,"x_min":34,"x_max":989,"o":"m 231 698 q 255 646 231 667 q 300 629 275 629 q 353 656 332 629 q 368 699 368 675 q 337 755 368 733 q 299 766 319 766 q 247 742 269 766 q 231 698 231 722 m 547 525 l 547 525 q 546 526 546 525 l 546 577 l 433 577 l 433 197 l 551 197 l 551 374 q 558 441 551 424 q 620 483 573 483 l 621 483 q 621 483 621 483 l 623 483 l 625 483 q 675 450 661 483 q 681 425 681 433 q 683 369 683 416 l 683 197 l 802 197 l 802 409 q 768 546 802 506 q 659 587 734 587 q 574 557 611 587 q 555 538 559 545 q 547 525 551 531 m 240 577 l 240 197 l 359 197 l 359 577 l 240 577 m 147 955 l 876 955 q 959 918 923 955 q 989 842 989 883 l 989 113 q 960 38 989 72 q 876 0 923 0 l 148 0 q 60 41 97 0 q 34 113 34 75 l 34 842 q 71 925 34 889 q 147 955 106 955 m 87 843 l 87 112 q 119 60 87 78 q 146 54 132 54 l 876 54 q 928 84 911 54 q 935 112 935 98 l 935 843 q 903 896 935 878 q 877 901 890 901 l 146 901 q 104 885 121 901 q 87 843 87 867 z "},"":{"ha":1023,"x_min":34,"x_max":989,"o":"m 469 764 q 465 761 467 764 q 461 734 464 745 q 453 705 458 719 q 435 669 446 686 q 422 652 431 661 q 410 638 420 650 q 388 622 397 628 q 357 606 372 612 q 351 604 351 604 l 351 529 q 352 528 351 528 l 410 528 l 410 340 q 420 286 410 313 q 482 210 439 236 q 578 184 524 184 l 581 184 q 658 201 618 184 q 677 211 669 205 q 684 218 680 213 q 656 301 682 227 l 650 298 q 610 291 626 291 l 606 291 q 568 305 583 291 q 554 349 554 321 l 554 528 l 670 528 q 670 529 670 528 l 670 616 q 670 616 670 616 l 554 616 l 554 764 q 554 764 554 764 l 469 764 m 147 955 l 876 955 q 959 918 923 955 q 989 842 989 883 l 989 113 q 960 38 989 72 q 876 0 923 0 l 148 0 q 60 41 97 0 q 34 113 34 75 l 34 842 q 71 925 34 889 q 147 955 106 955 m 87 843 l 87 112 q 119 60 87 78 q 146 54 132 54 l 876 54 q 928 84 911 54 q 935 112 935 98 l 935 843 q 903 896 935 878 q 877 901 890 901 l 146 901 q 104 885 121 901 q 87 843 87 867 z "},"":{"ha":1023,"x_min":34,"x_max":989,"o":"m 490 640 q 429 633 446 640 q 418 627 425 632 q 410 615 410 618 l 410 614 q 410 614 410 614 q 422 610 418 612 q 442 596 436 606 q 446 584 444 591 q 450 567 448 577 q 451 529 451 543 l 451 527 q 451 526 451 526 q 451 525 451 526 l 451 522 q 444 471 451 488 q 430 456 441 456 q 375 516 412 456 q 331 604 349 560 q 318 620 326 616 q 307 624 310 623 q 213 623 292 623 q 199 621 206 623 q 191 609 191 618 l 191 609 q 192 600 191 606 q 247 488 218 542 q 298 405 271 444 q 338 353 315 380 q 368 322 352 337 q 395 302 383 310 q 435 281 415 289 q 511 265 477 265 l 552 265 q 563 269 555 265 q 574 277 571 271 q 576 288 576 279 q 583 331 576 313 q 589 342 585 338 q 604 352 596 352 l 606 352 q 641 326 618 352 q 670 294 658 307 q 687 279 681 282 q 727 264 709 264 l 728 264 q 733 264 730 264 l 819 265 q 829 267 822 265 q 850 287 850 272 l 850 288 q 849 297 850 292 q 839 315 845 305 q 810 349 831 326 q 787 373 802 358 q 762 397 766 392 q 742 427 742 415 l 742 427 q 754 454 742 437 q 795 508 754 455 q 850 607 850 582 l 850 607 q 849 615 850 612 q 825 623 844 623 l 823 623 q 815 623 819 623 l 717 623 q 711 623 713 623 q 707 621 709 623 q 695 611 700 620 q 683 582 688 595 q 661 537 671 555 q 593 457 613 457 l 593 457 q 588 458 590 457 q 576 498 576 467 l 576 499 q 576 537 576 527 q 578 593 577 583 q 574 621 578 614 q 562 633 570 629 q 552 635 554 635 q 498 640 539 640 l 490 640 m 147 955 l 876 955 q 959 918 923 955 q 989 842 989 883 l 989 113 q 960 38 989 72 q 876 0 923 0 l 148 0 q 60 41 97 0 q 34 113 34 75 l 34 842 q 71 925 34 889 q 147 955 106 955 m 87 843 l 87 112 q 119 60 87 78 q 146 54 132 54 l 876 54 q 928 84 911 54 q 935 112 935 98 l 935 843 q 903 896 935 878 q 877 901 890 901 l 146 901 q 104 885 121 901 q 87 843 87 867 z "},"":{"ha":1023,"x_min":34,"x_max":989,"o":"m 513 700 q 395 698 462 700 q 297 694 334 696 q 269 690 277 692 q 235 676 250 687 q 220 661 227 669 q 208 637 214 653 q 199 604 203 625 q 193 500 193 546 l 193 450 q 197 360 193 412 q 202 332 199 344 q 213 300 208 311 q 245 269 223 280 q 262 262 252 265 q 287 258 271 260 q 347 254 298 256 q 515 250 462 250 q 638 252 563 250 q 751 258 736 256 q 777 267 766 261 q 791 275 784 270 q 804 288 798 281 q 817 313 812 298 q 825 344 822 325 q 832 450 832 402 l 832 500 q 826 604 832 547 q 818 633 822 625 q 801 665 812 653 q 789 676 791 675 q 772 686 781 682 q 754 691 766 689 q 710 696 741 694 q 513 700 613 700 m 446 572 q 587 498 449 570 q 619 481 618 482 l 590 467 q 446 393 589 466 l 446 393 l 446 572 m 147 955 l 876 955 q 959 918 923 955 q 989 842 989 883 l 989 113 q 960 38 989 72 q 876 0 923 0 l 148 0 q 60 41 97 0 q 34 113 34 75 l 34 842 q 71 925 34 889 q 147 955 106 955 m 87 843 l 87 112 q 119 60 87 78 q 146 54 132 54 l 876 54 q 928 84 911 54 q 935 112 935 98 l 935 843 q 903 896 935 878 q 877 901 890 901 l 146 901 q 104 885 121 901 q 87 843 87 867 z "},"":{"ha":1023,"x_min":34,"x_max":989,"o":"m 147 955 l 876 955 q 959 918 923 955 q 989 842 989 883 l 989 113 q 960 38 989 72 q 876 0 923 0 l 148 0 q 60 41 97 0 q 34 113 34 75 l 34 842 q 71 925 34 889 q 147 955 106 955 m 87 843 l 87 112 q 119 60 87 78 q 146 54 132 54 l 876 54 q 928 84 911 54 q 935 112 935 98 l 935 843 q 903 896 935 878 q 877 901 890 901 l 146 901 q 104 885 121 901 q 87 843 87 867 m 510 785 l 526 785 q 631 749 582 785 q 666 711 656 727 q 688 661 686 680 q 691 614 691 642 q 688 534 691 593 q 704 529 696 529 q 738 538 716 529 q 745 539 741 539 q 772 525 762 539 q 773 519 773 520 q 720 485 773 500 q 692 455 692 474 l 692 455 q 726 389 692 435 q 764 352 746 365 q 831 322 798 327 q 840 314 840 320 q 755 277 840 291 q 743 241 751 277 q 734 235 740 235 l 696 241 q 684 241 691 241 l 683 241 q 619 222 644 241 q 572 191 589 199 q 521 180 548 180 l 514 180 q 432 210 472 180 q 367 240 393 240 q 351 241 361 241 q 301 235 336 241 q 288 256 290 235 q 277 278 284 278 q 222 291 241 284 q 195 313 195 302 l 195 314 q 209 323 195 322 q 248 337 216 323 q 290 368 267 347 q 328 416 317 396 q 342 455 342 442 q 294 492 342 479 q 262 519 262 505 q 285 539 262 533 l 288 539 q 310 532 293 539 q 330 529 320 529 q 347 534 340 529 q 344 611 344 588 l 344 618 q 364 703 344 674 q 450 774 391 751 q 510 785 480 785 z "},"":{"ha":1023,"x_min":34,"x_max":989,"o":"m 589 800 q 526 789 555 800 q 461 734 483 772 q 439 648 439 697 l 439 559 l 338 559 q 338 559 338 559 l 338 443 q 338 443 338 443 l 439 443 l 439 143 q 439 143 439 143 l 560 143 q 560 143 560 143 l 560 443 l 661 443 q 676 559 662 448 q 675 559 676 559 l 560 559 l 560 625 q 563 659 560 652 q 568 671 563 662 q 589 687 574 682 q 627 691 600 691 l 680 691 q 680 692 680 691 l 680 795 l 680 795 q 593 800 638 800 l 589 800 m 989 955 l 989 0 l 34 0 l 34 955 l 989 955 m 87 901 l 87 54 l 935 54 l 935 901 l 87 901 z "},"":{"ha":1023,"x_min":34,"x_max":989,"o":"m 506 601 l 506 598 q 509 570 506 587 l 509 570 q 453 577 494 570 q 391 596 418 585 q 328 629 361 608 q 272 673 303 644 q 242 705 256 690 q 225 643 225 673 l 225 637 q 256 557 225 595 q 281 534 271 539 q 281 533 281 534 l 281 533 q 224 549 255 533 l 224 545 q 263 454 224 494 q 309 426 288 432 q 326 420 323 420 l 326 420 q 312 417 326 419 q 298 416 303 416 l 296 416 q 294 416 294 416 l 292 416 l 291 416 q 269 418 281 416 q 322 349 285 373 q 389 328 355 328 l 389 328 l 389 328 q 353 304 370 313 q 234 273 293 273 l 225 273 q 199 275 212 273 q 277 237 235 251 q 397 216 336 216 q 579 262 496 216 q 637 303 606 277 q 677 345 667 330 q 721 410 703 376 q 744 462 733 432 q 765 579 765 524 l 765 598 l 765 602 q 801 633 776 608 q 829 668 819 652 l 829 668 l 829 668 q 778 652 804 658 q 756 648 758 648 l 756 649 q 783 670 764 652 q 812 720 805 696 q 759 696 787 705 q 730 688 734 688 q 702 710 711 706 q 636 729 671 729 l 635 729 q 545 692 584 729 q 506 601 506 652 m 989 955 l 989 0 l 34 0 l 34 955 l 989 955 m 87 901 l 87 54 l 935 54 l 935 901 l 87 901 z "},"":{"ha":1023,"x_min":34,"x_max":989,"o":"m 989 955 l 989 0 l 34 0 l 34 955 l 989 955 m 87 901 l 87 54 l 935 54 l 935 901 l 87 901 m 386 693 l 389 693 q 391 693 390 693 q 393 693 392 693 l 400 693 q 538 639 468 693 l 538 638 q 490 587 524 623 q 482 581 483 582 l 481 581 q 389 612 436 612 q 309 584 343 612 q 294 571 304 581 q 274 545 280 555 q 256 473 256 512 q 289 382 256 421 q 306 366 300 370 q 391 335 342 335 q 476 363 438 335 q 496 385 492 377 q 510 407 506 397 q 516 429 516 425 l 516 429 q 391 431 399 430 l 391 431 l 391 505 q 391 505 391 505 l 535 505 q 601 505 559 505 l 601 505 q 602 478 602 489 l 602 475 q 523 296 602 357 q 488 275 502 281 q 394 254 442 254 l 391 254 q 275 287 329 254 q 184 399 212 328 q 172 468 172 434 l 172 471 q 174 509 172 487 q 181 538 177 526 q 262 652 203 607 q 386 693 320 693 m 738 568 l 800 568 l 800 568 l 800 505 q 863 505 846 505 l 863 505 l 863 443 l 863 443 q 800 442 812 442 q 800 379 800 400 l 800 379 l 738 379 l 736 379 q 736 385 736 384 q 736 442 736 397 q 674 443 682 443 l 674 443 l 674 505 l 674 505 q 736 505 731 505 q 736 568 736 526 l 738 568 z "},"":{"ha":1023,"x_min":34,"x_max":989,"o":"m 252 623 l 252 323 q 264 268 252 287 q 283 242 267 258 q 353 214 313 214 l 670 214 q 743 244 712 214 q 771 319 771 273 l 771 627 q 753 691 771 666 q 720 720 737 711 q 671 733 698 733 l 352 733 q 275 696 307 733 q 254 653 260 680 q 252 623 252 644 m 711 673 l 711 673 l 711 586 q 711 585 711 585 l 700 585 q 623 585 675 585 l 623 585 l 623 673 q 624 673 623 673 q 711 673 640 673 m 509 565 l 514 565 q 581 534 551 565 q 603 472 603 507 q 578 411 603 439 q 511 382 550 382 q 442 414 471 382 q 420 473 420 441 q 446 537 420 509 q 509 565 475 565 m 303 527 l 379 527 q 380 526 380 527 q 370 473 370 500 q 417 368 370 413 q 509 332 460 332 l 515 332 q 604 366 562 332 q 627 391 621 381 q 654 471 654 429 l 654 475 q 644 527 654 500 l 644 527 l 720 527 q 721 526 721 527 l 721 313 q 697 272 721 289 q 665 264 686 264 l 359 264 q 325 273 336 264 q 313 284 323 273 q 302 314 302 298 l 302 526 q 303 527 303 527 m 989 955 l 989 0 l 34 0 l 34 955 l 989 955 m 87 901 l 87 54 l 935 54 l 935 901 l 87 901 z "},"":{"ha":1023,"x_min":34,"x_max":989,"o":"m 526 770 q 369 724 435 770 q 338 699 357 717 q 314 668 321 679 q 276 552 276 612 q 304 454 276 492 q 326 430 311 442 q 353 417 347 417 l 355 417 q 361 419 357 417 q 366 429 365 422 q 374 463 374 458 q 370 471 374 466 q 345 542 345 499 q 380 648 345 602 q 405 674 390 661 q 515 711 453 711 q 618 678 579 711 q 663 576 663 640 q 640 463 663 514 q 626 436 633 448 q 551 391 594 391 q 515 403 531 391 q 494 444 494 419 l 494 446 q 506 493 494 456 q 527 581 527 558 q 521 611 527 597 q 480 634 508 634 q 435 612 454 634 q 412 545 412 583 q 423 489 412 514 l 382 311 q 373 237 373 275 l 373 231 q 377 167 373 201 q 381 161 377 161 l 382 161 q 384 161 383 161 q 395 175 386 163 q 427 226 415 203 q 447 269 437 245 q 473 373 456 301 q 482 361 476 368 q 498 348 492 352 q 559 330 528 330 q 561 330 559 330 l 562 330 q 622 342 591 330 q 706 413 673 362 q 747 569 747 479 q 735 637 747 604 q 651 737 710 701 q 526 770 595 770 m 989 955 l 989 0 l 34 0 l 34 955 l 989 955 m 87 901 l 87 54 l 935 54 l 935 901 l 87 901 z "},"":{"ha":1023,"x_min":34,"x_max":989,"o":"m 204 469 q 238 371 204 415 q 265 345 254 351 q 342 319 301 319 l 342 319 q 436 360 395 319 q 468 408 459 385 q 479 469 479 437 q 439 574 479 529 q 414 597 424 591 q 342 618 380 618 q 248 578 290 618 q 204 469 204 532 m 549 471 q 592 364 549 410 q 626 339 612 346 q 688 323 657 323 l 693 323 q 776 353 736 323 q 804 381 794 368 q 832 467 832 423 l 832 474 q 801 564 832 521 q 729 613 774 599 q 691 618 709 618 q 590 574 634 618 q 549 471 549 530 m 989 955 l 989 0 l 34 0 l 34 955 l 989 955 m 87 901 l 87 54 l 935 54 l 935 901 l 87 901 z "},"":{"ha":1023,"x_min":34,"x_max":989,"o":"m 224 689 q 248 637 224 659 q 293 621 268 621 q 347 647 325 621 q 361 690 361 666 q 330 747 361 724 q 292 758 312 758 q 240 733 262 758 q 224 689 224 713 m 541 516 l 540 516 q 539 517 539 516 l 539 568 l 426 568 l 426 188 l 544 188 l 544 365 q 551 433 544 415 q 613 474 566 474 l 614 474 q 614 474 614 474 l 616 474 l 618 474 q 668 441 654 474 q 674 416 674 424 q 676 360 676 408 l 676 188 l 795 188 l 795 400 q 761 537 795 497 q 652 578 728 578 q 567 549 604 578 q 549 530 553 536 q 541 516 544 522 m 233 568 l 233 188 l 352 188 l 352 568 l 233 568 m 989 955 l 989 0 l 34 0 l 34 955 l 989 955 m 87 901 l 87 54 l 935 54 l 935 901 l 87 901 z "},"":{"ha":1023,"x_min":34,"x_max":989,"o":"m 460 764 q 456 760 458 764 q 452 732 455 744 q 444 703 448 718 q 425 665 436 682 q 412 648 420 657 q 399 633 410 646 q 376 616 386 623 q 344 599 359 606 q 338 597 338 597 l 338 519 q 338 519 338 519 l 399 519 l 399 323 q 409 267 399 295 q 474 188 429 215 q 574 161 517 161 l 576 161 q 656 178 616 161 q 676 189 668 182 q 684 197 679 191 q 655 283 682 206 l 648 279 q 606 272 623 272 l 603 272 q 564 287 578 272 q 549 332 549 303 l 549 519 l 669 519 q 669 519 669 519 l 669 610 q 669 610 669 610 l 549 610 l 549 764 q 549 764 549 764 l 460 764 m 989 955 l 989 0 l 34 0 l 34 955 l 989 955 m 87 901 l 87 54 l 935 54 l 935 901 l 87 901 z "},"":{"ha":1023,"x_min":34,"x_max":989,"o":"m 482 642 q 425 635 440 642 q 414 629 420 633 q 406 618 406 621 l 406 617 q 406 616 406 617 q 417 613 414 615 q 436 600 431 608 q 440 588 439 595 q 444 572 442 582 q 445 536 445 549 l 445 534 q 445 533 445 534 q 445 532 445 532 l 445 530 q 439 481 445 498 q 425 467 435 467 q 373 524 408 467 q 331 607 348 566 q 319 623 327 618 q 308 626 311 625 q 219 625 294 625 q 206 623 213 625 q 198 612 198 621 l 198 612 q 199 604 198 608 q 252 498 224 549 q 300 418 275 456 q 338 369 315 395 q 366 340 351 354 q 392 321 380 329 q 430 301 411 309 q 501 286 469 286 l 541 286 q 551 289 544 286 q 562 298 558 292 q 564 308 563 300 q 570 349 564 332 q 575 359 572 355 q 590 368 583 368 l 591 368 q 625 344 604 368 q 652 313 641 325 q 669 299 663 302 q 707 285 689 285 l 707 285 q 712 286 710 285 l 794 286 q 802 288 797 286 q 823 307 823 293 l 823 308 q 822 316 823 311 q 812 333 819 324 q 785 366 806 343 q 764 389 778 374 q 739 410 744 406 q 721 439 721 428 l 721 440 q 732 465 721 450 q 771 517 732 466 q 823 610 823 586 l 823 610 q 822 618 823 615 q 799 625 817 625 l 797 625 q 790 625 793 625 l 696 625 q 692 625 694 625 q 687 623 690 625 q 676 614 680 623 q 665 586 669 600 q 643 544 653 560 q 579 468 599 468 l 579 468 q 574 469 576 468 q 563 507 563 477 l 563 508 q 563 544 563 534 q 565 597 564 587 q 562 623 565 616 q 549 635 557 631 q 541 637 543 637 q 490 642 528 642 l 482 642 m 989 955 l 989 0 l 34 0 l 34 955 l 989 955 m 87 901 l 87 54 l 935 54 l 935 901 l 87 901 z "},"":{"ha":1023,"x_min":34,"x_max":989,"o":"m 513 701 q 393 699 460 701 q 292 695 329 698 q 263 692 271 694 q 228 677 243 688 q 212 662 219 670 q 200 637 206 654 q 191 603 195 625 q 184 497 184 543 l 184 444 q 189 353 184 406 q 195 323 191 336 q 205 292 199 302 q 238 259 216 271 q 256 252 245 255 q 281 248 265 250 q 342 243 292 245 q 515 240 461 240 q 642 242 564 240 q 757 248 743 245 q 784 257 772 252 q 798 266 791 260 q 812 279 805 271 q 825 304 820 290 q 833 336 829 317 q 840 444 840 396 l 840 497 q 834 603 840 544 q 826 633 829 625 q 808 666 820 654 q 795 677 799 675 q 779 687 787 683 q 761 692 772 690 q 715 697 747 695 q 513 701 616 701 m 445 570 q 589 494 448 569 q 622 477 621 478 l 592 463 q 445 386 591 461 l 445 386 l 445 570 m 989 955 l 989 0 l 34 0 l 34 955 l 989 955 m 87 901 l 87 54 l 935 54 l 935 901 l 87 901 z "},"":{"ha":1023,"x_min":34,"x_max":989,"o":"m 989 955 l 989 0 l 34 0 l 34 955 l 989 955 m 87 901 l 87 54 l 935 54 l 935 901 l 87 901 m 507 787 l 523 787 q 627 751 578 787 q 663 713 653 729 q 684 663 682 682 q 688 616 688 644 q 684 536 688 595 q 701 531 692 531 q 734 541 713 531 q 742 541 738 541 q 768 527 759 541 q 770 521 770 522 q 716 487 770 503 q 689 457 689 476 l 689 457 q 722 391 689 437 q 760 354 743 367 q 828 324 795 329 q 836 316 836 322 q 751 279 836 293 q 740 243 748 279 q 730 237 736 237 l 693 243 q 681 243 688 243 l 680 243 q 616 224 640 243 q 568 193 585 201 q 517 182 545 182 l 511 182 q 429 212 469 182 q 363 242 389 242 q 347 243 358 243 q 298 237 333 243 q 285 258 287 237 q 274 280 281 280 q 218 293 238 286 q 192 315 192 304 l 192 316 q 205 325 192 324 q 245 339 213 325 q 286 370 264 349 q 324 418 313 398 q 339 457 339 444 q 290 494 339 481 q 258 522 258 507 q 281 541 258 535 l 285 541 q 307 534 290 541 q 326 531 317 531 q 344 536 336 531 q 340 613 340 590 l 340 620 q 361 705 340 676 q 446 776 388 753 q 507 787 477 787 z "},"":{"ha":1023,"x_min":34,"x_max":989,"o":"m 510 955 l 513 955 q 788 867 661 955 q 834 829 812 850 q 876 785 867 798 q 928 709 914 739 q 989 479 989 601 l 989 476 q 901 201 989 328 q 863 155 884 177 q 819 113 832 122 q 743 60 772 75 q 513 0 635 0 l 510 0 q 235 88 362 0 q 189 125 211 105 q 146 170 156 157 q 94 245 109 216 q 34 476 34 354 l 34 479 q 122 754 34 627 q 159 800 139 778 q 203 842 191 833 q 279 895 250 880 q 510 955 388 955 m 272 686 q 262 684 269 686 q 237 650 237 671 l 237 294 q 242 277 237 285 q 275 256 255 256 l 747 256 q 764 260 756 256 q 785 294 785 273 l 785 648 q 781 665 785 657 q 747 686 768 686 l 272 686 m 644 608 l 511 503 q 379 608 382 605 l 644 608 m 511 401 l 707 557 l 707 557 l 707 334 l 316 334 l 316 557 l 511 401 z "},"":{"ha":1023,"x_min":34,"x_max":989,"o":"m 510 955 l 513 955 q 788 867 661 955 q 834 829 812 850 q 876 785 867 798 q 928 709 914 739 q 989 479 989 601 l 989 476 q 901 201 989 328 q 863 155 884 177 q 819 113 832 122 q 743 60 772 75 q 513 0 635 0 l 510 0 q 235 88 362 0 q 189 125 211 105 q 146 170 156 157 q 94 245 109 216 q 34 476 34 354 l 34 479 q 122 754 34 627 q 159 800 139 778 q 203 842 191 833 q 279 895 250 880 q 510 955 388 955 m 260 741 l 260 698 q 271 670 260 683 q 296 656 279 660 q 392 646 344 656 q 454 625 422 638 q 643 456 577 572 q 680 364 663 422 q 691 301 687 337 q 694 253 692 260 q 734 223 707 223 l 778 223 l 779 224 l 779 274 q 717 503 779 391 q 641 603 694 546 q 564 666 595 646 q 311 743 441 743 l 261 743 l 260 741 m 260 568 l 260 525 q 278 490 260 505 q 321 481 288 481 q 400 459 361 479 q 460 415 423 450 q 508 337 492 379 q 518 292 513 319 q 523 250 519 250 q 562 223 536 223 l 605 223 l 606 224 l 606 274 q 589 368 606 316 q 464 524 550 470 q 311 570 387 570 l 261 570 l 260 568 m 347 397 q 290 374 317 397 q 260 314 260 345 l 260 306 q 277 259 260 283 q 346 223 307 223 q 405 248 378 223 q 433 306 433 276 l 433 314 q 416 359 433 336 q 347 397 387 397 z "},"":{"ha":1023,"x_min":34,"x_max":989,"o":"m 318 642 q 311 640 316 642 q 290 612 290 629 l 290 321 q 294 307 290 314 q 321 290 304 290 l 708 290 q 722 293 715 290 q 739 321 739 304 l 739 611 q 736 625 739 618 q 708 642 725 642 l 318 642 m 623 578 l 515 492 q 407 578 408 576 l 623 578 m 515 408 l 675 536 l 675 536 l 675 354 l 355 354 l 355 536 l 515 408 m 511 955 l 511 955 q 544 933 521 951 q 578 902 556 924 q 603 870 594 883 l 612 854 l 613 854 q 750 891 679 891 q 787 753 787 825 l 790 753 q 923 718 857 753 q 925 715 925 716 q 888 578 925 645 l 888 578 q 989 478 951 542 l 989 477 q 967 445 985 468 q 936 411 958 433 q 904 386 917 395 l 888 376 l 888 376 q 925 239 925 311 q 787 201 859 201 l 787 199 q 751 66 787 132 q 749 64 750 64 q 612 100 679 64 l 612 100 q 512 0 576 38 l 511 0 q 480 21 502 5 q 445 54 469 29 q 427 75 431 70 q 410 100 422 82 l 410 100 q 273 64 345 64 q 235 201 235 130 l 231 201 q 109 233 171 201 l 98 239 q 135 376 98 311 q 92 407 115 388 q 64 435 71 427 q 36 473 45 457 q 34 477 34 477 q 135 578 71 541 q 98 716 98 644 q 235 753 163 753 l 235 756 q 273 891 235 825 q 273 891 273 891 q 410 854 345 891 q 511 955 447 918 z "},"":{"ha":1023,"x_min":34,"x_max":989,"o":"m 273 703 l 273 663 q 283 637 273 650 q 307 625 291 629 q 394 616 350 625 q 451 597 422 608 q 623 443 563 548 q 657 359 641 412 q 667 301 663 334 q 670 257 668 263 q 707 230 682 230 l 746 230 l 747 231 l 747 276 q 690 485 747 382 q 621 576 670 524 q 551 634 579 616 q 319 704 439 704 l 275 704 l 273 703 m 273 545 l 273 505 q 290 474 273 487 q 329 466 298 466 q 401 446 366 463 q 456 405 422 437 q 500 334 486 372 q 509 293 505 318 q 513 254 511 254 q 549 230 525 230 l 588 230 l 589 231 l 589 276 q 574 361 589 315 q 460 505 538 455 q 319 546 389 546 l 275 546 l 273 545 m 353 389 q 301 368 326 389 q 273 313 273 340 l 273 305 q 290 262 273 285 q 352 230 317 230 q 406 252 382 230 q 431 305 431 278 l 431 313 q 416 354 431 332 q 353 389 389 389 m 511 955 l 511 955 q 544 933 521 951 q 578 902 556 924 q 603 870 594 883 l 612 854 l 613 854 q 750 891 679 891 q 787 753 787 825 l 790 753 q 923 718 857 753 q 925 715 925 716 q 888 578 925 645 l 888 578 q 989 478 951 542 l 989 477 q 967 445 985 468 q 936 411 958 433 q 904 386 917 395 l 888 376 l 888 376 q 925 239 925 311 q 787 201 859 201 l 787 199 q 751 66 787 132 q 749 64 750 64 q 612 100 679 64 l 612 100 q 512 0 576 38 l 511 0 q 480 21 502 5 q 445 54 469 29 q 427 75 431 70 q 410 100 422 82 l 410 100 q 273 64 345 64 q 235 201 235 130 l 231 201 q 109 233 171 201 l 98 239 q 135 376 98 311 q 92 407 115 388 q 64 435 71 427 q 36 473 45 457 q 34 477 34 477 q 135 578 71 541 q 98 716 98 644 q 235 753 163 753 l 235 756 q 273 891 235 825 q 273 891 273 891 q 410 854 345 891 q 511 955 447 918 z "},"":{"ha":1023,"x_min":34,"x_max":989,"o":"m 318 644 q 311 642 316 644 q 290 614 290 631 l 290 327 q 294 314 290 320 q 321 296 304 296 l 702 296 q 715 300 709 296 q 732 327 732 311 l 732 613 q 729 626 732 620 q 702 644 718 644 l 318 644 m 618 581 l 511 495 q 405 581 407 578 l 618 581 m 511 414 l 669 539 l 669 539 l 669 359 l 353 359 l 353 539 l 511 414 m 511 955 q 650 816 604 863 q 849 815 812 815 l 849 814 l 849 668 q 849 618 849 652 q 989 477 983 484 q 850 338 897 385 q 849 140 849 177 l 848 140 l 702 140 q 652 140 686 140 q 511 0 517 5 q 372 139 420 91 q 174 140 211 140 l 174 140 l 174 287 q 174 337 174 303 q 34 477 39 471 q 173 616 125 569 q 174 815 174 778 l 174 815 l 321 815 q 371 815 337 815 q 511 955 505 949 z "},"":{"ha":1023,"x_min":34,"x_max":989,"o":"m 287 699 l 287 661 q 296 636 287 648 q 319 624 304 627 q 403 614 361 624 q 458 597 430 608 q 623 448 566 550 q 656 368 641 418 q 666 312 663 344 q 669 270 667 275 q 704 243 680 243 l 742 243 l 743 245 l 743 288 q 688 489 743 391 q 622 577 669 527 q 554 633 581 615 q 332 700 446 700 l 288 700 l 287 699 m 287 547 l 287 509 q 303 478 287 491 q 340 471 311 471 q 410 451 376 468 q 463 412 431 443 q 505 344 491 380 q 514 304 510 328 q 518 267 515 267 q 552 243 530 243 l 590 243 l 591 245 l 591 288 q 576 370 591 325 q 466 508 542 460 q 332 548 398 548 l 288 548 l 287 547 m 363 396 q 314 376 338 396 q 287 323 287 350 l 287 316 q 302 275 287 296 q 363 243 329 243 q 414 265 391 243 q 439 316 439 290 l 439 323 q 425 363 439 342 q 363 396 398 396 m 511 955 q 650 816 604 863 q 849 815 812 815 l 849 814 l 849 668 q 849 618 849 652 q 989 477 983 484 q 850 338 897 385 q 849 140 849 177 l 848 140 l 702 140 q 652 140 686 140 q 511 0 517 5 q 372 139 420 91 q 174 140 211 140 l 174 140 l 174 287 q 174 337 174 303 q 34 477 39 471 q 173 616 125 569 q 174 815 174 778 l 174 815 l 321 815 q 371 815 337 815 q 511 955 505 949 z "},"":{"ha":896,"x_min":34,"x_max":862,"o":"m 244 652 q 236 650 241 652 q 215 621 215 639 l 215 319 q 219 306 215 312 q 247 288 230 288 l 648 288 q 661 292 654 288 q 679 319 679 302 l 679 621 q 675 634 679 628 q 648 652 665 652 l 244 652 m 559 586 l 448 496 q 336 586 338 584 l 559 586 m 448 411 l 612 543 l 613 543 l 613 354 l 281 354 l 281 543 l 448 411 m 448 955 l 710 804 l 862 716 l 862 716 q 862 239 862 498 q 532 48 701 146 q 448 0 450 1 l 448 0 l 186 151 l 34 239 l 34 239 q 34 716 34 456 q 364 907 195 809 q 448 955 446 954 l 448 955 z "},"":{"ha":896,"x_min":34,"x_max":862,"o":"m 203 728 l 203 687 q 214 660 203 673 q 239 646 222 650 q 330 637 284 646 q 390 617 359 629 q 571 455 508 566 q 607 367 590 422 q 617 306 614 340 q 621 260 618 267 q 659 231 633 231 l 701 231 l 702 233 l 702 280 q 642 499 702 392 q 569 595 621 541 q 495 656 525 637 q 252 730 377 730 l 205 730 l 203 728 m 203 562 l 203 521 q 221 488 203 501 q 262 479 230 479 q 338 458 300 477 q 395 416 360 449 q 441 340 427 381 q 452 298 447 323 q 456 256 453 256 q 493 231 469 231 l 534 231 l 536 233 l 536 280 q 519 370 536 320 q 399 520 482 468 q 252 564 325 564 l 205 564 l 203 562 m 287 398 q 233 376 259 398 q 203 319 203 348 l 203 311 q 220 266 203 289 q 286 231 249 231 q 342 255 317 231 q 370 311 370 282 l 370 319 q 354 362 370 339 q 287 398 325 398 m 448 955 l 710 804 l 862 716 l 862 716 q 862 239 862 498 q 532 48 701 146 q 448 0 450 1 l 448 0 l 186 151 l 34 239 l 34 239 q 34 716 34 456 q 364 907 195 809 q 448 955 446 954 l 448 955 z "},"":{"ha":1023,"x_min":34,"x_max":989,"o":"m 260 698 q 250 695 257 698 q 224 659 224 681 l 224 280 q 229 262 224 271 q 264 239 243 239 l 767 239 q 785 244 776 239 q 807 280 807 258 l 807 657 q 803 675 807 667 q 767 698 789 698 l 260 698 m 656 614 l 515 502 q 375 614 378 611 l 656 614 m 515 394 l 724 560 l 724 560 l 724 323 l 307 323 l 307 560 l 515 394 m 142 955 l 880 955 q 972 904 938 955 q 989 840 989 876 l 989 115 q 941 19 989 54 q 880 0 915 0 l 142 0 q 51 51 85 0 q 34 115 34 79 l 34 840 q 81 936 34 901 q 142 955 108 955 z "},"":{"ha":1023,"x_min":34,"x_max":989,"o":"m 244 753 l 244 707 q 256 678 244 692 q 283 663 265 667 q 383 652 333 663 q 449 631 416 645 q 648 453 578 575 q 687 356 669 418 q 699 290 694 328 q 702 239 700 246 q 744 208 715 208 l 790 208 l 791 209 l 791 261 q 726 502 791 384 q 646 608 702 547 q 564 674 597 653 q 298 755 435 755 l 245 755 l 244 753 m 244 571 l 244 526 q 263 489 244 504 q 309 479 273 479 q 392 456 351 477 q 455 410 416 447 q 506 328 489 372 q 516 280 511 309 q 522 235 518 235 q 562 208 535 208 l 608 208 l 609 209 l 609 261 q 591 359 609 305 q 459 525 550 467 q 298 572 378 572 l 245 572 l 244 571 m 336 391 q 276 367 305 391 q 244 303 244 336 l 244 295 q 262 245 244 271 q 335 208 294 208 q 397 233 369 208 q 427 295 427 263 l 427 303 q 409 351 427 326 q 336 391 378 391 m 142 955 l 880 955 q 972 904 938 955 q 989 840 989 876 l 989 115 q 941 19 989 54 q 880 0 915 0 l 142 0 q 51 51 85 0 q 34 115 34 79 l 34 840 q 81 936 34 901 q 142 955 108 955 z "},"":{"ha":1023,"x_min":34,"x_max":989,"o":"m 262 705 q 252 703 259 705 q 226 667 226 688 l 226 288 q 231 270 226 278 q 267 247 245 247 l 769 247 q 787 252 778 247 q 809 288 809 266 l 809 665 q 805 682 809 674 q 769 705 791 705 l 262 705 m 659 622 l 517 509 q 377 622 380 618 l 659 622 m 517 401 l 726 568 l 726 568 l 726 330 l 309 330 l 309 568 l 517 401 m 989 955 l 989 0 l 34 0 l 34 955 l 989 955 z "},"":{"ha":1023,"x_min":34,"x_max":989,"o":"m 235 766 l 235 719 q 246 689 235 703 q 275 673 256 677 q 378 662 326 673 q 446 640 412 654 q 651 456 580 582 q 692 356 673 420 q 704 288 699 327 q 707 235 705 243 q 751 203 722 203 l 798 203 l 800 204 l 800 258 q 732 507 800 385 q 649 616 707 554 q 565 684 599 663 q 290 768 431 768 l 236 768 l 235 766 m 235 578 l 235 531 q 254 493 235 509 q 301 484 265 484 q 387 459 345 481 q 452 412 412 450 q 505 327 488 372 q 515 278 511 307 q 521 231 517 231 q 563 203 535 203 l 610 203 l 612 204 l 612 258 q 593 360 612 304 q 456 530 550 471 q 290 580 372 580 l 236 580 l 235 578 m 329 391 q 268 368 297 391 q 235 302 235 335 l 235 293 q 254 242 235 269 q 328 203 286 203 q 393 229 363 203 q 422 293 422 260 l 422 302 q 405 351 422 326 q 329 391 372 391 m 989 955 l 989 0 l 34 0 l 34 955 l 989 955 z "},"":{"ha":1023,"x_min":34,"x_max":989,"o":"m 301 657 q 293 654 298 657 q 271 625 271 643 l 271 307 q 275 292 271 299 q 304 273 286 273 l 726 273 q 740 277 733 273 q 759 307 759 289 l 759 623 q 755 638 759 631 q 726 657 744 657 l 301 657 m 631 587 l 513 493 q 396 587 398 585 l 631 587 m 515 403 l 689 542 l 690 542 l 690 343 l 340 343 l 340 542 l 515 403 m 509 905 q 295 846 396 905 q 243 810 273 834 q 201 771 230 802 q 161 723 177 745 q 84 480 84 610 l 84 475 q 142 261 84 362 q 178 210 155 239 q 218 167 187 196 q 266 127 243 143 q 509 50 379 50 l 514 50 q 728 109 627 50 q 779 144 749 121 q 822 184 793 153 q 862 232 846 210 q 939 475 939 345 l 939 480 q 880 694 939 593 q 844 745 868 715 q 805 788 836 759 q 757 828 779 812 q 514 905 644 905 l 509 905 m 509 955 l 514 955 q 785 869 659 955 q 840 825 811 851 q 884 777 873 791 q 924 720 910 743 q 989 480 989 606 l 989 475 q 903 203 989 330 q 859 149 885 178 q 811 105 825 115 q 753 65 777 79 q 514 0 640 0 l 509 0 q 237 85 363 0 q 183 130 212 104 q 139 178 149 163 q 99 235 113 212 q 34 475 34 349 l 34 480 q 119 751 34 625 q 164 806 138 777 q 212 850 197 840 q 269 890 245 876 q 509 955 382 955 z "},"":{"ha":1023,"x_min":34,"x_max":989,"o":"m 268 726 l 268 684 q 278 657 268 669 q 303 644 287 648 q 395 633 349 644 q 455 614 425 627 q 637 452 573 563 q 673 363 656 419 q 683 302 679 337 q 686 256 684 262 q 724 227 699 227 l 766 227 l 768 229 l 768 276 q 707 496 768 389 q 635 593 686 538 q 560 653 590 634 q 317 727 442 727 l 269 727 l 268 726 m 268 559 l 268 517 q 286 484 268 498 q 327 476 294 476 q 403 454 365 473 q 460 412 425 446 q 507 337 492 377 q 517 294 512 320 q 521 253 518 253 q 558 227 534 227 l 600 227 l 602 229 l 602 276 q 585 366 602 317 q 465 517 547 465 q 317 561 390 561 l 269 561 l 268 559 m 351 394 q 297 373 323 394 q 268 315 268 344 l 268 307 q 285 262 268 286 q 351 227 313 227 q 408 251 382 227 q 434 307 434 278 l 434 315 q 418 358 434 336 q 351 394 390 394 m 509 905 q 295 846 396 905 q 243 810 273 834 q 201 771 230 802 q 161 723 177 745 q 84 480 84 610 l 84 475 q 142 261 84 362 q 178 210 155 239 q 218 167 187 196 q 266 127 243 143 q 509 50 379 50 l 514 50 q 728 109 627 50 q 779 144 749 121 q 822 184 793 153 q 862 232 846 210 q 939 475 939 345 l 939 480 q 880 694 939 593 q 844 745 868 715 q 805 788 836 759 q 757 828 779 812 q 514 905 644 905 l 509 905 m 509 955 l 514 955 q 785 869 659 955 q 840 825 811 851 q 884 777 873 791 q 924 720 910 743 q 989 480 989 606 l 989 475 q 903 203 989 330 q 859 149 885 178 q 811 105 825 115 q 753 65 777 79 q 514 0 640 0 l 509 0 q 237 85 363 0 q 183 130 212 104 q 139 178 149 163 q 99 235 113 212 q 34 475 34 349 l 34 480 q 119 751 34 625 q 164 806 138 777 q 212 850 197 840 q 269 890 245 876 q 509 955 382 955 z "},"":{"ha":1023,"x_min":34,"x_max":989,"o":"m 326 632 q 319 630 323 632 q 299 604 299 620 l 299 327 q 302 314 299 320 q 329 297 313 297 l 696 297 q 709 300 703 297 q 725 327 725 311 l 725 602 q 722 615 725 609 q 696 632 712 632 l 326 632 m 615 571 l 512 489 q 410 571 412 569 l 615 571 m 512 410 l 665 532 l 665 532 l 665 358 l 360 358 l 360 532 l 512 410 m 511 955 l 511 955 q 544 933 521 951 q 578 902 556 924 q 603 870 594 883 l 612 854 l 613 854 q 750 891 679 891 q 787 753 787 825 l 790 753 q 923 718 857 753 q 925 715 925 716 q 888 578 925 645 l 888 578 q 989 478 951 542 l 989 477 q 967 445 985 468 q 936 411 958 433 q 904 386 917 395 l 888 376 l 888 376 q 925 239 925 311 q 787 201 859 201 l 787 199 q 751 66 787 132 q 749 64 750 64 q 612 100 679 64 l 612 100 q 512 0 576 38 l 511 0 q 480 21 502 5 q 445 54 469 29 q 427 75 431 70 q 410 100 422 82 l 410 100 q 273 64 345 64 q 235 201 235 130 l 231 201 q 109 233 171 201 l 98 239 q 135 376 98 311 q 92 407 115 388 q 64 435 71 427 q 36 473 45 457 q 34 477 34 477 q 135 578 71 541 q 98 716 98 644 q 235 753 163 753 l 235 756 q 273 891 235 825 q 273 891 273 891 q 410 854 345 891 q 511 955 447 918 m 511 891 q 424 804 455 859 q 304 836 367 836 q 304 836 304 836 q 273 719 273 779 l 273 716 q 153 684 210 716 q 185 565 153 623 q 98 477 130 533 q 100 474 98 477 q 124 441 108 460 q 148 416 130 433 q 185 390 168 400 q 153 271 153 333 l 162 265 q 269 239 216 239 l 273 239 q 304 119 273 176 q 423 151 367 119 l 424 151 q 439 129 434 135 q 454 111 441 125 q 484 82 475 89 q 511 64 503 68 l 512 64 q 598 151 568 96 l 599 151 q 718 119 656 119 q 720 121 718 119 q 750 236 750 178 l 750 239 q 869 271 812 239 q 838 389 869 333 l 838 390 l 852 398 q 879 420 863 406 q 906 450 899 439 q 925 477 922 469 l 925 478 q 838 564 892 534 l 838 565 q 869 684 869 623 q 868 686 869 684 q 753 716 811 716 l 750 716 q 718 836 750 779 q 600 804 656 836 l 599 804 l 591 818 q 569 845 583 829 q 539 872 550 865 q 511 891 519 888 l 511 891 z "},"":{"ha":1023,"x_min":34,"x_max":989,"o":"m 296 688 l 296 652 q 306 629 296 640 q 327 617 313 621 q 406 609 366 617 q 457 592 431 603 q 613 452 558 548 q 644 376 629 425 q 652 324 649 354 q 656 284 654 290 q 689 260 667 260 l 724 260 l 726 261 l 726 302 q 674 491 726 398 q 611 574 656 526 q 547 626 573 610 q 338 689 446 689 l 298 689 l 296 688 m 296 545 l 296 509 q 311 480 296 492 q 347 473 319 473 q 412 454 380 471 q 462 418 431 448 q 502 354 488 389 q 510 317 506 339 q 513 281 511 281 q 546 260 524 260 l 581 260 l 583 261 l 583 302 q 569 379 583 337 q 465 509 536 464 q 338 546 401 546 l 298 546 l 296 545 m 368 404 q 321 385 344 404 q 296 335 296 360 l 296 328 q 311 290 296 310 q 368 260 336 260 q 416 280 395 260 q 439 328 439 303 l 439 335 q 426 372 439 353 q 368 404 401 404 m 511 955 l 511 955 q 544 933 521 951 q 578 902 556 924 q 603 870 594 883 l 612 854 l 613 854 q 750 891 679 891 q 787 753 787 825 l 790 753 q 923 718 857 753 q 925 715 925 716 q 888 578 925 645 l 888 578 q 989 478 951 542 l 989 477 q 967 445 985 468 q 936 411 958 433 q 904 386 917 395 l 888 376 l 888 376 q 925 239 925 311 q 787 201 859 201 l 787 199 q 751 66 787 132 q 749 64 750 64 q 612 100 679 64 l 612 100 q 512 0 576 38 l 511 0 q 480 21 502 5 q 445 54 469 29 q 427 75 431 70 q 410 100 422 82 l 410 100 q 273 64 345 64 q 235 201 235 130 l 231 201 q 109 233 171 201 l 98 239 q 135 376 98 311 q 92 407 115 388 q 64 435 71 427 q 36 473 45 457 q 34 477 34 477 q 135 578 71 541 q 98 716 98 644 q 235 753 163 753 l 235 756 q 273 891 235 825 q 273 891 273 891 q 410 854 345 891 q 511 955 447 918 m 511 891 q 424 804 455 859 q 304 836 367 836 q 304 836 304 836 q 273 719 273 779 l 273 716 q 153 684 210 716 q 185 565 153 623 q 98 477 130 533 q 100 474 98 477 q 124 441 108 460 q 148 416 130 433 q 185 390 168 400 q 153 271 153 333 l 162 265 q 269 239 216 239 l 273 239 q 304 119 273 176 q 423 151 367 119 l 424 151 q 439 129 434 135 q 454 111 441 125 q 484 82 475 89 q 511 64 503 68 l 512 64 q 598 151 568 96 l 599 151 q 718 119 656 119 q 720 121 718 119 q 750 236 750 178 l 750 239 q 869 271 812 239 q 838 389 869 333 l 838 390 l 852 398 q 879 420 863 406 q 906 450 899 439 q 925 477 922 469 l 925 478 q 838 564 892 534 l 838 565 q 869 684 869 623 q 868 686 869 684 q 753 716 811 716 l 750 716 q 718 836 750 779 q 600 804 656 836 l 599 804 l 591 818 q 569 845 583 829 q 539 872 550 865 q 511 891 519 888 l 511 891 z "},"":{"ha":1023,"x_min":34,"x_max":989,"o":"m 326 640 q 319 638 323 640 q 300 612 300 628 l 300 340 q 303 327 300 333 q 329 311 313 311 l 690 311 q 703 314 697 311 q 720 340 720 324 l 720 611 q 716 624 720 618 q 690 640 706 640 l 326 640 m 611 580 l 509 499 q 409 580 410 578 l 611 580 m 509 422 l 659 541 l 660 541 l 660 371 l 360 371 l 360 541 l 509 422 m 511 955 q 650 816 604 863 q 849 815 812 815 l 849 814 l 849 668 q 849 618 849 652 q 989 477 983 484 q 850 338 897 385 q 849 140 849 177 l 848 140 l 702 140 q 652 140 686 140 q 511 0 517 5 q 372 139 420 91 q 174 140 211 140 l 174 140 l 174 287 q 174 337 174 303 q 34 477 39 471 q 173 616 125 569 q 174 815 174 778 l 174 815 l 321 815 q 371 815 337 815 q 511 955 505 949 m 511 890 q 391 769 506 885 q 347 769 361 769 l 220 769 l 220 769 q 220 597 220 736 q 100 477 178 557 q 220 357 104 472 q 220 313 220 328 l 220 186 l 220 186 q 391 186 252 186 q 511 66 432 144 q 632 186 517 70 q 675 186 661 186 l 802 186 l 803 186 q 803 357 803 218 q 924 477 844 397 q 803 598 919 483 q 803 642 803 627 l 803 768 l 803 769 q 631 769 770 769 q 511 890 591 810 z "},"":{"ha":1023,"x_min":34,"x_max":989,"o":"m 289 703 l 289 665 q 298 641 289 652 q 321 629 306 632 q 404 620 361 629 q 457 602 430 614 q 621 456 564 556 q 653 376 637 427 q 662 322 659 353 q 665 280 663 286 q 700 254 676 254 l 737 254 l 739 256 l 739 298 q 684 496 739 399 q 618 583 665 534 q 552 637 579 621 q 333 704 446 704 l 290 704 l 289 703 m 289 553 l 289 515 q 304 486 289 498 q 342 478 313 478 q 410 458 376 475 q 462 420 431 451 q 504 353 490 389 q 513 314 509 338 q 517 277 514 277 q 550 254 528 254 l 588 254 l 589 256 l 589 298 q 574 379 589 335 q 466 515 540 468 q 333 554 399 554 l 290 554 l 289 553 m 364 405 q 315 385 339 405 q 289 333 289 359 l 289 326 q 304 286 289 307 q 363 254 330 254 q 414 275 391 254 q 439 326 439 300 l 439 333 q 425 372 439 352 q 364 405 399 405 m 511 955 q 650 816 604 863 q 849 815 812 815 l 849 814 l 849 668 q 849 618 849 652 q 989 477 983 484 q 850 338 897 385 q 849 140 849 177 l 848 140 l 702 140 q 652 140 686 140 q 511 0 517 5 q 372 139 420 91 q 174 140 211 140 l 174 140 l 174 287 q 174 337 174 303 q 34 477 39 471 q 173 616 125 569 q 174 815 174 778 l 174 815 l 321 815 q 371 815 337 815 q 511 955 505 949 m 511 890 q 391 769 506 885 q 347 769 361 769 l 220 769 l 220 769 q 220 597 220 736 q 100 477 178 557 q 220 357 104 472 q 220 313 220 328 l 220 186 l 220 186 q 391 186 252 186 q 511 66 432 144 q 632 186 517 70 q 675 186 661 186 l 802 186 l 803 186 q 803 357 803 218 q 924 477 844 397 q 803 598 919 483 q 803 642 803 627 l 803 768 l 803 769 q 631 769 770 769 q 511 890 591 810 z "},"":{"ha":896,"x_min":34,"x_max":862,"o":"m 259 640 q 251 637 256 640 q 231 611 231 627 l 231 326 q 235 313 231 319 q 262 296 245 296 l 638 296 q 652 300 646 296 q 669 326 669 310 l 669 609 q 665 623 669 616 q 638 640 655 640 l 259 640 m 556 576 l 450 492 q 345 576 347 574 l 556 576 m 450 412 l 606 536 l 606 536 l 606 359 l 294 359 l 294 536 l 450 412 m 448 955 l 710 804 l 862 716 l 862 716 q 862 239 862 498 q 532 48 701 146 q 448 0 450 1 l 448 0 l 186 151 l 34 239 l 34 239 q 34 716 34 456 q 364 907 195 809 q 448 955 446 954 l 448 955 m 448 898 q 374 855 446 897 q 83 688 225 770 q 83 267 83 459 l 83 267 l 217 190 l 448 57 l 448 57 q 522 100 450 58 q 812 267 671 185 q 812 688 812 496 l 812 688 l 679 765 l 448 898 l 448 898 z "},"":{"ha":896,"x_min":34,"x_max":862,"o":"m 224 699 l 224 662 q 233 638 224 649 q 256 625 241 629 q 338 616 296 625 q 392 599 364 610 q 555 453 498 553 q 587 374 572 424 q 597 319 593 350 q 600 277 597 283 q 634 252 610 252 l 671 252 l 673 253 l 673 296 q 618 493 673 396 q 553 580 600 530 q 486 634 513 617 q 268 701 380 701 l 225 701 l 224 699 m 224 550 l 224 513 q 239 483 224 495 q 277 475 248 475 q 345 456 311 473 q 397 418 365 448 q 438 350 425 387 q 447 311 443 335 q 451 275 448 275 q 485 252 463 252 l 522 252 l 524 253 l 524 296 q 509 376 524 332 q 400 512 475 465 q 268 551 334 551 l 225 551 l 224 550 m 299 401 q 250 382 273 401 q 224 330 224 357 l 224 323 q 239 283 224 304 q 298 252 264 252 q 349 273 326 252 q 373 323 373 297 l 373 330 q 359 370 373 349 q 299 401 334 401 m 448 955 l 710 804 l 862 716 l 862 716 q 862 239 862 498 q 532 48 701 146 q 448 0 450 1 l 448 0 l 186 151 l 34 239 l 34 239 q 34 716 34 456 q 364 907 195 809 q 448 955 446 954 l 448 955 m 448 898 q 374 855 446 897 q 83 688 225 770 q 83 267 83 459 l 83 267 l 217 190 l 448 57 l 448 57 q 522 100 450 58 q 812 267 671 185 q 812 688 812 496 l 812 688 l 679 765 l 448 898 l 448 898 z "},"":{"ha":1023,"x_min":34,"x_max":989,"o":"m 259 707 q 249 705 256 707 q 222 669 222 690 l 222 290 q 227 272 222 280 q 263 249 241 249 l 766 249 q 783 254 774 249 q 806 290 806 268 l 806 667 q 802 684 806 676 q 766 707 787 707 l 259 707 m 655 624 l 514 511 q 374 624 376 621 l 655 624 m 514 404 l 722 570 l 723 570 l 723 332 l 306 332 l 306 570 l 514 404 m 147 955 l 876 955 q 959 918 923 955 q 989 842 989 883 l 989 113 q 960 38 989 72 q 876 0 923 0 l 148 0 q 60 41 97 0 q 34 113 34 75 l 34 842 q 71 925 34 889 q 147 955 106 955 m 87 843 l 87 112 q 119 60 87 78 q 146 54 132 54 l 876 54 q 928 84 911 54 q 935 112 935 98 l 935 843 q 903 896 935 878 q 877 901 890 901 l 146 901 q 104 885 121 901 q 87 843 87 867 z "}}}
